G04 #@! TF.GenerationSoftware,KiCad,Pcbnew,5.0.2-bee76a0~70~ubuntu18.10.1*
G04 #@! TF.CreationDate,2019-03-19T21:34:18-05:00*
G04 #@! TF.ProjectId,camboard,63616d62-6f61-4726-942e-6b696361645f,rev?*
G04 #@! TF.SameCoordinates,Original*
G04 #@! TF.FileFunction,Legend,Top*
G04 #@! TF.FilePolarity,Positive*
%FSLAX46Y46*%
G04 Gerber Fmt 4.6, Leading zero omitted, Abs format (unit mm)*
G04 Created by KiCad (PCBNEW 5.0.2-bee76a0~70~ubuntu18.10.1) date Tue 19 Mar 2019 09:34:18 PM CDT*
%MOMM*%
%LPD*%
G01*
G04 APERTURE LIST*
%ADD10C,0.300000*%
%ADD11C,0.150000*%
%ADD12C,0.120000*%
%ADD13C,0.203200*%
%ADD14C,0.152400*%
%ADD15C,0.254000*%
%ADD16C,0.100000*%
%ADD17C,0.127000*%
G04 APERTURE END LIST*
D10*
X-26557142Y39992857D02*
X-26700000Y39921428D01*
X-26985714Y39921428D01*
X-27128571Y39992857D01*
X-27200000Y40064285D01*
X-27271428Y40207142D01*
X-27271428Y40635714D01*
X-27200000Y40778571D01*
X-27128571Y40850000D01*
X-26985714Y40921428D01*
X-26700000Y40921428D01*
X-26557142Y40850000D01*
X-25271428Y39921428D02*
X-25271428Y40707142D01*
X-25342857Y40850000D01*
X-25485714Y40921428D01*
X-25771428Y40921428D01*
X-25914285Y40850000D01*
X-25271428Y39992857D02*
X-25414285Y39921428D01*
X-25771428Y39921428D01*
X-25914285Y39992857D01*
X-25985714Y40135714D01*
X-25985714Y40278571D01*
X-25914285Y40421428D01*
X-25771428Y40492857D01*
X-25414285Y40492857D01*
X-25271428Y40564285D01*
X-24557142Y39921428D02*
X-24557142Y40921428D01*
X-24557142Y40778571D02*
X-24485714Y40850000D01*
X-24342857Y40921428D01*
X-24128571Y40921428D01*
X-23985714Y40850000D01*
X-23914285Y40707142D01*
X-23914285Y39921428D01*
X-23914285Y40707142D02*
X-23842857Y40850000D01*
X-23700000Y40921428D01*
X-23485714Y40921428D01*
X-23342857Y40850000D01*
X-23271428Y40707142D01*
X-23271428Y39921428D01*
X-22557142Y40492857D02*
X-21414285Y40492857D01*
X-20700000Y39921428D02*
X-20700000Y41421428D01*
X-20700000Y40850000D02*
X-20557142Y40921428D01*
X-20271428Y40921428D01*
X-20128571Y40850000D01*
X-20057142Y40778571D01*
X-19985714Y40635714D01*
X-19985714Y40207142D01*
X-20057142Y40064285D01*
X-20128571Y39992857D01*
X-20271428Y39921428D01*
X-20557142Y39921428D01*
X-20700000Y39992857D01*
X-19128571Y39921428D02*
X-19271428Y39992857D01*
X-19342857Y40064285D01*
X-19414285Y40207142D01*
X-19414285Y40635714D01*
X-19342857Y40778571D01*
X-19271428Y40850000D01*
X-19128571Y40921428D01*
X-18914285Y40921428D01*
X-18771428Y40850000D01*
X-18700000Y40778571D01*
X-18628571Y40635714D01*
X-18628571Y40207142D01*
X-18700000Y40064285D01*
X-18771428Y39992857D01*
X-18914285Y39921428D01*
X-19128571Y39921428D01*
X-17342857Y39921428D02*
X-17342857Y40707142D01*
X-17414285Y40850000D01*
X-17557142Y40921428D01*
X-17842857Y40921428D01*
X-17985714Y40850000D01*
X-17342857Y39992857D02*
X-17485714Y39921428D01*
X-17842857Y39921428D01*
X-17985714Y39992857D01*
X-18057142Y40135714D01*
X-18057142Y40278571D01*
X-17985714Y40421428D01*
X-17842857Y40492857D01*
X-17485714Y40492857D01*
X-17342857Y40564285D01*
X-16628571Y39921428D02*
X-16628571Y40921428D01*
X-16628571Y40635714D02*
X-16557142Y40778571D01*
X-16485714Y40850000D01*
X-16342857Y40921428D01*
X-16200000Y40921428D01*
X-15057142Y39921428D02*
X-15057142Y41421428D01*
X-15057142Y39992857D02*
X-15200000Y39921428D01*
X-15485714Y39921428D01*
X-15628571Y39992857D01*
X-15700000Y40064285D01*
X-15771428Y40207142D01*
X-15771428Y40635714D01*
X-15700000Y40778571D01*
X-15628571Y40850000D01*
X-15485714Y40921428D01*
X-15200000Y40921428D01*
X-15057142Y40850000D01*
X-13342857Y40921428D02*
X-12985714Y39921428D01*
X-12628571Y40921428D01*
X-11771428Y41421428D02*
X-11628571Y41421428D01*
X-11485714Y41350000D01*
X-11414285Y41278571D01*
X-11342857Y41135714D01*
X-11271428Y40850000D01*
X-11271428Y40492857D01*
X-11342857Y40207142D01*
X-11414285Y40064285D01*
X-11485714Y39992857D01*
X-11628571Y39921428D01*
X-11771428Y39921428D01*
X-11914285Y39992857D01*
X-11985714Y40064285D01*
X-12057142Y40207142D01*
X-12128571Y40492857D01*
X-12128571Y40850000D01*
X-12057142Y41135714D01*
X-11985714Y41278571D01*
X-11914285Y41350000D01*
X-11771428Y41421428D01*
X-10628571Y40064285D02*
X-10557142Y39992857D01*
X-10628571Y39921428D01*
X-10700000Y39992857D01*
X-10628571Y40064285D01*
X-10628571Y39921428D01*
X-9128571Y39921428D02*
X-9985714Y39921428D01*
X-9557142Y39921428D02*
X-9557142Y41421428D01*
X-9700000Y41207142D01*
X-9842857Y41064285D01*
X-9985714Y40992857D01*
D11*
G04 #@! TO.C,J3*
X22300000Y26000000D02*
X22300000Y28000000D01*
X15700000Y26000000D02*
X15700000Y28000000D01*
D12*
X25160000Y19700000D02*
X26650000Y19700000D01*
X26650000Y19700000D02*
X26650000Y21040000D01*
X12840000Y19700000D02*
X11350000Y19700000D01*
X11350000Y19700000D02*
X11350000Y21040000D01*
X26650000Y23760000D02*
X26650000Y25500000D01*
X26650000Y25500000D02*
X11350000Y25500000D01*
X11350000Y25500000D02*
X11350000Y23760000D01*
X25160000Y19700000D02*
X25160000Y18500000D01*
G04 #@! TO.C,TP4*
X27450000Y15500000D02*
G75*
G03X27450000Y15500000I-950000J0D01*
G01*
G04 #@! TO.C,J2*
X13160000Y-14160000D02*
X13160000Y-12960000D01*
X-13650000Y-14160000D02*
X-13650000Y-15500000D01*
X-13650000Y-18220000D02*
X-13650000Y-19960000D01*
X-12160000Y-14160000D02*
X-12160000Y-12960000D01*
X14650000Y-14160000D02*
X14650000Y-15500000D01*
X14650000Y-19960000D02*
X14650000Y-18220000D01*
X13160000Y-14160000D02*
X14650000Y-14160000D01*
X-13650000Y-19960000D02*
X14650000Y-19960000D01*
X-12160000Y-14160000D02*
X-13650000Y-14160000D01*
G04 #@! TO.C,C15*
X-25790000Y-21741422D02*
X-25790000Y-22258578D01*
X-27210000Y-21741422D02*
X-27210000Y-22258578D01*
G04 #@! TO.C,C16*
X-13741422Y-10790000D02*
X-14258578Y-10790000D01*
X-13741422Y-12210000D02*
X-14258578Y-12210000D01*
G04 #@! TO.C,D1*
X24310000Y4571267D02*
X24310000Y4228733D01*
X23290000Y4571267D02*
X23290000Y4228733D01*
G04 #@! TO.C,D4*
X4570000Y31920000D02*
X4570000Y32850000D01*
X4570000Y35080000D02*
X4570000Y34150000D01*
X4570000Y35080000D02*
X2410000Y35080000D01*
X4570000Y31920000D02*
X3110000Y31920000D01*
G04 #@! TO.C,D5*
X-20760000Y1180000D02*
X-19300000Y1180000D01*
X-20760000Y-1980000D02*
X-18600000Y-1980000D01*
X-20760000Y-1980000D02*
X-20760000Y-1050000D01*
X-20760000Y1180000D02*
X-20760000Y250000D01*
G04 #@! TO.C,D6*
X-22760142Y11979377D02*
X-22760142Y12909377D01*
X-22760142Y15139377D02*
X-22760142Y14209377D01*
X-22760142Y15139377D02*
X-24920142Y15139377D01*
X-22760142Y11979377D02*
X-24220142Y11979377D01*
G04 #@! TO.C,J1*
X-27390142Y-1740623D02*
X-22190142Y-1740623D01*
X-27390142Y8479377D02*
X-27390142Y-1740623D01*
X-22190142Y11079377D02*
X-22190142Y-1740623D01*
X-27390142Y8479377D02*
X-24790142Y8479377D01*
X-24790142Y8479377D02*
X-24790142Y11079377D01*
X-24790142Y11079377D02*
X-22190142Y11079377D01*
X-27390142Y9749377D02*
X-27390142Y11079377D01*
X-27390142Y11079377D02*
X-26060142Y11079377D01*
G04 #@! TO.C,J4*
X-3810000Y38090000D02*
X-3430000Y38090000D01*
X-3810000Y42140000D02*
X-3810000Y42400000D01*
X-3810000Y38090000D02*
X-3810000Y39860000D01*
X3810000Y38090000D02*
X3430000Y38090000D01*
X3810000Y39860000D02*
X3810000Y38090000D01*
X3810000Y42400000D02*
X3810000Y42140000D01*
G04 #@! TO.C,L1*
X-23290000Y-21738748D02*
X-23290000Y-22261252D01*
X-24710000Y-21738748D02*
X-24710000Y-22261252D01*
G04 #@! TO.C,R19*
X-21238748Y-26210000D02*
X-21761252Y-26210000D01*
X-21238748Y-24790000D02*
X-21761252Y-24790000D01*
D13*
G04 #@! TO.C,SW1*
X-14251720Y-7247520D02*
X-19748280Y-7247520D01*
X-19748280Y-3752480D02*
X-14251720Y-3752480D01*
X-14000260Y-4001400D02*
X-14000260Y-4400180D01*
X-14000260Y-6599820D02*
X-14000260Y-6998600D01*
X-19999740Y-6599820D02*
X-19999740Y-6998600D01*
X-19999740Y-4001400D02*
X-19999740Y-4400180D01*
X-15501400Y-6249300D02*
X-18498600Y-6249300D01*
X-18498600Y-4750700D02*
X-15501400Y-4750700D01*
X-15501400Y-4750700D02*
X-15501400Y-6249300D01*
X-18498600Y-4750700D02*
X-18498600Y-6249300D01*
X-14251720Y-7250060D02*
G75*
G03X-14000260Y-6998600I0J251460D01*
G01*
X-19997200Y-6998600D02*
G75*
G03X-19748280Y-7247520I248920J0D01*
G01*
X-19748280Y-3749940D02*
G75*
G03X-19999740Y-4001400I0J-251460D01*
G01*
X-14002800Y-4001400D02*
G75*
G03X-14251720Y-3752480I-248920J0D01*
G01*
G04 #@! TO.C,SW3*
X26926720Y-33625280D02*
X26073280Y-33625280D01*
X26926720Y-40574720D02*
X26073280Y-40574720D01*
X27924940Y-39797480D02*
X27924940Y-34402520D01*
X25075060Y-38725600D02*
X25075060Y-36973000D01*
D12*
G04 #@! TO.C,TP5*
X-10550000Y-10000000D02*
G75*
G03X-10550000Y-10000000I-950000J0D01*
G01*
G04 #@! TO.C,TP6*
X-17050000Y-15000000D02*
G75*
G03X-17050000Y-15000000I-950000J0D01*
G01*
G04 #@! TO.C,TP7*
X-19050000Y-28500000D02*
G75*
G03X-19050000Y-28500000I-950000J0D01*
G01*
D14*
G04 #@! TO.C,U1*
X-4514842Y13064077D02*
X-4514842Y12424275D01*
X-4514842Y-1185323D02*
X-3875040Y-1185323D01*
X9734558Y-1185323D02*
X9734558Y-545521D01*
X9734558Y13064077D02*
X9094756Y13064077D01*
X-3875040Y13064077D02*
X-4514842Y13064077D01*
X-4514842Y-545521D02*
X-4514842Y-1185323D01*
X9094756Y-1185323D02*
X9734558Y-1185323D01*
X9734558Y12424275D02*
X9734558Y13064077D01*
X4300358Y14803977D02*
X3919358Y14803977D01*
X3919358Y14803977D02*
X3919358Y14549977D01*
X3919358Y14549977D02*
X4300358Y14549977D01*
X4300358Y14549977D02*
X4300358Y14803977D01*
X-699643Y14803977D02*
X-1080643Y14803977D01*
X-1080643Y14803977D02*
X-1080643Y14549977D01*
X-1080643Y14549977D02*
X-699643Y14549977D01*
X-699643Y14549977D02*
X-699643Y14803977D01*
X-6000742Y10129877D02*
X-6254742Y10129877D01*
X-6254742Y10129877D02*
X-6254742Y9748877D01*
X-6254742Y9748877D02*
X-6000742Y9748877D01*
X-6000742Y9748877D02*
X-6000742Y10129877D01*
X-6000742Y5129876D02*
X-6254742Y5129876D01*
X-6254742Y5129876D02*
X-6254742Y4748876D01*
X-6254742Y4748876D02*
X-6000742Y4748876D01*
X-6000742Y4748876D02*
X-6000742Y5129876D01*
X-6000742Y129876D02*
X-6254742Y129876D01*
X-6254742Y129876D02*
X-6254742Y-251124D01*
X-6254742Y-251124D02*
X-6000742Y-251124D01*
X-6000742Y-251124D02*
X-6000742Y129876D01*
X1300358Y-2925223D02*
X919358Y-2925223D01*
X919358Y-2925223D02*
X919358Y-2671223D01*
X919358Y-2671223D02*
X1300358Y-2671223D01*
X1300358Y-2671223D02*
X1300358Y-2925223D01*
X6300359Y-2925223D02*
X5919359Y-2925223D01*
X5919359Y-2925223D02*
X5919359Y-2671223D01*
X5919359Y-2671223D02*
X6300359Y-2671223D01*
X6300359Y-2671223D02*
X6300359Y-2925223D01*
X11220458Y2129877D02*
X11474458Y2129877D01*
X11474458Y2129877D02*
X11474458Y1748877D01*
X11474458Y1748877D02*
X11220458Y1748877D01*
X11220458Y1748877D02*
X11220458Y2129877D01*
X11220458Y7129878D02*
X11474458Y7129878D01*
X11474458Y7129878D02*
X11474458Y6748878D01*
X11474458Y6748878D02*
X11220458Y6748878D01*
X11220458Y6748878D02*
X11220458Y7129878D01*
X11220458Y12129878D02*
X11474458Y12129878D01*
X11474458Y12129878D02*
X11474458Y11748878D01*
X11474458Y11748878D02*
X11220458Y11748878D01*
X11220458Y11748878D02*
X11220458Y12129878D01*
D15*
G04 #@! TO.C,U2*
X1905000Y22703377D02*
G75*
G03X1905000Y22703377I-254000J0D01*
G01*
X1778000Y22703377D02*
G75*
G03X1778000Y22703377I-127000J0D01*
G01*
D13*
X8206740Y22535737D02*
X2207260Y22535737D01*
X1953260Y17283017D02*
X8206740Y17283017D01*
X2207260Y22535737D02*
X1953260Y22233477D01*
X1953260Y17585277D02*
X1953260Y17283017D01*
X8206740Y17283017D02*
X8206740Y17585277D01*
X8206740Y22233477D02*
X8206740Y22535737D01*
D16*
X2080260Y22789737D02*
G75*
G03X2080260Y22789737I-381000J0D01*
G01*
D12*
G04 #@! TO.C,Y1*
X-11050000Y10550000D02*
X-11050000Y9450000D01*
X-12950000Y10550000D02*
X-12950000Y9450000D01*
X-11100000Y11950000D02*
X-12900000Y11950000D01*
G04 #@! TO.C,TP1*
X-16050000Y-1000000D02*
G75*
G03X-16050000Y-1000000I-950000J0D01*
G01*
G04 #@! TO.C,TP2*
X-8550000Y-1500000D02*
G75*
G03X-8550000Y-1500000I-950000J0D01*
G01*
G04 #@! TO.C,TP3*
X-8850000Y2400000D02*
G75*
G03X-8850000Y2400000I-950000J0D01*
G01*
G04 #@! TO.C,J5*
X-24730142Y-5430623D02*
X-27390142Y-5430623D01*
X-24730142Y-10570623D02*
X-24730142Y-5430623D01*
X-27390142Y-10570623D02*
X-27390142Y-5430623D01*
X-24730142Y-10570623D02*
X-27390142Y-10570623D01*
X-24730142Y-11840623D02*
X-24730142Y-13170623D01*
X-24730142Y-13170623D02*
X-26060142Y-13170623D01*
G04 #@! TO.C,D7*
X-15420000Y-21740000D02*
X-16350000Y-21740000D01*
X-18580000Y-21740000D02*
X-17650000Y-21740000D01*
X-18580000Y-21740000D02*
X-18580000Y-23900000D01*
X-15420000Y-21740000D02*
X-15420000Y-23200000D01*
D11*
G04 #@! TO.C,U3*
X-20425142Y-21790623D02*
X-20425142Y-22790623D01*
X-22575142Y-21790623D02*
X-22575142Y-22790623D01*
G04 #@! TO.C,J3*
X27556666Y17737619D02*
X27556666Y17023333D01*
X27509047Y16880476D01*
X27413809Y16785238D01*
X27270952Y16737619D01*
X27175714Y16737619D01*
X27937619Y17737619D02*
X28556666Y17737619D01*
X28223333Y17356666D01*
X28366190Y17356666D01*
X28461428Y17309047D01*
X28509047Y17261428D01*
X28556666Y17166190D01*
X28556666Y16928095D01*
X28509047Y16832857D01*
X28461428Y16785238D01*
X28366190Y16737619D01*
X28080476Y16737619D01*
X27985238Y16785238D01*
X27937619Y16832857D01*
G04 #@! TO.C,TP4*
X25238095Y14399619D02*
X25809523Y14399619D01*
X25523809Y13399619D02*
X25523809Y14399619D01*
X26142857Y13399619D02*
X26142857Y14399619D01*
X26523809Y14399619D01*
X26619047Y14352000D01*
X26666666Y14304380D01*
X26714285Y14209142D01*
X26714285Y14066285D01*
X26666666Y13971047D01*
X26619047Y13923428D01*
X26523809Y13875809D01*
X26142857Y13875809D01*
X27571428Y14066285D02*
X27571428Y13399619D01*
X27333333Y14447238D02*
X27095238Y13732952D01*
X27714285Y13732952D01*
G04 #@! TO.C,C1*
X7333333Y15642857D02*
X7285714Y15595238D01*
X7142857Y15547619D01*
X7047619Y15547619D01*
X6904761Y15595238D01*
X6809523Y15690476D01*
X6761904Y15785714D01*
X6714285Y15976190D01*
X6714285Y16119047D01*
X6761904Y16309523D01*
X6809523Y16404761D01*
X6904761Y16500000D01*
X7047619Y16547619D01*
X7142857Y16547619D01*
X7285714Y16500000D01*
X7333333Y16452380D01*
X8285714Y15547619D02*
X7714285Y15547619D01*
X8000000Y15547619D02*
X8000000Y16547619D01*
X7904761Y16404761D01*
X7809523Y16309523D01*
X7714285Y16261904D01*
G04 #@! TO.C,C2*
X833333Y15642857D02*
X785714Y15595238D01*
X642857Y15547619D01*
X547619Y15547619D01*
X404761Y15595238D01*
X309523Y15690476D01*
X261904Y15785714D01*
X214285Y15976190D01*
X214285Y16119047D01*
X261904Y16309523D01*
X309523Y16404761D01*
X404761Y16500000D01*
X547619Y16547619D01*
X642857Y16547619D01*
X785714Y16500000D01*
X833333Y16452380D01*
X1214285Y16452380D02*
X1261904Y16500000D01*
X1357142Y16547619D01*
X1595238Y16547619D01*
X1690476Y16500000D01*
X1738095Y16452380D01*
X1785714Y16357142D01*
X1785714Y16261904D01*
X1738095Y16119047D01*
X1166666Y15547619D01*
X1785714Y15547619D01*
G04 #@! TO.C,C3*
X-6442857Y17833333D02*
X-6395238Y17785714D01*
X-6347619Y17642857D01*
X-6347619Y17547619D01*
X-6395238Y17404761D01*
X-6490476Y17309523D01*
X-6585714Y17261904D01*
X-6776190Y17214285D01*
X-6919047Y17214285D01*
X-7109523Y17261904D01*
X-7204761Y17309523D01*
X-7300000Y17404761D01*
X-7347619Y17547619D01*
X-7347619Y17642857D01*
X-7300000Y17785714D01*
X-7252380Y17833333D01*
X-7347619Y18166666D02*
X-7347619Y18785714D01*
X-6966666Y18452380D01*
X-6966666Y18595238D01*
X-6919047Y18690476D01*
X-6871428Y18738095D01*
X-6776190Y18785714D01*
X-6538095Y18785714D01*
X-6442857Y18738095D01*
X-6395238Y18690476D01*
X-6347619Y18595238D01*
X-6347619Y18309523D01*
X-6395238Y18214285D01*
X-6442857Y18166666D01*
G04 #@! TO.C,C4*
X-14706666Y6642857D02*
X-14754285Y6595238D01*
X-14897142Y6547619D01*
X-14992380Y6547619D01*
X-15135238Y6595238D01*
X-15230476Y6690476D01*
X-15278095Y6785714D01*
X-15325714Y6976190D01*
X-15325714Y7119047D01*
X-15278095Y7309523D01*
X-15230476Y7404761D01*
X-15135238Y7500000D01*
X-14992380Y7547619D01*
X-14897142Y7547619D01*
X-14754285Y7500000D01*
X-14706666Y7452380D01*
X-13849523Y7214285D02*
X-13849523Y6547619D01*
X-14087619Y7595238D02*
X-14325714Y6880952D01*
X-13706666Y6880952D01*
G04 #@! TO.C,C5*
X-14706666Y642857D02*
X-14754285Y595238D01*
X-14897142Y547619D01*
X-14992380Y547619D01*
X-15135238Y595238D01*
X-15230476Y690476D01*
X-15278095Y785714D01*
X-15325714Y976190D01*
X-15325714Y1119047D01*
X-15278095Y1309523D01*
X-15230476Y1404761D01*
X-15135238Y1500000D01*
X-14992380Y1547619D01*
X-14897142Y1547619D01*
X-14754285Y1500000D01*
X-14706666Y1452380D01*
X-13801904Y1547619D02*
X-14278095Y1547619D01*
X-14325714Y1071428D01*
X-14278095Y1119047D01*
X-14182857Y1166666D01*
X-13944761Y1166666D01*
X-13849523Y1119047D01*
X-13801904Y1071428D01*
X-13754285Y976190D01*
X-13754285Y738095D01*
X-13801904Y642857D01*
X-13849523Y595238D01*
X-13944761Y547619D01*
X-14182857Y547619D01*
X-14278095Y595238D01*
X-14325714Y642857D01*
G04 #@! TO.C,C6*
X3527142Y-5666666D02*
X3574761Y-5714285D01*
X3622380Y-5857142D01*
X3622380Y-5952380D01*
X3574761Y-6095238D01*
X3479523Y-6190476D01*
X3384285Y-6238095D01*
X3193809Y-6285714D01*
X3050952Y-6285714D01*
X2860476Y-6238095D01*
X2765238Y-6190476D01*
X2670000Y-6095238D01*
X2622380Y-5952380D01*
X2622380Y-5857142D01*
X2670000Y-5714285D01*
X2717619Y-5666666D01*
X2622380Y-4809523D02*
X2622380Y-5000000D01*
X2670000Y-5095238D01*
X2717619Y-5142857D01*
X2860476Y-5238095D01*
X3050952Y-5285714D01*
X3431904Y-5285714D01*
X3527142Y-5238095D01*
X3574761Y-5190476D01*
X3622380Y-5095238D01*
X3622380Y-4904761D01*
X3574761Y-4809523D01*
X3527142Y-4761904D01*
X3431904Y-4714285D01*
X3193809Y-4714285D01*
X3098571Y-4761904D01*
X3050952Y-4809523D01*
X3003333Y-4904761D01*
X3003333Y-5095238D01*
X3050952Y-5190476D01*
X3098571Y-5238095D01*
X3193809Y-5285714D01*
G04 #@! TO.C,C7*
X15357142Y-5666666D02*
X15404761Y-5714285D01*
X15452380Y-5857142D01*
X15452380Y-5952380D01*
X15404761Y-6095238D01*
X15309523Y-6190476D01*
X15214285Y-6238095D01*
X15023809Y-6285714D01*
X14880952Y-6285714D01*
X14690476Y-6238095D01*
X14595238Y-6190476D01*
X14500000Y-6095238D01*
X14452380Y-5952380D01*
X14452380Y-5857142D01*
X14500000Y-5714285D01*
X14547619Y-5666666D01*
X14452380Y-5333333D02*
X14452380Y-4666666D01*
X15452380Y-5095238D01*
G04 #@! TO.C,C8*
X21733333Y6012857D02*
X21685714Y5965238D01*
X21542857Y5917619D01*
X21447619Y5917619D01*
X21304761Y5965238D01*
X21209523Y6060476D01*
X21161904Y6155714D01*
X21114285Y6346190D01*
X21114285Y6489047D01*
X21161904Y6679523D01*
X21209523Y6774761D01*
X21304761Y6870000D01*
X21447619Y6917619D01*
X21542857Y6917619D01*
X21685714Y6870000D01*
X21733333Y6822380D01*
X22304761Y6489047D02*
X22209523Y6536666D01*
X22161904Y6584285D01*
X22114285Y6679523D01*
X22114285Y6727142D01*
X22161904Y6822380D01*
X22209523Y6870000D01*
X22304761Y6917619D01*
X22495238Y6917619D01*
X22590476Y6870000D01*
X22638095Y6822380D01*
X22685714Y6727142D01*
X22685714Y6679523D01*
X22638095Y6584285D01*
X22590476Y6536666D01*
X22495238Y6489047D01*
X22304761Y6489047D01*
X22209523Y6441428D01*
X22161904Y6393809D01*
X22114285Y6298571D01*
X22114285Y6108095D01*
X22161904Y6012857D01*
X22209523Y5965238D01*
X22304761Y5917619D01*
X22495238Y5917619D01*
X22590476Y5965238D01*
X22638095Y6012857D01*
X22685714Y6108095D01*
X22685714Y6298571D01*
X22638095Y6393809D01*
X22590476Y6441428D01*
X22495238Y6489047D01*
G04 #@! TO.C,C9*
X12833333Y14142857D02*
X12785714Y14095238D01*
X12642857Y14047619D01*
X12547619Y14047619D01*
X12404761Y14095238D01*
X12309523Y14190476D01*
X12261904Y14285714D01*
X12214285Y14476190D01*
X12214285Y14619047D01*
X12261904Y14809523D01*
X12309523Y14904761D01*
X12404761Y15000000D01*
X12547619Y15047619D01*
X12642857Y15047619D01*
X12785714Y15000000D01*
X12833333Y14952380D01*
X13309523Y14047619D02*
X13500000Y14047619D01*
X13595238Y14095238D01*
X13642857Y14142857D01*
X13738095Y14285714D01*
X13785714Y14476190D01*
X13785714Y14857142D01*
X13738095Y14952380D01*
X13690476Y15000000D01*
X13595238Y15047619D01*
X13404761Y15047619D01*
X13309523Y15000000D01*
X13261904Y14952380D01*
X13214285Y14857142D01*
X13214285Y14619047D01*
X13261904Y14523809D01*
X13309523Y14476190D01*
X13404761Y14428571D01*
X13595238Y14428571D01*
X13690476Y14476190D01*
X13738095Y14523809D01*
X13785714Y14619047D01*
G04 #@! TO.C,C10*
X-15357856Y15642857D02*
X-15405475Y15595238D01*
X-15548332Y15547619D01*
X-15643570Y15547619D01*
X-15786427Y15595238D01*
X-15881665Y15690476D01*
X-15929284Y15785714D01*
X-15976903Y15976190D01*
X-15976903Y16119047D01*
X-15929284Y16309523D01*
X-15881665Y16404761D01*
X-15786427Y16500000D01*
X-15643570Y16547619D01*
X-15548332Y16547619D01*
X-15405475Y16500000D01*
X-15357856Y16452380D01*
X-14405475Y15547619D02*
X-14976903Y15547619D01*
X-14691189Y15547619D02*
X-14691189Y16547619D01*
X-14786427Y16404761D01*
X-14881665Y16309523D01*
X-14976903Y16261904D01*
X-13786427Y16547619D02*
X-13691189Y16547619D01*
X-13595951Y16500000D01*
X-13548332Y16452380D01*
X-13500713Y16357142D01*
X-13453094Y16166666D01*
X-13453094Y15928571D01*
X-13500713Y15738095D01*
X-13548332Y15642857D01*
X-13595951Y15595238D01*
X-13691189Y15547619D01*
X-13786427Y15547619D01*
X-13881665Y15595238D01*
X-13929284Y15642857D01*
X-13976903Y15738095D01*
X-14024522Y15928571D01*
X-14024522Y16166666D01*
X-13976903Y16357142D01*
X-13929284Y16452380D01*
X-13881665Y16500000D01*
X-13786427Y16547619D01*
G04 #@! TO.C,C11*
X-15357856Y14142857D02*
X-15405475Y14095238D01*
X-15548332Y14047619D01*
X-15643570Y14047619D01*
X-15786427Y14095238D01*
X-15881665Y14190476D01*
X-15929284Y14285714D01*
X-15976903Y14476190D01*
X-15976903Y14619047D01*
X-15929284Y14809523D01*
X-15881665Y14904761D01*
X-15786427Y15000000D01*
X-15643570Y15047619D01*
X-15548332Y15047619D01*
X-15405475Y15000000D01*
X-15357856Y14952380D01*
X-14405475Y14047619D02*
X-14976903Y14047619D01*
X-14691189Y14047619D02*
X-14691189Y15047619D01*
X-14786427Y14904761D01*
X-14881665Y14809523D01*
X-14976903Y14761904D01*
X-13453094Y14047619D02*
X-14024522Y14047619D01*
X-13738808Y14047619D02*
X-13738808Y15047619D01*
X-13834046Y14904761D01*
X-13929284Y14809523D01*
X-14024522Y14761904D01*
G04 #@! TO.C,C12*
X-15182857Y2142857D02*
X-15230476Y2095238D01*
X-15373333Y2047619D01*
X-15468571Y2047619D01*
X-15611428Y2095238D01*
X-15706666Y2190476D01*
X-15754285Y2285714D01*
X-15801904Y2476190D01*
X-15801904Y2619047D01*
X-15754285Y2809523D01*
X-15706666Y2904761D01*
X-15611428Y3000000D01*
X-15468571Y3047619D01*
X-15373333Y3047619D01*
X-15230476Y3000000D01*
X-15182857Y2952380D01*
X-14230476Y2047619D02*
X-14801904Y2047619D01*
X-14516190Y2047619D02*
X-14516190Y3047619D01*
X-14611428Y2904761D01*
X-14706666Y2809523D01*
X-14801904Y2761904D01*
X-13849523Y2952380D02*
X-13801904Y3000000D01*
X-13706666Y3047619D01*
X-13468571Y3047619D01*
X-13373333Y3000000D01*
X-13325714Y2952380D01*
X-13278095Y2857142D01*
X-13278095Y2761904D01*
X-13325714Y2619047D01*
X-13897142Y2047619D01*
X-13278095Y2047619D01*
G04 #@! TO.C,C13*
X-15142857Y-2357142D02*
X-15190476Y-2404761D01*
X-15333333Y-2452380D01*
X-15428571Y-2452380D01*
X-15571428Y-2404761D01*
X-15666666Y-2309523D01*
X-15714285Y-2214285D01*
X-15761904Y-2023809D01*
X-15761904Y-1880952D01*
X-15714285Y-1690476D01*
X-15666666Y-1595238D01*
X-15571428Y-1500000D01*
X-15428571Y-1452380D01*
X-15333333Y-1452380D01*
X-15190476Y-1500000D01*
X-15142857Y-1547619D01*
X-14190476Y-2452380D02*
X-14761904Y-2452380D01*
X-14476190Y-2452380D02*
X-14476190Y-1452380D01*
X-14571428Y-1595238D01*
X-14666666Y-1690476D01*
X-14761904Y-1738095D01*
X-13857142Y-1452380D02*
X-13238095Y-1452380D01*
X-13571428Y-1833333D01*
X-13428571Y-1833333D01*
X-13333333Y-1880952D01*
X-13285714Y-1928571D01*
X-13238095Y-2023809D01*
X-13238095Y-2261904D01*
X-13285714Y-2357142D01*
X-13333333Y-2404761D01*
X-13428571Y-2452380D01*
X-13714285Y-2452380D01*
X-13809523Y-2404761D01*
X-13857142Y-2357142D01*
G04 #@! TO.C,C14*
X4857142Y26637000D02*
X4904761Y26589381D01*
X4952380Y26446524D01*
X4952380Y26351286D01*
X4904761Y26208429D01*
X4809523Y26113191D01*
X4714285Y26065572D01*
X4523809Y26017953D01*
X4380952Y26017953D01*
X4190476Y26065572D01*
X4095238Y26113191D01*
X4000000Y26208429D01*
X3952380Y26351286D01*
X3952380Y26446524D01*
X4000000Y26589381D01*
X4047619Y26637000D01*
X4952380Y27589381D02*
X4952380Y27017953D01*
X4952380Y27303667D02*
X3952380Y27303667D01*
X4095238Y27208429D01*
X4190476Y27113191D01*
X4238095Y27017953D01*
X4285714Y28446524D02*
X4952380Y28446524D01*
X3904761Y28208429D02*
X4619047Y27970334D01*
X4619047Y28589381D01*
G04 #@! TO.C,C15*
X-27142857Y-24897142D02*
X-27190476Y-24944761D01*
X-27333333Y-24992380D01*
X-27428571Y-24992380D01*
X-27571428Y-24944761D01*
X-27666666Y-24849523D01*
X-27714285Y-24754285D01*
X-27761904Y-24563809D01*
X-27761904Y-24420952D01*
X-27714285Y-24230476D01*
X-27666666Y-24135238D01*
X-27571428Y-24040000D01*
X-27428571Y-23992380D01*
X-27333333Y-23992380D01*
X-27190476Y-24040000D01*
X-27142857Y-24087619D01*
X-26190476Y-24992380D02*
X-26761904Y-24992380D01*
X-26476190Y-24992380D02*
X-26476190Y-23992380D01*
X-26571428Y-24135238D01*
X-26666666Y-24230476D01*
X-26761904Y-24278095D01*
X-25285714Y-23992380D02*
X-25761904Y-23992380D01*
X-25809523Y-24468571D01*
X-25761904Y-24420952D01*
X-25666666Y-24373333D01*
X-25428571Y-24373333D01*
X-25333333Y-24420952D01*
X-25285714Y-24468571D01*
X-25238095Y-24563809D01*
X-25238095Y-24801904D01*
X-25285714Y-24897142D01*
X-25333333Y-24944761D01*
X-25428571Y-24992380D01*
X-25666666Y-24992380D01*
X-25761904Y-24944761D01*
X-25809523Y-24897142D01*
G04 #@! TO.C,C16*
X-17642857Y-11857142D02*
X-17690476Y-11904761D01*
X-17833333Y-11952380D01*
X-17928571Y-11952380D01*
X-18071428Y-11904761D01*
X-18166666Y-11809523D01*
X-18214285Y-11714285D01*
X-18261904Y-11523809D01*
X-18261904Y-11380952D01*
X-18214285Y-11190476D01*
X-18166666Y-11095238D01*
X-18071428Y-11000000D01*
X-17928571Y-10952380D01*
X-17833333Y-10952380D01*
X-17690476Y-11000000D01*
X-17642857Y-11047619D01*
X-16690476Y-11952380D02*
X-17261904Y-11952380D01*
X-16976190Y-11952380D02*
X-16976190Y-10952380D01*
X-17071428Y-11095238D01*
X-17166666Y-11190476D01*
X-17261904Y-11238095D01*
X-15833333Y-10952380D02*
X-16023809Y-10952380D01*
X-16119047Y-11000000D01*
X-16166666Y-11047619D01*
X-16261904Y-11190476D01*
X-16309523Y-11380952D01*
X-16309523Y-11761904D01*
X-16261904Y-11857142D01*
X-16214285Y-11904761D01*
X-16119047Y-11952380D01*
X-15928571Y-11952380D01*
X-15833333Y-11904761D01*
X-15785714Y-11857142D01*
X-15738095Y-11761904D01*
X-15738095Y-11523809D01*
X-15785714Y-11428571D01*
X-15833333Y-11380952D01*
X-15928571Y-11333333D01*
X-16119047Y-11333333D01*
X-16214285Y-11380952D01*
X-16261904Y-11428571D01*
X-16309523Y-11523809D01*
G04 #@! TO.C,C17*
X-15397853Y12642857D02*
X-15445472Y12595238D01*
X-15588329Y12547619D01*
X-15683567Y12547619D01*
X-15826424Y12595238D01*
X-15921662Y12690476D01*
X-15969281Y12785714D01*
X-16016900Y12976190D01*
X-16016900Y13119047D01*
X-15969281Y13309523D01*
X-15921662Y13404761D01*
X-15826424Y13500000D01*
X-15683567Y13547619D01*
X-15588329Y13547619D01*
X-15445472Y13500000D01*
X-15397853Y13452380D01*
X-14445472Y12547619D02*
X-15016900Y12547619D01*
X-14731186Y12547619D02*
X-14731186Y13547619D01*
X-14826424Y13404761D01*
X-14921662Y13309523D01*
X-15016900Y13261904D01*
X-14112138Y13547619D02*
X-13445472Y13547619D01*
X-13874043Y12547619D01*
G04 #@! TO.C,D1*
X24252380Y1121904D02*
X23252380Y1121904D01*
X23252380Y1360000D01*
X23300000Y1502857D01*
X23395238Y1598095D01*
X23490476Y1645714D01*
X23680952Y1693333D01*
X23823809Y1693333D01*
X24014285Y1645714D01*
X24109523Y1598095D01*
X24204761Y1502857D01*
X24252380Y1360000D01*
X24252380Y1121904D01*
X24252380Y2645714D02*
X24252380Y2074285D01*
X24252380Y2360000D02*
X23252380Y2360000D01*
X23395238Y2264761D01*
X23490476Y2169523D01*
X23538095Y2074285D01*
G04 #@! TO.C,D4*
X6802380Y32281904D02*
X5802380Y32281904D01*
X5802380Y32520000D01*
X5850000Y32662857D01*
X5945238Y32758095D01*
X6040476Y32805714D01*
X6230952Y32853333D01*
X6373809Y32853333D01*
X6564285Y32805714D01*
X6659523Y32758095D01*
X6754761Y32662857D01*
X6802380Y32520000D01*
X6802380Y32281904D01*
X6135714Y33710476D02*
X6802380Y33710476D01*
X5754761Y33472380D02*
X6469047Y33234285D01*
X6469047Y33853333D01*
G04 #@! TO.C,D5*
X-19468095Y-3392380D02*
X-19468095Y-2392380D01*
X-19230000Y-2392380D01*
X-19087142Y-2440000D01*
X-18991904Y-2535238D01*
X-18944285Y-2630476D01*
X-18896666Y-2820952D01*
X-18896666Y-2963809D01*
X-18944285Y-3154285D01*
X-18991904Y-3249523D01*
X-19087142Y-3344761D01*
X-19230000Y-3392380D01*
X-19468095Y-3392380D01*
X-17991904Y-2392380D02*
X-18468095Y-2392380D01*
X-18515714Y-2868571D01*
X-18468095Y-2820952D01*
X-18372857Y-2773333D01*
X-18134761Y-2773333D01*
X-18039523Y-2820952D01*
X-17991904Y-2868571D01*
X-17944285Y-2963809D01*
X-17944285Y-3201904D01*
X-17991904Y-3297142D01*
X-18039523Y-3344761D01*
X-18134761Y-3392380D01*
X-18372857Y-3392380D01*
X-18468095Y-3344761D01*
X-18515714Y-3297142D01*
G04 #@! TO.C,D6*
X-26798237Y14376996D02*
X-26798237Y15376996D01*
X-26560142Y15376996D01*
X-26417284Y15329377D01*
X-26322046Y15234138D01*
X-26274427Y15138900D01*
X-26226808Y14948424D01*
X-26226808Y14805567D01*
X-26274427Y14615091D01*
X-26322046Y14519853D01*
X-26417284Y14424615D01*
X-26560142Y14376996D01*
X-26798237Y14376996D01*
X-25369665Y15376996D02*
X-25560142Y15376996D01*
X-25655380Y15329377D01*
X-25702999Y15281757D01*
X-25798237Y15138900D01*
X-25845856Y14948424D01*
X-25845856Y14567472D01*
X-25798237Y14472234D01*
X-25750618Y14424615D01*
X-25655380Y14376996D01*
X-25464903Y14376996D01*
X-25369665Y14424615D01*
X-25322046Y14472234D01*
X-25274427Y14567472D01*
X-25274427Y14805567D01*
X-25322046Y14900805D01*
X-25369665Y14948424D01*
X-25464903Y14996043D01*
X-25655380Y14996043D01*
X-25750618Y14948424D01*
X-25798237Y14900805D01*
X-25845856Y14805567D01*
G04 #@! TO.C,J1*
X-26393475Y-2403003D02*
X-26393475Y-3117289D01*
X-26441094Y-3260146D01*
X-26536332Y-3355384D01*
X-26679189Y-3403003D01*
X-26774427Y-3403003D01*
X-25393475Y-3403003D02*
X-25964903Y-3403003D01*
X-25679189Y-3403003D02*
X-25679189Y-2403003D01*
X-25774427Y-2545861D01*
X-25869665Y-2641099D01*
X-25964903Y-2688718D01*
G04 #@! TO.C,J4*
X5627619Y38673333D02*
X4913333Y38673333D01*
X4770476Y38720952D01*
X4675238Y38816190D01*
X4627619Y38959047D01*
X4627619Y39054285D01*
X5294285Y37768571D02*
X4627619Y37768571D01*
X5675238Y38006666D02*
X4960952Y38244761D01*
X4960952Y37625714D01*
G04 #@! TO.C,L1*
X-24166666Y-24992380D02*
X-24642857Y-24992380D01*
X-24642857Y-23992380D01*
X-23309523Y-24992380D02*
X-23880952Y-24992380D01*
X-23595238Y-24992380D02*
X-23595238Y-23992380D01*
X-23690476Y-24135238D01*
X-23785714Y-24230476D01*
X-23880952Y-24278095D01*
G04 #@! TO.C,R1*
X-14706666Y3547619D02*
X-15040000Y4023809D01*
X-15278095Y3547619D02*
X-15278095Y4547619D01*
X-14897142Y4547619D01*
X-14801904Y4500000D01*
X-14754285Y4452380D01*
X-14706666Y4357142D01*
X-14706666Y4214285D01*
X-14754285Y4119047D01*
X-14801904Y4071428D01*
X-14897142Y4023809D01*
X-15278095Y4023809D01*
X-13754285Y3547619D02*
X-14325714Y3547619D01*
X-14040000Y3547619D02*
X-14040000Y4547619D01*
X-14135238Y4404761D01*
X-14230476Y4309523D01*
X-14325714Y4261904D01*
G04 #@! TO.C,R2*
X-14706666Y5047619D02*
X-15040000Y5523809D01*
X-15278095Y5047619D02*
X-15278095Y6047619D01*
X-14897142Y6047619D01*
X-14801904Y6000000D01*
X-14754285Y5952380D01*
X-14706666Y5857142D01*
X-14706666Y5714285D01*
X-14754285Y5619047D01*
X-14801904Y5571428D01*
X-14897142Y5523809D01*
X-15278095Y5523809D01*
X-14325714Y5952380D02*
X-14278095Y6000000D01*
X-14182857Y6047619D01*
X-13944761Y6047619D01*
X-13849523Y6000000D01*
X-13801904Y5952380D01*
X-13754285Y5857142D01*
X-13754285Y5761904D01*
X-13801904Y5619047D01*
X-14373333Y5047619D01*
X-13754285Y5047619D01*
G04 #@! TO.C,R3*
X-14666666Y-952380D02*
X-15000000Y-476190D01*
X-15238095Y-952380D02*
X-15238095Y47619D01*
X-14857142Y47619D01*
X-14761904Y0D01*
X-14714285Y-47619D01*
X-14666666Y-142857D01*
X-14666666Y-285714D01*
X-14714285Y-380952D01*
X-14761904Y-428571D01*
X-14857142Y-476190D01*
X-15238095Y-476190D01*
X-14333333Y47619D02*
X-13714285Y47619D01*
X-14047619Y-333333D01*
X-13904761Y-333333D01*
X-13809523Y-380952D01*
X-13761904Y-428571D01*
X-13714285Y-523809D01*
X-13714285Y-761904D01*
X-13761904Y-857142D01*
X-13809523Y-904761D01*
X-13904761Y-952380D01*
X-14190476Y-952380D01*
X-14285714Y-904761D01*
X-14333333Y-857142D01*
G04 #@! TO.C,R6*
X3452380Y27113191D02*
X2976190Y26779858D01*
X3452380Y26541762D02*
X2452380Y26541762D01*
X2452380Y26922715D01*
X2500000Y27017953D01*
X2547619Y27065572D01*
X2642857Y27113191D01*
X2785714Y27113191D01*
X2880952Y27065572D01*
X2928571Y27017953D01*
X2976190Y26922715D01*
X2976190Y26541762D01*
X2452380Y27970334D02*
X2452380Y27779858D01*
X2500000Y27684619D01*
X2547619Y27637000D01*
X2690476Y27541762D01*
X2880952Y27494143D01*
X3261904Y27494143D01*
X3357142Y27541762D01*
X3404761Y27589381D01*
X3452380Y27684619D01*
X3452380Y27875096D01*
X3404761Y27970334D01*
X3357142Y28017953D01*
X3261904Y28065572D01*
X3023809Y28065572D01*
X2928571Y28017953D01*
X2880952Y27970334D01*
X2833333Y27875096D01*
X2833333Y27684619D01*
X2880952Y27589381D01*
X2928571Y27541762D01*
X3023809Y27494143D01*
G04 #@! TO.C,R7*
X6452380Y27113191D02*
X5976190Y26779858D01*
X6452380Y26541762D02*
X5452380Y26541762D01*
X5452380Y26922715D01*
X5500000Y27017953D01*
X5547619Y27065572D01*
X5642857Y27113191D01*
X5785714Y27113191D01*
X5880952Y27065572D01*
X5928571Y27017953D01*
X5976190Y26922715D01*
X5976190Y26541762D01*
X5452380Y27446524D02*
X5452380Y28113191D01*
X6452380Y27684619D01*
G04 #@! TO.C,R10*
X-5872761Y-34093480D02*
X-6348951Y-34426813D01*
X-5872761Y-34664908D02*
X-6872761Y-34664908D01*
X-6872761Y-34283956D01*
X-6825142Y-34188718D01*
X-6777522Y-34141099D01*
X-6682284Y-34093480D01*
X-6539427Y-34093480D01*
X-6444189Y-34141099D01*
X-6396570Y-34188718D01*
X-6348951Y-34283956D01*
X-6348951Y-34664908D01*
X-5872761Y-33141099D02*
X-5872761Y-33712527D01*
X-5872761Y-33426813D02*
X-6872761Y-33426813D01*
X-6729903Y-33522051D01*
X-6634665Y-33617289D01*
X-6587046Y-33712527D01*
X-6872761Y-32522051D02*
X-6872761Y-32426813D01*
X-6825142Y-32331575D01*
X-6777522Y-32283956D01*
X-6682284Y-32236337D01*
X-6491808Y-32188718D01*
X-6253713Y-32188718D01*
X-6063237Y-32236337D01*
X-5967999Y-32283956D01*
X-5920380Y-32331575D01*
X-5872761Y-32426813D01*
X-5872761Y-32522051D01*
X-5920380Y-32617289D01*
X-5967999Y-32664908D01*
X-6063237Y-32712527D01*
X-6253713Y-32760146D01*
X-6491808Y-32760146D01*
X-6682284Y-32712527D01*
X-6777522Y-32664908D01*
X-6825142Y-32617289D01*
X-6872761Y-32522051D01*
G04 #@! TO.C,R11*
X-3332761Y-34093480D02*
X-3808951Y-34426813D01*
X-3332761Y-34664908D02*
X-4332761Y-34664908D01*
X-4332761Y-34283956D01*
X-4285142Y-34188718D01*
X-4237522Y-34141099D01*
X-4142284Y-34093480D01*
X-3999427Y-34093480D01*
X-3904189Y-34141099D01*
X-3856570Y-34188718D01*
X-3808951Y-34283956D01*
X-3808951Y-34664908D01*
X-3332761Y-33141099D02*
X-3332761Y-33712527D01*
X-3332761Y-33426813D02*
X-4332761Y-33426813D01*
X-4189903Y-33522051D01*
X-4094665Y-33617289D01*
X-4047046Y-33712527D01*
X-3332761Y-32188718D02*
X-3332761Y-32760146D01*
X-3332761Y-32474432D02*
X-4332761Y-32474432D01*
X-4189903Y-32569670D01*
X-4094665Y-32664908D01*
X-4047046Y-32760146D01*
G04 #@! TO.C,R12*
X-792761Y-34093480D02*
X-1268951Y-34426813D01*
X-792761Y-34664908D02*
X-1792761Y-34664908D01*
X-1792761Y-34283956D01*
X-1745142Y-34188718D01*
X-1697522Y-34141099D01*
X-1602284Y-34093480D01*
X-1459427Y-34093480D01*
X-1364189Y-34141099D01*
X-1316570Y-34188718D01*
X-1268951Y-34283956D01*
X-1268951Y-34664908D01*
X-792761Y-33141099D02*
X-792761Y-33712527D01*
X-792761Y-33426813D02*
X-1792761Y-33426813D01*
X-1649903Y-33522051D01*
X-1554665Y-33617289D01*
X-1507046Y-33712527D01*
X-1697522Y-32760146D02*
X-1745142Y-32712527D01*
X-1792761Y-32617289D01*
X-1792761Y-32379194D01*
X-1745142Y-32283956D01*
X-1697522Y-32236337D01*
X-1602284Y-32188718D01*
X-1507046Y-32188718D01*
X-1364189Y-32236337D01*
X-792761Y-32807765D01*
X-792761Y-32188718D01*
G04 #@! TO.C,R13*
X-4602761Y-34093480D02*
X-5078951Y-34426813D01*
X-4602761Y-34664908D02*
X-5602761Y-34664908D01*
X-5602761Y-34283956D01*
X-5555142Y-34188718D01*
X-5507522Y-34141099D01*
X-5412284Y-34093480D01*
X-5269427Y-34093480D01*
X-5174189Y-34141099D01*
X-5126570Y-34188718D01*
X-5078951Y-34283956D01*
X-5078951Y-34664908D01*
X-4602761Y-33141099D02*
X-4602761Y-33712527D01*
X-4602761Y-33426813D02*
X-5602761Y-33426813D01*
X-5459903Y-33522051D01*
X-5364665Y-33617289D01*
X-5317046Y-33712527D01*
X-5602761Y-32807765D02*
X-5602761Y-32188718D01*
X-5221808Y-32522051D01*
X-5221808Y-32379194D01*
X-5174189Y-32283956D01*
X-5126570Y-32236337D01*
X-5031332Y-32188718D01*
X-4793237Y-32188718D01*
X-4697999Y-32236337D01*
X-4650380Y-32283956D01*
X-4602761Y-32379194D01*
X-4602761Y-32664908D01*
X-4650380Y-32760146D01*
X-4697999Y-32807765D01*
G04 #@! TO.C,R14*
X-2062761Y-34093480D02*
X-2538951Y-34426813D01*
X-2062761Y-34664908D02*
X-3062761Y-34664908D01*
X-3062761Y-34283956D01*
X-3015142Y-34188718D01*
X-2967522Y-34141099D01*
X-2872284Y-34093480D01*
X-2729427Y-34093480D01*
X-2634189Y-34141099D01*
X-2586570Y-34188718D01*
X-2538951Y-34283956D01*
X-2538951Y-34664908D01*
X-2062761Y-33141099D02*
X-2062761Y-33712527D01*
X-2062761Y-33426813D02*
X-3062761Y-33426813D01*
X-2919903Y-33522051D01*
X-2824665Y-33617289D01*
X-2777046Y-33712527D01*
X-2729427Y-32283956D02*
X-2062761Y-32283956D01*
X-3110380Y-32522051D02*
X-2396094Y-32760146D01*
X-2396094Y-32141099D01*
G04 #@! TO.C,R15*
X477238Y-34093480D02*
X1048Y-34426813D01*
X477238Y-34664908D02*
X-522761Y-34664908D01*
X-522761Y-34283956D01*
X-475142Y-34188718D01*
X-427522Y-34141099D01*
X-332284Y-34093480D01*
X-189427Y-34093480D01*
X-94189Y-34141099D01*
X-46570Y-34188718D01*
X1048Y-34283956D01*
X1048Y-34664908D01*
X477238Y-33141099D02*
X477238Y-33712527D01*
X477238Y-33426813D02*
X-522761Y-33426813D01*
X-379903Y-33522051D01*
X-284665Y-33617289D01*
X-237046Y-33712527D01*
X-522761Y-32236337D02*
X-522761Y-32712527D01*
X-46570Y-32760146D01*
X-94189Y-32712527D01*
X-141808Y-32617289D01*
X-141808Y-32379194D01*
X-94189Y-32283956D01*
X-46570Y-32236337D01*
X48667Y-32188718D01*
X286762Y-32188718D01*
X382000Y-32236337D01*
X429619Y-32283956D01*
X477238Y-32379194D01*
X477238Y-32617289D01*
X429619Y-32712527D01*
X382000Y-32760146D01*
G04 #@! TO.C,R16*
X12857142Y15547619D02*
X12523809Y16023809D01*
X12285714Y15547619D02*
X12285714Y16547619D01*
X12666666Y16547619D01*
X12761904Y16500000D01*
X12809523Y16452380D01*
X12857142Y16357142D01*
X12857142Y16214285D01*
X12809523Y16119047D01*
X12761904Y16071428D01*
X12666666Y16023809D01*
X12285714Y16023809D01*
X13809523Y15547619D02*
X13238095Y15547619D01*
X13523809Y15547619D02*
X13523809Y16547619D01*
X13428571Y16404761D01*
X13333333Y16309523D01*
X13238095Y16261904D01*
X14666666Y16547619D02*
X14476190Y16547619D01*
X14380952Y16500000D01*
X14333333Y16452380D01*
X14238095Y16309523D01*
X14190476Y16119047D01*
X14190476Y15738095D01*
X14238095Y15642857D01*
X14285714Y15595238D01*
X14380952Y15547619D01*
X14571428Y15547619D01*
X14666666Y15595238D01*
X14714285Y15642857D01*
X14761904Y15738095D01*
X14761904Y15976190D01*
X14714285Y16071428D01*
X14666666Y16119047D01*
X14571428Y16166666D01*
X14380952Y16166666D01*
X14285714Y16119047D01*
X14238095Y16071428D01*
X14190476Y15976190D01*
G04 #@! TO.C,R18*
X-19047619Y-18642857D02*
X-19523809Y-18976190D01*
X-19047619Y-19214285D02*
X-20047619Y-19214285D01*
X-20047619Y-18833333D01*
X-20000000Y-18738095D01*
X-19952380Y-18690476D01*
X-19857142Y-18642857D01*
X-19714285Y-18642857D01*
X-19619047Y-18690476D01*
X-19571428Y-18738095D01*
X-19523809Y-18833333D01*
X-19523809Y-19214285D01*
X-19047619Y-17690476D02*
X-19047619Y-18261904D01*
X-19047619Y-17976190D02*
X-20047619Y-17976190D01*
X-19904761Y-18071428D01*
X-19809523Y-18166666D01*
X-19761904Y-18261904D01*
X-19619047Y-17119047D02*
X-19666666Y-17214285D01*
X-19714285Y-17261904D01*
X-19809523Y-17309523D01*
X-19857142Y-17309523D01*
X-19952380Y-17261904D01*
X-20000000Y-17214285D01*
X-20047619Y-17119047D01*
X-20047619Y-16928571D01*
X-20000000Y-16833333D01*
X-19952380Y-16785714D01*
X-19857142Y-16738095D01*
X-19809523Y-16738095D01*
X-19714285Y-16785714D01*
X-19666666Y-16833333D01*
X-19619047Y-16928571D01*
X-19619047Y-17119047D01*
X-19571428Y-17214285D01*
X-19523809Y-17261904D01*
X-19428571Y-17309523D01*
X-19238095Y-17309523D01*
X-19142857Y-17261904D01*
X-19095238Y-17214285D01*
X-19047619Y-17119047D01*
X-19047619Y-16928571D01*
X-19095238Y-16833333D01*
X-19142857Y-16785714D01*
X-19238095Y-16738095D01*
X-19428571Y-16738095D01*
X-19523809Y-16785714D01*
X-19571428Y-16833333D01*
X-19619047Y-16928571D01*
G04 #@! TO.C,R19*
X-18642857Y-25952380D02*
X-18976190Y-25476190D01*
X-19214285Y-25952380D02*
X-19214285Y-24952380D01*
X-18833333Y-24952380D01*
X-18738095Y-25000000D01*
X-18690476Y-25047619D01*
X-18642857Y-25142857D01*
X-18642857Y-25285714D01*
X-18690476Y-25380952D01*
X-18738095Y-25428571D01*
X-18833333Y-25476190D01*
X-19214285Y-25476190D01*
X-17690476Y-25952380D02*
X-18261904Y-25952380D01*
X-17976190Y-25952380D02*
X-17976190Y-24952380D01*
X-18071428Y-25095238D01*
X-18166666Y-25190476D01*
X-18261904Y-25238095D01*
X-17214285Y-25952380D02*
X-17023809Y-25952380D01*
X-16928571Y-25904761D01*
X-16880952Y-25857142D01*
X-16785714Y-25714285D01*
X-16738095Y-25523809D01*
X-16738095Y-25142857D01*
X-16785714Y-25047619D01*
X-16833333Y-25000000D01*
X-16928571Y-24952380D01*
X-17119047Y-24952380D01*
X-17214285Y-25000000D01*
X-17261904Y-25047619D01*
X-17309523Y-25142857D01*
X-17309523Y-25380952D01*
X-17261904Y-25476190D01*
X-17214285Y-25523809D01*
X-17119047Y-25571428D01*
X-16928571Y-25571428D01*
X-16833333Y-25523809D01*
X-16785714Y-25476190D01*
X-16738095Y-25380952D01*
G04 #@! TO.C,R20*
X21257142Y1747619D02*
X20923809Y2223809D01*
X20685714Y1747619D02*
X20685714Y2747619D01*
X21066666Y2747619D01*
X21161904Y2700000D01*
X21209523Y2652380D01*
X21257142Y2557142D01*
X21257142Y2414285D01*
X21209523Y2319047D01*
X21161904Y2271428D01*
X21066666Y2223809D01*
X20685714Y2223809D01*
X21638095Y2652380D02*
X21685714Y2700000D01*
X21780952Y2747619D01*
X22019047Y2747619D01*
X22114285Y2700000D01*
X22161904Y2652380D01*
X22209523Y2557142D01*
X22209523Y2461904D01*
X22161904Y2319047D01*
X21590476Y1747619D01*
X22209523Y1747619D01*
X22828571Y2747619D02*
X22923809Y2747619D01*
X23019047Y2700000D01*
X23066666Y2652380D01*
X23114285Y2557142D01*
X23161904Y2366666D01*
X23161904Y2128571D01*
X23114285Y1938095D01*
X23066666Y1842857D01*
X23019047Y1795238D01*
X22923809Y1747619D01*
X22828571Y1747619D01*
X22733333Y1795238D01*
X22685714Y1842857D01*
X22638095Y1938095D01*
X22590476Y2128571D01*
X22590476Y2366666D01*
X22638095Y2557142D01*
X22685714Y2652380D01*
X22733333Y2700000D01*
X22828571Y2747619D01*
G04 #@! TO.C,R21*
X-3347619Y17357142D02*
X-3823809Y17023809D01*
X-3347619Y16785714D02*
X-4347619Y16785714D01*
X-4347619Y17166666D01*
X-4300000Y17261904D01*
X-4252380Y17309523D01*
X-4157142Y17357142D01*
X-4014285Y17357142D01*
X-3919047Y17309523D01*
X-3871428Y17261904D01*
X-3823809Y17166666D01*
X-3823809Y16785714D01*
X-4252380Y17738095D02*
X-4300000Y17785714D01*
X-4347619Y17880952D01*
X-4347619Y18119047D01*
X-4300000Y18214285D01*
X-4252380Y18261904D01*
X-4157142Y18309523D01*
X-4061904Y18309523D01*
X-3919047Y18261904D01*
X-3347619Y17690476D01*
X-3347619Y18309523D01*
X-3347619Y19261904D02*
X-3347619Y18690476D01*
X-3347619Y18976190D02*
X-4347619Y18976190D01*
X-4204761Y18880952D01*
X-4109523Y18785714D01*
X-4061904Y18690476D01*
G04 #@! TO.C,R22*
X-4847619Y17357142D02*
X-5323809Y17023809D01*
X-4847619Y16785714D02*
X-5847619Y16785714D01*
X-5847619Y17166666D01*
X-5800000Y17261904D01*
X-5752380Y17309523D01*
X-5657142Y17357142D01*
X-5514285Y17357142D01*
X-5419047Y17309523D01*
X-5371428Y17261904D01*
X-5323809Y17166666D01*
X-5323809Y16785714D01*
X-5752380Y17738095D02*
X-5800000Y17785714D01*
X-5847619Y17880952D01*
X-5847619Y18119047D01*
X-5800000Y18214285D01*
X-5752380Y18261904D01*
X-5657142Y18309523D01*
X-5561904Y18309523D01*
X-5419047Y18261904D01*
X-4847619Y17690476D01*
X-4847619Y18309523D01*
X-5752380Y18690476D02*
X-5800000Y18738095D01*
X-5847619Y18833333D01*
X-5847619Y19071428D01*
X-5800000Y19166666D01*
X-5752380Y19214285D01*
X-5657142Y19261904D01*
X-5561904Y19261904D01*
X-5419047Y19214285D01*
X-4847619Y18642857D01*
X-4847619Y19261904D01*
G04 #@! TO.C,R23*
X12857142Y12547619D02*
X12523809Y13023809D01*
X12285714Y12547619D02*
X12285714Y13547619D01*
X12666666Y13547619D01*
X12761904Y13500000D01*
X12809523Y13452380D01*
X12857142Y13357142D01*
X12857142Y13214285D01*
X12809523Y13119047D01*
X12761904Y13071428D01*
X12666666Y13023809D01*
X12285714Y13023809D01*
X13238095Y13452380D02*
X13285714Y13500000D01*
X13380952Y13547619D01*
X13619047Y13547619D01*
X13714285Y13500000D01*
X13761904Y13452380D01*
X13809523Y13357142D01*
X13809523Y13261904D01*
X13761904Y13119047D01*
X13190476Y12547619D01*
X13809523Y12547619D01*
X14142857Y13547619D02*
X14761904Y13547619D01*
X14428571Y13166666D01*
X14571428Y13166666D01*
X14666666Y13119047D01*
X14714285Y13071428D01*
X14761904Y12976190D01*
X14761904Y12738095D01*
X14714285Y12642857D01*
X14666666Y12595238D01*
X14571428Y12547619D01*
X14285714Y12547619D01*
X14190476Y12595238D01*
X14142857Y12642857D01*
G04 #@! TO.C,R24*
X9367238Y-33308480D02*
X8891048Y-33641813D01*
X9367238Y-33879908D02*
X8367238Y-33879908D01*
X8367238Y-33498956D01*
X8414858Y-33403718D01*
X8462477Y-33356099D01*
X8557715Y-33308480D01*
X8700572Y-33308480D01*
X8795810Y-33356099D01*
X8843429Y-33403718D01*
X8891048Y-33498956D01*
X8891048Y-33879908D01*
X8462477Y-32927527D02*
X8414858Y-32879908D01*
X8367238Y-32784670D01*
X8367238Y-32546575D01*
X8414858Y-32451337D01*
X8462477Y-32403718D01*
X8557715Y-32356099D01*
X8652953Y-32356099D01*
X8795810Y-32403718D01*
X9367238Y-32975146D01*
X9367238Y-32356099D01*
X8700572Y-31498956D02*
X9367238Y-31498956D01*
X8319619Y-31737051D02*
X9033905Y-31975146D01*
X9033905Y-31356099D01*
G04 #@! TO.C,R25*
X8097238Y-33308480D02*
X7621048Y-33641813D01*
X8097238Y-33879908D02*
X7097238Y-33879908D01*
X7097238Y-33498956D01*
X7144858Y-33403718D01*
X7192477Y-33356099D01*
X7287715Y-33308480D01*
X7430572Y-33308480D01*
X7525810Y-33356099D01*
X7573429Y-33403718D01*
X7621048Y-33498956D01*
X7621048Y-33879908D01*
X7192477Y-32927527D02*
X7144858Y-32879908D01*
X7097238Y-32784670D01*
X7097238Y-32546575D01*
X7144858Y-32451337D01*
X7192477Y-32403718D01*
X7287715Y-32356099D01*
X7382953Y-32356099D01*
X7525810Y-32403718D01*
X8097238Y-32975146D01*
X8097238Y-32356099D01*
X7097238Y-31451337D02*
X7097238Y-31927527D01*
X7573429Y-31975146D01*
X7525810Y-31927527D01*
X7478191Y-31832289D01*
X7478191Y-31594194D01*
X7525810Y-31498956D01*
X7573429Y-31451337D01*
X7668667Y-31403718D01*
X7906762Y-31403718D01*
X8002000Y-31451337D01*
X8049619Y-31498956D01*
X8097238Y-31594194D01*
X8097238Y-31832289D01*
X8049619Y-31927527D01*
X8002000Y-31975146D01*
G04 #@! TO.C,SW1*
D17*
X-17812800Y-8246742D02*
X-17725714Y-8275771D01*
X-17580571Y-8275771D01*
X-17522514Y-8246742D01*
X-17493485Y-8217714D01*
X-17464457Y-8159657D01*
X-17464457Y-8101600D01*
X-17493485Y-8043542D01*
X-17522514Y-8014514D01*
X-17580571Y-7985485D01*
X-17696685Y-7956457D01*
X-17754742Y-7927428D01*
X-17783771Y-7898400D01*
X-17812800Y-7840342D01*
X-17812800Y-7782285D01*
X-17783771Y-7724228D01*
X-17754742Y-7695200D01*
X-17696685Y-7666171D01*
X-17551542Y-7666171D01*
X-17464457Y-7695200D01*
X-17261257Y-7666171D02*
X-17116114Y-8275771D01*
X-17000000Y-7840342D01*
X-16883885Y-8275771D01*
X-16738742Y-7666171D01*
X-16187200Y-8275771D02*
X-16535542Y-8275771D01*
X-16361371Y-8275771D02*
X-16361371Y-7666171D01*
X-16419428Y-7753257D01*
X-16477485Y-7811314D01*
X-16535542Y-7840342D01*
G04 #@! TO.C,SW3*
X26746742Y-32832800D02*
X26775771Y-32745714D01*
X26775771Y-32600571D01*
X26746742Y-32542514D01*
X26717714Y-32513485D01*
X26659657Y-32484457D01*
X26601600Y-32484457D01*
X26543542Y-32513485D01*
X26514514Y-32542514D01*
X26485485Y-32600571D01*
X26456457Y-32716685D01*
X26427428Y-32774742D01*
X26398400Y-32803771D01*
X26340342Y-32832800D01*
X26282285Y-32832800D01*
X26224228Y-32803771D01*
X26195200Y-32774742D01*
X26166171Y-32716685D01*
X26166171Y-32571542D01*
X26195200Y-32484457D01*
X26166171Y-32281257D02*
X26775771Y-32136114D01*
X26340342Y-32020000D01*
X26775771Y-31903885D01*
X26166171Y-31758742D01*
X26166171Y-31584571D02*
X26166171Y-31207200D01*
X26398400Y-31410400D01*
X26398400Y-31323314D01*
X26427428Y-31265257D01*
X26456457Y-31236228D01*
X26514514Y-31207200D01*
X26659657Y-31207200D01*
X26717714Y-31236228D01*
X26746742Y-31265257D01*
X26775771Y-31323314D01*
X26775771Y-31497485D01*
X26746742Y-31555542D01*
X26717714Y-31584571D01*
G04 #@! TO.C,TP5*
D11*
X-11261904Y-7952380D02*
X-10690476Y-7952380D01*
X-10976190Y-8952380D02*
X-10976190Y-7952380D01*
X-10357142Y-8952380D02*
X-10357142Y-7952380D01*
X-9976190Y-7952380D01*
X-9880952Y-8000000D01*
X-9833333Y-8047619D01*
X-9785714Y-8142857D01*
X-9785714Y-8285714D01*
X-9833333Y-8380952D01*
X-9880952Y-8428571D01*
X-9976190Y-8476190D01*
X-10357142Y-8476190D01*
X-8880952Y-7952380D02*
X-9357142Y-7952380D01*
X-9404761Y-8428571D01*
X-9357142Y-8380952D01*
X-9261904Y-8333333D01*
X-9023809Y-8333333D01*
X-8928571Y-8380952D01*
X-8880952Y-8428571D01*
X-8833333Y-8523809D01*
X-8833333Y-8761904D01*
X-8880952Y-8857142D01*
X-8928571Y-8904761D01*
X-9023809Y-8952380D01*
X-9261904Y-8952380D01*
X-9357142Y-8904761D01*
X-9404761Y-8857142D01*
G04 #@! TO.C,TP6*
X-21761904Y-14452380D02*
X-21190476Y-14452380D01*
X-21476190Y-15452380D02*
X-21476190Y-14452380D01*
X-20857142Y-15452380D02*
X-20857142Y-14452380D01*
X-20476190Y-14452380D01*
X-20380952Y-14500000D01*
X-20333333Y-14547619D01*
X-20285714Y-14642857D01*
X-20285714Y-14785714D01*
X-20333333Y-14880952D01*
X-20380952Y-14928571D01*
X-20476190Y-14976190D01*
X-20857142Y-14976190D01*
X-19428571Y-14452380D02*
X-19619047Y-14452380D01*
X-19714285Y-14500000D01*
X-19761904Y-14547619D01*
X-19857142Y-14690476D01*
X-19904761Y-14880952D01*
X-19904761Y-15261904D01*
X-19857142Y-15357142D01*
X-19809523Y-15404761D01*
X-19714285Y-15452380D01*
X-19523809Y-15452380D01*
X-19428571Y-15404761D01*
X-19380952Y-15357142D01*
X-19333333Y-15261904D01*
X-19333333Y-15023809D01*
X-19380952Y-14928571D01*
X-19428571Y-14880952D01*
X-19523809Y-14833333D01*
X-19714285Y-14833333D01*
X-19809523Y-14880952D01*
X-19857142Y-14928571D01*
X-19904761Y-15023809D01*
G04 #@! TO.C,TP7*
X-21761904Y-30492380D02*
X-21190476Y-30492380D01*
X-21476190Y-31492380D02*
X-21476190Y-30492380D01*
X-20857142Y-31492380D02*
X-20857142Y-30492380D01*
X-20476190Y-30492380D01*
X-20380952Y-30540000D01*
X-20333333Y-30587619D01*
X-20285714Y-30682857D01*
X-20285714Y-30825714D01*
X-20333333Y-30920952D01*
X-20380952Y-30968571D01*
X-20476190Y-31016190D01*
X-20857142Y-31016190D01*
X-19952380Y-30492380D02*
X-19285714Y-30492380D01*
X-19714285Y-31492380D01*
G04 #@! TO.C,U1*
X2062238Y5177472D02*
X2871762Y5177472D01*
X2967000Y5225091D01*
X3014619Y5272710D01*
X3062238Y5367948D01*
X3062238Y5558424D01*
X3014619Y5653662D01*
X2967000Y5701281D01*
X2871762Y5748900D01*
X2062238Y5748900D01*
X3062238Y6748900D02*
X3062238Y6177472D01*
X3062238Y6463186D02*
X2062238Y6463186D01*
X2205096Y6367948D01*
X2300334Y6272710D01*
X2347953Y6177472D01*
X8693238Y14930977D02*
X8931334Y14930977D01*
X8836096Y14692881D02*
X8931334Y14930977D01*
X8836096Y15169072D01*
X9121810Y14788119D02*
X8931334Y14930977D01*
X9121810Y15073834D01*
G04 #@! TO.C,U2*
D17*
X246171Y22444919D02*
X739657Y22444919D01*
X797714Y22473948D01*
X826742Y22502977D01*
X855771Y22561034D01*
X855771Y22677148D01*
X826742Y22735205D01*
X797714Y22764234D01*
X739657Y22793262D01*
X246171Y22793262D01*
X304228Y23054519D02*
X275200Y23083548D01*
X246171Y23141605D01*
X246171Y23286748D01*
X275200Y23344805D01*
X304228Y23373834D01*
X362285Y23402862D01*
X420342Y23402862D01*
X507428Y23373834D01*
X855771Y23025491D01*
X855771Y23402862D01*
G04 #@! TO.C,Y1*
D11*
X-15016190Y8753809D02*
X-15016190Y8277619D01*
X-15349523Y9277619D02*
X-15016190Y8753809D01*
X-14682857Y9277619D01*
X-13825714Y8277619D02*
X-14397142Y8277619D01*
X-14111428Y8277619D02*
X-14111428Y9277619D01*
X-14206666Y9134761D01*
X-14301904Y9039523D01*
X-14397142Y8991904D01*
G04 #@! TO.C,TP1*
X-17547619Y238095D02*
X-17547619Y809523D01*
X-16547619Y523809D02*
X-17547619Y523809D01*
X-16547619Y1142857D02*
X-17547619Y1142857D01*
X-17547619Y1523809D01*
X-17500000Y1619047D01*
X-17452380Y1666666D01*
X-17357142Y1714285D01*
X-17214285Y1714285D01*
X-17119047Y1666666D01*
X-17071428Y1619047D01*
X-17023809Y1523809D01*
X-17023809Y1142857D01*
X-16547619Y2666666D02*
X-16547619Y2095238D01*
X-16547619Y2380952D02*
X-17547619Y2380952D01*
X-17404761Y2285714D01*
X-17309523Y2190476D01*
X-17261904Y2095238D01*
G04 #@! TO.C,TP2*
X-10761904Y-2952380D02*
X-10190476Y-2952380D01*
X-10476190Y-3952380D02*
X-10476190Y-2952380D01*
X-9857142Y-3952380D02*
X-9857142Y-2952380D01*
X-9476190Y-2952380D01*
X-9380952Y-3000000D01*
X-9333333Y-3047619D01*
X-9285714Y-3142857D01*
X-9285714Y-3285714D01*
X-9333333Y-3380952D01*
X-9380952Y-3428571D01*
X-9476190Y-3476190D01*
X-9857142Y-3476190D01*
X-8904761Y-3047619D02*
X-8857142Y-3000000D01*
X-8761904Y-2952380D01*
X-8523809Y-2952380D01*
X-8428571Y-3000000D01*
X-8380952Y-3047619D01*
X-8333333Y-3142857D01*
X-8333333Y-3238095D01*
X-8380952Y-3380952D01*
X-8952380Y-3952380D01*
X-8333333Y-3952380D01*
G04 #@! TO.C,TP3*
X-8761904Y4047619D02*
X-8190476Y4047619D01*
X-8476190Y3047619D02*
X-8476190Y4047619D01*
X-7857142Y3047619D02*
X-7857142Y4047619D01*
X-7476190Y4047619D01*
X-7380952Y4000000D01*
X-7333333Y3952380D01*
X-7285714Y3857142D01*
X-7285714Y3714285D01*
X-7333333Y3619047D01*
X-7380952Y3571428D01*
X-7476190Y3523809D01*
X-7857142Y3523809D01*
X-6952380Y4047619D02*
X-6333333Y4047619D01*
X-6666666Y3666666D01*
X-6523809Y3666666D01*
X-6428571Y3619047D01*
X-6380952Y3571428D01*
X-6333333Y3476190D01*
X-6333333Y3238095D01*
X-6380952Y3142857D01*
X-6428571Y3095238D01*
X-6523809Y3047619D01*
X-6809523Y3047619D01*
X-6904761Y3095238D01*
X-6952380Y3142857D01*
G04 #@! TO.C,J5*
X-27663475Y-13623003D02*
X-27663475Y-14337289D01*
X-27711094Y-14480146D01*
X-27806332Y-14575384D01*
X-27949189Y-14623003D01*
X-28044427Y-14623003D01*
X-26711094Y-13623003D02*
X-27187284Y-13623003D01*
X-27234903Y-14099194D01*
X-27187284Y-14051575D01*
X-27092046Y-14003956D01*
X-26853951Y-14003956D01*
X-26758713Y-14051575D01*
X-26711094Y-14099194D01*
X-26663475Y-14194432D01*
X-26663475Y-14432527D01*
X-26711094Y-14527765D01*
X-26758713Y-14575384D01*
X-26853951Y-14623003D01*
X-27092046Y-14623003D01*
X-27187284Y-14575384D01*
X-27234903Y-14527765D01*
G04 #@! TO.C,C18*
X16857142Y-6142857D02*
X16904761Y-6190476D01*
X16952380Y-6333333D01*
X16952380Y-6428571D01*
X16904761Y-6571428D01*
X16809523Y-6666666D01*
X16714285Y-6714285D01*
X16523809Y-6761904D01*
X16380952Y-6761904D01*
X16190476Y-6714285D01*
X16095238Y-6666666D01*
X16000000Y-6571428D01*
X15952380Y-6428571D01*
X15952380Y-6333333D01*
X16000000Y-6190476D01*
X16047619Y-6142857D01*
X16952380Y-5190476D02*
X16952380Y-5761904D01*
X16952380Y-5476190D02*
X15952380Y-5476190D01*
X16095238Y-5571428D01*
X16190476Y-5666666D01*
X16238095Y-5761904D01*
X16380952Y-4619047D02*
X16333333Y-4714285D01*
X16285714Y-4761904D01*
X16190476Y-4809523D01*
X16142857Y-4809523D01*
X16047619Y-4761904D01*
X16000000Y-4714285D01*
X15952380Y-4619047D01*
X15952380Y-4428571D01*
X16000000Y-4333333D01*
X16047619Y-4285714D01*
X16142857Y-4238095D01*
X16190476Y-4238095D01*
X16285714Y-4285714D01*
X16333333Y-4333333D01*
X16380952Y-4428571D01*
X16380952Y-4619047D01*
X16428571Y-4714285D01*
X16476190Y-4761904D01*
X16571428Y-4809523D01*
X16761904Y-4809523D01*
X16857142Y-4761904D01*
X16904761Y-4714285D01*
X16952380Y-4619047D01*
X16952380Y-4428571D01*
X16904761Y-4333333D01*
X16857142Y-4285714D01*
X16761904Y-4238095D01*
X16571428Y-4238095D01*
X16476190Y-4285714D01*
X16428571Y-4333333D01*
X16380952Y-4428571D01*
G04 #@! TO.C,C19*
X13857142Y-6142857D02*
X13904761Y-6190476D01*
X13952380Y-6333333D01*
X13952380Y-6428571D01*
X13904761Y-6571428D01*
X13809523Y-6666666D01*
X13714285Y-6714285D01*
X13523809Y-6761904D01*
X13380952Y-6761904D01*
X13190476Y-6714285D01*
X13095238Y-6666666D01*
X13000000Y-6571428D01*
X12952380Y-6428571D01*
X12952380Y-6333333D01*
X13000000Y-6190476D01*
X13047619Y-6142857D01*
X13952380Y-5190476D02*
X13952380Y-5761904D01*
X13952380Y-5476190D02*
X12952380Y-5476190D01*
X13095238Y-5571428D01*
X13190476Y-5666666D01*
X13238095Y-5761904D01*
X13952380Y-4714285D02*
X13952380Y-4523809D01*
X13904761Y-4428571D01*
X13857142Y-4380952D01*
X13714285Y-4285714D01*
X13523809Y-4238095D01*
X13142857Y-4238095D01*
X13047619Y-4285714D01*
X13000000Y-4333333D01*
X12952380Y-4428571D01*
X12952380Y-4619047D01*
X13000000Y-4714285D01*
X13047619Y-4761904D01*
X13142857Y-4809523D01*
X13380952Y-4809523D01*
X13476190Y-4761904D01*
X13523809Y-4714285D01*
X13571428Y-4619047D01*
X13571428Y-4428571D01*
X13523809Y-4333333D01*
X13476190Y-4285714D01*
X13380952Y-4238095D01*
G04 #@! TO.C,D7*
X-19047619Y-23238095D02*
X-20047619Y-23238095D01*
X-20047619Y-23000000D01*
X-20000000Y-22857142D01*
X-19904761Y-22761904D01*
X-19809523Y-22714285D01*
X-19619047Y-22666666D01*
X-19476190Y-22666666D01*
X-19285714Y-22714285D01*
X-19190476Y-22761904D01*
X-19095238Y-22857142D01*
X-19047619Y-23000000D01*
X-19047619Y-23238095D01*
X-20047619Y-22333333D02*
X-20047619Y-21666666D01*
X-19047619Y-22095238D01*
G04 #@! TO.C,U3*
X-22761904Y-19452380D02*
X-22761904Y-20261904D01*
X-22714285Y-20357142D01*
X-22666666Y-20404761D01*
X-22571428Y-20452380D01*
X-22380952Y-20452380D01*
X-22285714Y-20404761D01*
X-22238095Y-20357142D01*
X-22190476Y-20261904D01*
X-22190476Y-19452380D01*
X-21809523Y-19452380D02*
X-21190476Y-19452380D01*
X-21523809Y-19833333D01*
X-21380952Y-19833333D01*
X-21285714Y-19880952D01*
X-21238095Y-19928571D01*
X-21190476Y-20023809D01*
X-21190476Y-20261904D01*
X-21238095Y-20357142D01*
X-21285714Y-20404761D01*
X-21380952Y-20452380D01*
X-21666666Y-20452380D01*
X-21761904Y-20404761D01*
X-21809523Y-20357142D01*
G04 #@! TD*
M02*
