G04 #@! TF.GenerationSoftware,KiCad,Pcbnew,5.0.2-bee76a0~70~ubuntu18.10.1*
G04 #@! TF.CreationDate,2019-03-19T21:34:18-05:00*
G04 #@! TF.ProjectId,camboard,63616d62-6f61-4726-942e-6b696361645f,rev?*
G04 #@! TF.SameCoordinates,Original*
G04 #@! TF.FileFunction,Soldermask,Top*
G04 #@! TF.FilePolarity,Negative*
%FSLAX46Y46*%
G04 Gerber Fmt 4.6, Leading zero omitted, Abs format (unit mm)*
G04 Created by KiCad (PCBNEW 5.0.2-bee76a0~70~ubuntu18.10.1) date Tue 19 Mar 2019 09:34:18 PM CDT*
%MOMM*%
%LPD*%
G01*
G04 APERTURE LIST*
%ADD10C,0.100000*%
G04 APERTURE END LIST*
D10*
G36*
X27899540Y-41350690D02*
X27096900Y-41350690D01*
X27096900Y-40149270D01*
X27899540Y-40149270D01*
X27899540Y-41350690D01*
X27899540Y-41350690D01*
G37*
G36*
X25900560Y-41350690D02*
X24899800Y-41350690D01*
X24899800Y-40149270D01*
X25900560Y-40149270D01*
X25900560Y-41350690D01*
X25900560Y-41350690D01*
G37*
G36*
X25603380Y-39798750D02*
X23901580Y-39798750D01*
X23901580Y-38897050D01*
X25603380Y-38897050D01*
X25603380Y-39798750D01*
X25603380Y-39798750D01*
G37*
G36*
X26607529Y-38058010D02*
X26660773Y-38068601D01*
X26761082Y-38110151D01*
X26851357Y-38170470D01*
X26928130Y-38247243D01*
X26988449Y-38337518D01*
X27029999Y-38437827D01*
X27051180Y-38544314D01*
X27051180Y-38652886D01*
X27029999Y-38759373D01*
X26988449Y-38859682D01*
X26928130Y-38949957D01*
X26851357Y-39026730D01*
X26761082Y-39087049D01*
X26660773Y-39128599D01*
X26607530Y-39139189D01*
X26554288Y-39149780D01*
X26445712Y-39149780D01*
X26392470Y-39139189D01*
X26339227Y-39128599D01*
X26238918Y-39087049D01*
X26148643Y-39026730D01*
X26071870Y-38949957D01*
X26011551Y-38859682D01*
X25970001Y-38759373D01*
X25948820Y-38652886D01*
X25948820Y-38544314D01*
X25970001Y-38437827D01*
X26011551Y-38337518D01*
X26071870Y-38247243D01*
X26148643Y-38170470D01*
X26238918Y-38110151D01*
X26339227Y-38068601D01*
X26392471Y-38058010D01*
X26445712Y-38047420D01*
X26554288Y-38047420D01*
X26607529Y-38058010D01*
X26607529Y-38058010D01*
G37*
G36*
X25603380Y-36801550D02*
X23901580Y-36801550D01*
X23901580Y-35899850D01*
X25603380Y-35899850D01*
X25603380Y-36801550D01*
X25603380Y-36801550D01*
G37*
G36*
X26607530Y-35060811D02*
X26660773Y-35071401D01*
X26761082Y-35112951D01*
X26851357Y-35173270D01*
X26928130Y-35250043D01*
X26988449Y-35340318D01*
X27029999Y-35440627D01*
X27051180Y-35547114D01*
X27051180Y-35655686D01*
X27029999Y-35762173D01*
X26988449Y-35862482D01*
X26928130Y-35952757D01*
X26851357Y-36029530D01*
X26761082Y-36089849D01*
X26660773Y-36131399D01*
X26607529Y-36141990D01*
X26554288Y-36152580D01*
X26445712Y-36152580D01*
X26392471Y-36141990D01*
X26339227Y-36131399D01*
X26238918Y-36089849D01*
X26148643Y-36029530D01*
X26071870Y-35952757D01*
X26011551Y-35862482D01*
X25970001Y-35762173D01*
X25948820Y-35655686D01*
X25948820Y-35547114D01*
X25970001Y-35440627D01*
X26011551Y-35340318D01*
X26071870Y-35250043D01*
X26148643Y-35173270D01*
X26238918Y-35112951D01*
X26339227Y-35071401D01*
X26392470Y-35060811D01*
X26445712Y-35050220D01*
X26554288Y-35050220D01*
X26607530Y-35060811D01*
X26607530Y-35060811D01*
G37*
G36*
X25603380Y-35302950D02*
X23901580Y-35302950D01*
X23901580Y-34401250D01*
X25603380Y-34401250D01*
X25603380Y-35302950D01*
X25603380Y-35302950D01*
G37*
G36*
X25900560Y-34050730D02*
X24899800Y-34050730D01*
X24899800Y-32849310D01*
X25900560Y-32849310D01*
X25900560Y-34050730D01*
X25900560Y-34050730D01*
G37*
G36*
X27899540Y-34050730D02*
X27096900Y-34050730D01*
X27096900Y-32849310D01*
X27899540Y-32849310D01*
X27899540Y-34050730D01*
X27899540Y-34050730D01*
G37*
G36*
X-6043204Y-30267339D02*
X-6022586Y-30273593D01*
X-6003586Y-30283749D01*
X-5986934Y-30297415D01*
X-5973268Y-30314067D01*
X-5963112Y-30333067D01*
X-5956858Y-30353685D01*
X-5954142Y-30381263D01*
X-5954142Y-30839983D01*
X-5956858Y-30867561D01*
X-5963112Y-30888179D01*
X-5973268Y-30907179D01*
X-5986934Y-30923831D01*
X-6003586Y-30937497D01*
X-6022586Y-30947653D01*
X-6043204Y-30953907D01*
X-6070782Y-30956623D01*
X-6579502Y-30956623D01*
X-6607080Y-30953907D01*
X-6627698Y-30947653D01*
X-6646698Y-30937497D01*
X-6663350Y-30923831D01*
X-6677016Y-30907179D01*
X-6687172Y-30888179D01*
X-6693426Y-30867561D01*
X-6696142Y-30839983D01*
X-6696142Y-30381263D01*
X-6693426Y-30353685D01*
X-6687172Y-30333067D01*
X-6677016Y-30314067D01*
X-6663350Y-30297415D01*
X-6646698Y-30283749D01*
X-6627698Y-30273593D01*
X-6607080Y-30267339D01*
X-6579502Y-30264623D01*
X-6070782Y-30264623D01*
X-6043204Y-30267339D01*
X-6043204Y-30267339D01*
G37*
G36*
X306796Y-30267339D02*
X327414Y-30273593D01*
X346414Y-30283749D01*
X363066Y-30297415D01*
X376732Y-30314067D01*
X386888Y-30333067D01*
X393142Y-30353685D01*
X395858Y-30381263D01*
X395858Y-30839983D01*
X393142Y-30867561D01*
X386888Y-30888179D01*
X376732Y-30907179D01*
X363066Y-30923831D01*
X346414Y-30937497D01*
X327414Y-30947653D01*
X306796Y-30953907D01*
X279218Y-30956623D01*
X-229502Y-30956623D01*
X-257080Y-30953907D01*
X-277698Y-30947653D01*
X-296698Y-30937497D01*
X-313350Y-30923831D01*
X-327016Y-30907179D01*
X-337172Y-30888179D01*
X-343426Y-30867561D01*
X-346142Y-30839983D01*
X-346142Y-30381263D01*
X-343426Y-30353685D01*
X-337172Y-30333067D01*
X-327016Y-30314067D01*
X-313350Y-30297415D01*
X-296698Y-30283749D01*
X-277698Y-30273593D01*
X-257080Y-30267339D01*
X-229502Y-30264623D01*
X279218Y-30264623D01*
X306796Y-30267339D01*
X306796Y-30267339D01*
G37*
G36*
X-3503204Y-30267339D02*
X-3482586Y-30273593D01*
X-3463586Y-30283749D01*
X-3446934Y-30297415D01*
X-3433268Y-30314067D01*
X-3423112Y-30333067D01*
X-3416858Y-30353685D01*
X-3414142Y-30381263D01*
X-3414142Y-30839983D01*
X-3416858Y-30867561D01*
X-3423112Y-30888179D01*
X-3433268Y-30907179D01*
X-3446934Y-30923831D01*
X-3463586Y-30937497D01*
X-3482586Y-30947653D01*
X-3503204Y-30953907D01*
X-3530782Y-30956623D01*
X-4039502Y-30956623D01*
X-4067080Y-30953907D01*
X-4087698Y-30947653D01*
X-4106698Y-30937497D01*
X-4123350Y-30923831D01*
X-4137016Y-30907179D01*
X-4147172Y-30888179D01*
X-4153426Y-30867561D01*
X-4156142Y-30839983D01*
X-4156142Y-30381263D01*
X-4153426Y-30353685D01*
X-4147172Y-30333067D01*
X-4137016Y-30314067D01*
X-4123350Y-30297415D01*
X-4106698Y-30283749D01*
X-4087698Y-30273593D01*
X-4067080Y-30267339D01*
X-4039502Y-30264623D01*
X-3530782Y-30264623D01*
X-3503204Y-30267339D01*
X-3503204Y-30267339D01*
G37*
G36*
X-963204Y-30267339D02*
X-942586Y-30273593D01*
X-923586Y-30283749D01*
X-906934Y-30297415D01*
X-893268Y-30314067D01*
X-883112Y-30333067D01*
X-876858Y-30353685D01*
X-874142Y-30381263D01*
X-874142Y-30839983D01*
X-876858Y-30867561D01*
X-883112Y-30888179D01*
X-893268Y-30907179D01*
X-906934Y-30923831D01*
X-923586Y-30937497D01*
X-942586Y-30947653D01*
X-963204Y-30953907D01*
X-990782Y-30956623D01*
X-1499502Y-30956623D01*
X-1527080Y-30953907D01*
X-1547698Y-30947653D01*
X-1566698Y-30937497D01*
X-1583350Y-30923831D01*
X-1597016Y-30907179D01*
X-1607172Y-30888179D01*
X-1613426Y-30867561D01*
X-1616142Y-30839983D01*
X-1616142Y-30381263D01*
X-1613426Y-30353685D01*
X-1607172Y-30333067D01*
X-1597016Y-30314067D01*
X-1583350Y-30297415D01*
X-1566698Y-30283749D01*
X-1547698Y-30273593D01*
X-1527080Y-30267339D01*
X-1499502Y-30264623D01*
X-990782Y-30264623D01*
X-963204Y-30267339D01*
X-963204Y-30267339D01*
G37*
G36*
X-4773204Y-30267339D02*
X-4752586Y-30273593D01*
X-4733586Y-30283749D01*
X-4716934Y-30297415D01*
X-4703268Y-30314067D01*
X-4693112Y-30333067D01*
X-4686858Y-30353685D01*
X-4684142Y-30381263D01*
X-4684142Y-30839983D01*
X-4686858Y-30867561D01*
X-4693112Y-30888179D01*
X-4703268Y-30907179D01*
X-4716934Y-30923831D01*
X-4733586Y-30937497D01*
X-4752586Y-30947653D01*
X-4773204Y-30953907D01*
X-4800782Y-30956623D01*
X-5309502Y-30956623D01*
X-5337080Y-30953907D01*
X-5357698Y-30947653D01*
X-5376698Y-30937497D01*
X-5393350Y-30923831D01*
X-5407016Y-30907179D01*
X-5417172Y-30888179D01*
X-5423426Y-30867561D01*
X-5426142Y-30839983D01*
X-5426142Y-30381263D01*
X-5423426Y-30353685D01*
X-5417172Y-30333067D01*
X-5407016Y-30314067D01*
X-5393350Y-30297415D01*
X-5376698Y-30283749D01*
X-5357698Y-30273593D01*
X-5337080Y-30267339D01*
X-5309502Y-30264623D01*
X-4800782Y-30264623D01*
X-4773204Y-30267339D01*
X-4773204Y-30267339D01*
G37*
G36*
X-2233204Y-30267339D02*
X-2212586Y-30273593D01*
X-2193586Y-30283749D01*
X-2176934Y-30297415D01*
X-2163268Y-30314067D01*
X-2153112Y-30333067D01*
X-2146858Y-30353685D01*
X-2144142Y-30381263D01*
X-2144142Y-30839983D01*
X-2146858Y-30867561D01*
X-2153112Y-30888179D01*
X-2163268Y-30907179D01*
X-2176934Y-30923831D01*
X-2193586Y-30937497D01*
X-2212586Y-30947653D01*
X-2233204Y-30953907D01*
X-2260782Y-30956623D01*
X-2769502Y-30956623D01*
X-2797080Y-30953907D01*
X-2817698Y-30947653D01*
X-2836698Y-30937497D01*
X-2853350Y-30923831D01*
X-2867016Y-30907179D01*
X-2877172Y-30888179D01*
X-2883426Y-30867561D01*
X-2886142Y-30839983D01*
X-2886142Y-30381263D01*
X-2883426Y-30353685D01*
X-2877172Y-30333067D01*
X-2867016Y-30314067D01*
X-2853350Y-30297415D01*
X-2836698Y-30283749D01*
X-2817698Y-30273593D01*
X-2797080Y-30267339D01*
X-2769502Y-30264623D01*
X-2260782Y-30264623D01*
X-2233204Y-30267339D01*
X-2233204Y-30267339D01*
G37*
G36*
X7926796Y-30267339D02*
X7947414Y-30273593D01*
X7966414Y-30283749D01*
X7983066Y-30297415D01*
X7996732Y-30314067D01*
X8006888Y-30333067D01*
X8013142Y-30353685D01*
X8015858Y-30381263D01*
X8015858Y-30839983D01*
X8013142Y-30867561D01*
X8006888Y-30888179D01*
X7996732Y-30907179D01*
X7983066Y-30923831D01*
X7966414Y-30937497D01*
X7947414Y-30947653D01*
X7926796Y-30953907D01*
X7899218Y-30956623D01*
X7390498Y-30956623D01*
X7362920Y-30953907D01*
X7342302Y-30947653D01*
X7323302Y-30937497D01*
X7306650Y-30923831D01*
X7292984Y-30907179D01*
X7282828Y-30888179D01*
X7276574Y-30867561D01*
X7273858Y-30839983D01*
X7273858Y-30381263D01*
X7276574Y-30353685D01*
X7282828Y-30333067D01*
X7292984Y-30314067D01*
X7306650Y-30297415D01*
X7323302Y-30283749D01*
X7342302Y-30273593D01*
X7362920Y-30267339D01*
X7390498Y-30264623D01*
X7899218Y-30264623D01*
X7926796Y-30267339D01*
X7926796Y-30267339D01*
G37*
G36*
X9196796Y-30267339D02*
X9217414Y-30273593D01*
X9236414Y-30283749D01*
X9253066Y-30297415D01*
X9266732Y-30314067D01*
X9276888Y-30333067D01*
X9283142Y-30353685D01*
X9285858Y-30381263D01*
X9285858Y-30839983D01*
X9283142Y-30867561D01*
X9276888Y-30888179D01*
X9266732Y-30907179D01*
X9253066Y-30923831D01*
X9236414Y-30937497D01*
X9217414Y-30947653D01*
X9196796Y-30953907D01*
X9169218Y-30956623D01*
X8660498Y-30956623D01*
X8632920Y-30953907D01*
X8612302Y-30947653D01*
X8593302Y-30937497D01*
X8576650Y-30923831D01*
X8562984Y-30907179D01*
X8552828Y-30888179D01*
X8546574Y-30867561D01*
X8543858Y-30839983D01*
X8543858Y-30381263D01*
X8546574Y-30353685D01*
X8552828Y-30333067D01*
X8562984Y-30314067D01*
X8576650Y-30297415D01*
X8593302Y-30283749D01*
X8612302Y-30273593D01*
X8632920Y-30267339D01*
X8660498Y-30264623D01*
X9169218Y-30264623D01*
X9196796Y-30267339D01*
X9196796Y-30267339D01*
G37*
G36*
X-6043204Y-29297339D02*
X-6022586Y-29303593D01*
X-6003586Y-29313749D01*
X-5986934Y-29327415D01*
X-5973268Y-29344067D01*
X-5963112Y-29363067D01*
X-5956858Y-29383685D01*
X-5954142Y-29411263D01*
X-5954142Y-29869983D01*
X-5956858Y-29897561D01*
X-5963112Y-29918179D01*
X-5973268Y-29937179D01*
X-5986934Y-29953831D01*
X-6003586Y-29967497D01*
X-6022586Y-29977653D01*
X-6043204Y-29983907D01*
X-6070782Y-29986623D01*
X-6579502Y-29986623D01*
X-6607080Y-29983907D01*
X-6627698Y-29977653D01*
X-6646698Y-29967497D01*
X-6663350Y-29953831D01*
X-6677016Y-29937179D01*
X-6687172Y-29918179D01*
X-6693426Y-29897561D01*
X-6696142Y-29869983D01*
X-6696142Y-29411263D01*
X-6693426Y-29383685D01*
X-6687172Y-29363067D01*
X-6677016Y-29344067D01*
X-6663350Y-29327415D01*
X-6646698Y-29313749D01*
X-6627698Y-29303593D01*
X-6607080Y-29297339D01*
X-6579502Y-29294623D01*
X-6070782Y-29294623D01*
X-6043204Y-29297339D01*
X-6043204Y-29297339D01*
G37*
G36*
X-3503204Y-29297339D02*
X-3482586Y-29303593D01*
X-3463586Y-29313749D01*
X-3446934Y-29327415D01*
X-3433268Y-29344067D01*
X-3423112Y-29363067D01*
X-3416858Y-29383685D01*
X-3414142Y-29411263D01*
X-3414142Y-29869983D01*
X-3416858Y-29897561D01*
X-3423112Y-29918179D01*
X-3433268Y-29937179D01*
X-3446934Y-29953831D01*
X-3463586Y-29967497D01*
X-3482586Y-29977653D01*
X-3503204Y-29983907D01*
X-3530782Y-29986623D01*
X-4039502Y-29986623D01*
X-4067080Y-29983907D01*
X-4087698Y-29977653D01*
X-4106698Y-29967497D01*
X-4123350Y-29953831D01*
X-4137016Y-29937179D01*
X-4147172Y-29918179D01*
X-4153426Y-29897561D01*
X-4156142Y-29869983D01*
X-4156142Y-29411263D01*
X-4153426Y-29383685D01*
X-4147172Y-29363067D01*
X-4137016Y-29344067D01*
X-4123350Y-29327415D01*
X-4106698Y-29313749D01*
X-4087698Y-29303593D01*
X-4067080Y-29297339D01*
X-4039502Y-29294623D01*
X-3530782Y-29294623D01*
X-3503204Y-29297339D01*
X-3503204Y-29297339D01*
G37*
G36*
X-4773204Y-29297339D02*
X-4752586Y-29303593D01*
X-4733586Y-29313749D01*
X-4716934Y-29327415D01*
X-4703268Y-29344067D01*
X-4693112Y-29363067D01*
X-4686858Y-29383685D01*
X-4684142Y-29411263D01*
X-4684142Y-29869983D01*
X-4686858Y-29897561D01*
X-4693112Y-29918179D01*
X-4703268Y-29937179D01*
X-4716934Y-29953831D01*
X-4733586Y-29967497D01*
X-4752586Y-29977653D01*
X-4773204Y-29983907D01*
X-4800782Y-29986623D01*
X-5309502Y-29986623D01*
X-5337080Y-29983907D01*
X-5357698Y-29977653D01*
X-5376698Y-29967497D01*
X-5393350Y-29953831D01*
X-5407016Y-29937179D01*
X-5417172Y-29918179D01*
X-5423426Y-29897561D01*
X-5426142Y-29869983D01*
X-5426142Y-29411263D01*
X-5423426Y-29383685D01*
X-5417172Y-29363067D01*
X-5407016Y-29344067D01*
X-5393350Y-29327415D01*
X-5376698Y-29313749D01*
X-5357698Y-29303593D01*
X-5337080Y-29297339D01*
X-5309502Y-29294623D01*
X-4800782Y-29294623D01*
X-4773204Y-29297339D01*
X-4773204Y-29297339D01*
G37*
G36*
X-2233204Y-29297339D02*
X-2212586Y-29303593D01*
X-2193586Y-29313749D01*
X-2176934Y-29327415D01*
X-2163268Y-29344067D01*
X-2153112Y-29363067D01*
X-2146858Y-29383685D01*
X-2144142Y-29411263D01*
X-2144142Y-29869983D01*
X-2146858Y-29897561D01*
X-2153112Y-29918179D01*
X-2163268Y-29937179D01*
X-2176934Y-29953831D01*
X-2193586Y-29967497D01*
X-2212586Y-29977653D01*
X-2233204Y-29983907D01*
X-2260782Y-29986623D01*
X-2769502Y-29986623D01*
X-2797080Y-29983907D01*
X-2817698Y-29977653D01*
X-2836698Y-29967497D01*
X-2853350Y-29953831D01*
X-2867016Y-29937179D01*
X-2877172Y-29918179D01*
X-2883426Y-29897561D01*
X-2886142Y-29869983D01*
X-2886142Y-29411263D01*
X-2883426Y-29383685D01*
X-2877172Y-29363067D01*
X-2867016Y-29344067D01*
X-2853350Y-29327415D01*
X-2836698Y-29313749D01*
X-2817698Y-29303593D01*
X-2797080Y-29297339D01*
X-2769502Y-29294623D01*
X-2260782Y-29294623D01*
X-2233204Y-29297339D01*
X-2233204Y-29297339D01*
G37*
G36*
X7926796Y-29297339D02*
X7947414Y-29303593D01*
X7966414Y-29313749D01*
X7983066Y-29327415D01*
X7996732Y-29344067D01*
X8006888Y-29363067D01*
X8013142Y-29383685D01*
X8015858Y-29411263D01*
X8015858Y-29869983D01*
X8013142Y-29897561D01*
X8006888Y-29918179D01*
X7996732Y-29937179D01*
X7983066Y-29953831D01*
X7966414Y-29967497D01*
X7947414Y-29977653D01*
X7926796Y-29983907D01*
X7899218Y-29986623D01*
X7390498Y-29986623D01*
X7362920Y-29983907D01*
X7342302Y-29977653D01*
X7323302Y-29967497D01*
X7306650Y-29953831D01*
X7292984Y-29937179D01*
X7282828Y-29918179D01*
X7276574Y-29897561D01*
X7273858Y-29869983D01*
X7273858Y-29411263D01*
X7276574Y-29383685D01*
X7282828Y-29363067D01*
X7292984Y-29344067D01*
X7306650Y-29327415D01*
X7323302Y-29313749D01*
X7342302Y-29303593D01*
X7362920Y-29297339D01*
X7390498Y-29294623D01*
X7899218Y-29294623D01*
X7926796Y-29297339D01*
X7926796Y-29297339D01*
G37*
G36*
X9196796Y-29297339D02*
X9217414Y-29303593D01*
X9236414Y-29313749D01*
X9253066Y-29327415D01*
X9266732Y-29344067D01*
X9276888Y-29363067D01*
X9283142Y-29383685D01*
X9285858Y-29411263D01*
X9285858Y-29869983D01*
X9283142Y-29897561D01*
X9276888Y-29918179D01*
X9266732Y-29937179D01*
X9253066Y-29953831D01*
X9236414Y-29967497D01*
X9217414Y-29977653D01*
X9196796Y-29983907D01*
X9169218Y-29986623D01*
X8660498Y-29986623D01*
X8632920Y-29983907D01*
X8612302Y-29977653D01*
X8593302Y-29967497D01*
X8576650Y-29953831D01*
X8562984Y-29937179D01*
X8552828Y-29918179D01*
X8546574Y-29897561D01*
X8543858Y-29869983D01*
X8543858Y-29411263D01*
X8546574Y-29383685D01*
X8552828Y-29363067D01*
X8562984Y-29344067D01*
X8576650Y-29327415D01*
X8593302Y-29313749D01*
X8612302Y-29303593D01*
X8632920Y-29297339D01*
X8660498Y-29294623D01*
X9169218Y-29294623D01*
X9196796Y-29297339D01*
X9196796Y-29297339D01*
G37*
G36*
X306796Y-29297339D02*
X327414Y-29303593D01*
X346414Y-29313749D01*
X363066Y-29327415D01*
X376732Y-29344067D01*
X386888Y-29363067D01*
X393142Y-29383685D01*
X395858Y-29411263D01*
X395858Y-29869983D01*
X393142Y-29897561D01*
X386888Y-29918179D01*
X376732Y-29937179D01*
X363066Y-29953831D01*
X346414Y-29967497D01*
X327414Y-29977653D01*
X306796Y-29983907D01*
X279218Y-29986623D01*
X-229502Y-29986623D01*
X-257080Y-29983907D01*
X-277698Y-29977653D01*
X-296698Y-29967497D01*
X-313350Y-29953831D01*
X-327016Y-29937179D01*
X-337172Y-29918179D01*
X-343426Y-29897561D01*
X-346142Y-29869983D01*
X-346142Y-29411263D01*
X-343426Y-29383685D01*
X-337172Y-29363067D01*
X-327016Y-29344067D01*
X-313350Y-29327415D01*
X-296698Y-29313749D01*
X-277698Y-29303593D01*
X-257080Y-29297339D01*
X-229502Y-29294623D01*
X279218Y-29294623D01*
X306796Y-29297339D01*
X306796Y-29297339D01*
G37*
G36*
X-963204Y-29297339D02*
X-942586Y-29303593D01*
X-923586Y-29313749D01*
X-906934Y-29327415D01*
X-893268Y-29344067D01*
X-883112Y-29363067D01*
X-876858Y-29383685D01*
X-874142Y-29411263D01*
X-874142Y-29869983D01*
X-876858Y-29897561D01*
X-883112Y-29918179D01*
X-893268Y-29937179D01*
X-906934Y-29953831D01*
X-923586Y-29967497D01*
X-942586Y-29977653D01*
X-963204Y-29983907D01*
X-990782Y-29986623D01*
X-1499502Y-29986623D01*
X-1527080Y-29983907D01*
X-1547698Y-29977653D01*
X-1566698Y-29967497D01*
X-1583350Y-29953831D01*
X-1597016Y-29937179D01*
X-1607172Y-29918179D01*
X-1613426Y-29897561D01*
X-1616142Y-29869983D01*
X-1616142Y-29411263D01*
X-1613426Y-29383685D01*
X-1607172Y-29363067D01*
X-1597016Y-29344067D01*
X-1583350Y-29327415D01*
X-1566698Y-29313749D01*
X-1547698Y-29303593D01*
X-1527080Y-29297339D01*
X-1499502Y-29294623D01*
X-990782Y-29294623D01*
X-963204Y-29297339D01*
X-963204Y-29297339D01*
G37*
G36*
X-19766357Y-27729781D02*
X-19620585Y-27790162D01*
X-19489389Y-27877824D01*
X-19377824Y-27989389D01*
X-19290162Y-28120585D01*
X-19229781Y-28266357D01*
X-19199000Y-28421107D01*
X-19199000Y-28578893D01*
X-19229781Y-28733643D01*
X-19290162Y-28879415D01*
X-19377824Y-29010611D01*
X-19489389Y-29122176D01*
X-19620585Y-29209838D01*
X-19766357Y-29270219D01*
X-19921107Y-29301000D01*
X-20078893Y-29301000D01*
X-20233643Y-29270219D01*
X-20379415Y-29209838D01*
X-20510611Y-29122176D01*
X-20622176Y-29010611D01*
X-20709838Y-28879415D01*
X-20770219Y-28733643D01*
X-20801000Y-28578893D01*
X-20801000Y-28421107D01*
X-20770219Y-28266357D01*
X-20709838Y-28120585D01*
X-20622176Y-27989389D01*
X-20510611Y-27877824D01*
X-20379415Y-27790162D01*
X-20233643Y-27729781D01*
X-20078893Y-27699000D01*
X-19921107Y-27699000D01*
X-19766357Y-27729781D01*
X-19766357Y-27729781D01*
G37*
G36*
X-22061323Y-24753465D02*
X-22023636Y-24764898D01*
X-21988897Y-24783466D01*
X-21958452Y-24808452D01*
X-21933466Y-24838897D01*
X-21914898Y-24873636D01*
X-21903465Y-24911323D01*
X-21899000Y-24956661D01*
X-21899000Y-26043339D01*
X-21903465Y-26088677D01*
X-21914898Y-26126364D01*
X-21933466Y-26161103D01*
X-21958452Y-26191548D01*
X-21988897Y-26216534D01*
X-22023636Y-26235102D01*
X-22061323Y-26246535D01*
X-22106661Y-26251000D01*
X-22943339Y-26251000D01*
X-22988677Y-26246535D01*
X-23026364Y-26235102D01*
X-23061103Y-26216534D01*
X-23091548Y-26191548D01*
X-23116534Y-26161103D01*
X-23135102Y-26126364D01*
X-23146535Y-26088677D01*
X-23151000Y-26043339D01*
X-23151000Y-24956661D01*
X-23146535Y-24911323D01*
X-23135102Y-24873636D01*
X-23116534Y-24838897D01*
X-23091548Y-24808452D01*
X-23061103Y-24783466D01*
X-23026364Y-24764898D01*
X-22988677Y-24753465D01*
X-22943339Y-24749000D01*
X-22106661Y-24749000D01*
X-22061323Y-24753465D01*
X-22061323Y-24753465D01*
G37*
G36*
X-20011323Y-24753465D02*
X-19973636Y-24764898D01*
X-19938897Y-24783466D01*
X-19908452Y-24808452D01*
X-19883466Y-24838897D01*
X-19864898Y-24873636D01*
X-19853465Y-24911323D01*
X-19849000Y-24956661D01*
X-19849000Y-26043339D01*
X-19853465Y-26088677D01*
X-19864898Y-26126364D01*
X-19883466Y-26161103D01*
X-19908452Y-26191548D01*
X-19938897Y-26216534D01*
X-19973636Y-26235102D01*
X-20011323Y-26246535D01*
X-20056661Y-26251000D01*
X-20893339Y-26251000D01*
X-20938677Y-26246535D01*
X-20976364Y-26235102D01*
X-21011103Y-26216534D01*
X-21041548Y-26191548D01*
X-21066534Y-26161103D01*
X-21085102Y-26126364D01*
X-21096535Y-26088677D01*
X-21101000Y-26043339D01*
X-21101000Y-24956661D01*
X-21096535Y-24911323D01*
X-21085102Y-24873636D01*
X-21066534Y-24838897D01*
X-21041548Y-24808452D01*
X-21011103Y-24783466D01*
X-20976364Y-24764898D01*
X-20938677Y-24753465D01*
X-20893339Y-24749000D01*
X-20056661Y-24749000D01*
X-20011323Y-24753465D01*
X-20011323Y-24753465D01*
G37*
G36*
X-17499000Y-24001000D02*
X-18401000Y-24001000D01*
X-18401000Y-22999000D01*
X-17499000Y-22999000D01*
X-17499000Y-24001000D01*
X-17499000Y-24001000D01*
G37*
G36*
X-15599000Y-24001000D02*
X-16501000Y-24001000D01*
X-16501000Y-22999000D01*
X-15599000Y-22999000D01*
X-15599000Y-24001000D01*
X-15599000Y-24001000D01*
G37*
G36*
X-20624142Y-23866623D02*
X-22376142Y-23866623D01*
X-22376142Y-22914623D01*
X-20624142Y-22914623D01*
X-20624142Y-23866623D01*
X-20624142Y-23866623D01*
G37*
G36*
X-23411323Y-22403465D02*
X-23373636Y-22414898D01*
X-23338897Y-22433466D01*
X-23308452Y-22458452D01*
X-23283466Y-22488897D01*
X-23264898Y-22523636D01*
X-23253465Y-22561323D01*
X-23249000Y-22606661D01*
X-23249000Y-23443339D01*
X-23253465Y-23488677D01*
X-23264898Y-23526364D01*
X-23283466Y-23561103D01*
X-23308452Y-23591548D01*
X-23338897Y-23616534D01*
X-23373636Y-23635102D01*
X-23411323Y-23646535D01*
X-23456661Y-23651000D01*
X-24543339Y-23651000D01*
X-24588677Y-23646535D01*
X-24626364Y-23635102D01*
X-24661103Y-23616534D01*
X-24691548Y-23591548D01*
X-24716534Y-23561103D01*
X-24735102Y-23526364D01*
X-24746535Y-23488677D01*
X-24751000Y-23443339D01*
X-24751000Y-22606661D01*
X-24746535Y-22561323D01*
X-24735102Y-22523636D01*
X-24716534Y-22488897D01*
X-24691548Y-22458452D01*
X-24661103Y-22433466D01*
X-24626364Y-22414898D01*
X-24588677Y-22403465D01*
X-24543339Y-22399000D01*
X-23456661Y-22399000D01*
X-23411323Y-22403465D01*
X-23411323Y-22403465D01*
G37*
G36*
X-25915534Y-22403565D02*
X-25876863Y-22415296D01*
X-25841221Y-22434348D01*
X-25809983Y-22459983D01*
X-25784348Y-22491221D01*
X-25765296Y-22526863D01*
X-25753565Y-22565534D01*
X-25749000Y-22611888D01*
X-25749000Y-23263112D01*
X-25753565Y-23309466D01*
X-25765296Y-23348137D01*
X-25784348Y-23383779D01*
X-25809983Y-23415017D01*
X-25841221Y-23440652D01*
X-25876863Y-23459704D01*
X-25915534Y-23471435D01*
X-25961888Y-23476000D01*
X-27038112Y-23476000D01*
X-27084466Y-23471435D01*
X-27123137Y-23459704D01*
X-27158779Y-23440652D01*
X-27190017Y-23415017D01*
X-27215652Y-23383779D01*
X-27234704Y-23348137D01*
X-27246435Y-23309466D01*
X-27251000Y-23263112D01*
X-27251000Y-22611888D01*
X-27246435Y-22565534D01*
X-27234704Y-22526863D01*
X-27215652Y-22491221D01*
X-27190017Y-22459983D01*
X-27158779Y-22434348D01*
X-27123137Y-22415296D01*
X-27084466Y-22403565D01*
X-27038112Y-22399000D01*
X-25961888Y-22399000D01*
X-25915534Y-22403565D01*
X-25915534Y-22403565D01*
G37*
G36*
X-16549000Y-22001000D02*
X-17451000Y-22001000D01*
X-17451000Y-20999000D01*
X-16549000Y-20999000D01*
X-16549000Y-22001000D01*
X-16549000Y-22001000D01*
G37*
G36*
X-21924142Y-21666623D02*
X-22376142Y-21666623D01*
X-22376142Y-20714623D01*
X-21924142Y-20714623D01*
X-21924142Y-21666623D01*
X-21924142Y-21666623D01*
G37*
G36*
X-20624142Y-21666623D02*
X-21076142Y-21666623D01*
X-21076142Y-20714623D01*
X-20624142Y-20714623D01*
X-20624142Y-21666623D01*
X-20624142Y-21666623D01*
G37*
G36*
X-23411323Y-20353465D02*
X-23373636Y-20364898D01*
X-23338897Y-20383466D01*
X-23308452Y-20408452D01*
X-23283466Y-20438897D01*
X-23264898Y-20473636D01*
X-23253465Y-20511323D01*
X-23249000Y-20556661D01*
X-23249000Y-21393339D01*
X-23253465Y-21438677D01*
X-23264898Y-21476364D01*
X-23283466Y-21511103D01*
X-23308452Y-21541548D01*
X-23338897Y-21566534D01*
X-23373636Y-21585102D01*
X-23411323Y-21596535D01*
X-23456661Y-21601000D01*
X-24543339Y-21601000D01*
X-24588677Y-21596535D01*
X-24626364Y-21585102D01*
X-24661103Y-21566534D01*
X-24691548Y-21541548D01*
X-24716534Y-21511103D01*
X-24735102Y-21476364D01*
X-24746535Y-21438677D01*
X-24751000Y-21393339D01*
X-24751000Y-20556661D01*
X-24746535Y-20511323D01*
X-24735102Y-20473636D01*
X-24716534Y-20438897D01*
X-24691548Y-20408452D01*
X-24661103Y-20383466D01*
X-24626364Y-20364898D01*
X-24588677Y-20353465D01*
X-24543339Y-20349000D01*
X-23456661Y-20349000D01*
X-23411323Y-20353465D01*
X-23411323Y-20353465D01*
G37*
G36*
X-25915534Y-20528565D02*
X-25876863Y-20540296D01*
X-25841221Y-20559348D01*
X-25809983Y-20584983D01*
X-25784348Y-20616221D01*
X-25765296Y-20651863D01*
X-25753565Y-20690534D01*
X-25749000Y-20736888D01*
X-25749000Y-21388112D01*
X-25753565Y-21434466D01*
X-25765296Y-21473137D01*
X-25784348Y-21508779D01*
X-25809983Y-21540017D01*
X-25841221Y-21565652D01*
X-25876863Y-21584704D01*
X-25915534Y-21596435D01*
X-25961888Y-21601000D01*
X-27038112Y-21601000D01*
X-27084466Y-21596435D01*
X-27123137Y-21584704D01*
X-27158779Y-21565652D01*
X-27190017Y-21540017D01*
X-27215652Y-21508779D01*
X-27234704Y-21473137D01*
X-27246435Y-21434466D01*
X-27251000Y-21388112D01*
X-27251000Y-20736888D01*
X-27246435Y-20690534D01*
X-27234704Y-20651863D01*
X-27215652Y-20616221D01*
X-27190017Y-20584983D01*
X-27158779Y-20559348D01*
X-27123137Y-20540296D01*
X-27084466Y-20528565D01*
X-27038112Y-20524000D01*
X-25961888Y-20524000D01*
X-25915534Y-20528565D01*
X-25915534Y-20528565D01*
G37*
G36*
X-19218062Y-20641716D02*
X-19197444Y-20647970D01*
X-19178444Y-20658126D01*
X-19161792Y-20671792D01*
X-19148126Y-20688444D01*
X-19137970Y-20707444D01*
X-19131716Y-20728062D01*
X-19129000Y-20755640D01*
X-19129000Y-21214360D01*
X-19131716Y-21241938D01*
X-19137970Y-21262556D01*
X-19148126Y-21281556D01*
X-19161792Y-21298208D01*
X-19178444Y-21311874D01*
X-19197444Y-21322030D01*
X-19218062Y-21328284D01*
X-19245640Y-21331000D01*
X-19754360Y-21331000D01*
X-19781938Y-21328284D01*
X-19802556Y-21322030D01*
X-19821556Y-21311874D01*
X-19838208Y-21298208D01*
X-19851874Y-21281556D01*
X-19862030Y-21262556D01*
X-19868284Y-21241938D01*
X-19871000Y-21214360D01*
X-19871000Y-20755640D01*
X-19868284Y-20728062D01*
X-19862030Y-20707444D01*
X-19851874Y-20688444D01*
X-19838208Y-20671792D01*
X-19821556Y-20658126D01*
X-19802556Y-20647970D01*
X-19781938Y-20641716D01*
X-19754360Y-20639000D01*
X-19245640Y-20639000D01*
X-19218062Y-20641716D01*
X-19218062Y-20641716D01*
G37*
G36*
X-19218062Y-19671716D02*
X-19197444Y-19677970D01*
X-19178444Y-19688126D01*
X-19161792Y-19701792D01*
X-19148126Y-19718444D01*
X-19137970Y-19737444D01*
X-19131716Y-19758062D01*
X-19129000Y-19785640D01*
X-19129000Y-20244360D01*
X-19131716Y-20271938D01*
X-19137970Y-20292556D01*
X-19148126Y-20311556D01*
X-19161792Y-20328208D01*
X-19178444Y-20341874D01*
X-19197444Y-20352030D01*
X-19218062Y-20358284D01*
X-19245640Y-20361000D01*
X-19754360Y-20361000D01*
X-19781938Y-20358284D01*
X-19802556Y-20352030D01*
X-19821556Y-20341874D01*
X-19838208Y-20328208D01*
X-19851874Y-20311556D01*
X-19862030Y-20292556D01*
X-19868284Y-20271938D01*
X-19871000Y-20244360D01*
X-19871000Y-19785640D01*
X-19868284Y-19758062D01*
X-19862030Y-19737444D01*
X-19851874Y-19718444D01*
X-19838208Y-19701792D01*
X-19821556Y-19688126D01*
X-19802556Y-19677970D01*
X-19781938Y-19671716D01*
X-19754360Y-19669000D01*
X-19245640Y-19669000D01*
X-19218062Y-19671716D01*
X-19218062Y-19671716D01*
G37*
G36*
X15601000Y-20211000D02*
X13699000Y-20211000D01*
X13699000Y-13509000D01*
X15601000Y-13509000D01*
X15601000Y-20211000D01*
X15601000Y-20211000D01*
G37*
G36*
X-12699000Y-20211000D02*
X-14601000Y-20211000D01*
X-14601000Y-13509000D01*
X-12699000Y-13509000D01*
X-12699000Y-20211000D01*
X-12699000Y-20211000D01*
G37*
G36*
X-17766357Y-14229781D02*
X-17620585Y-14290162D01*
X-17489389Y-14377824D01*
X-17377824Y-14489389D01*
X-17290162Y-14620585D01*
X-17229781Y-14766357D01*
X-17199000Y-14921107D01*
X-17199000Y-15078893D01*
X-17229781Y-15233643D01*
X-17290162Y-15379415D01*
X-17377824Y-15510611D01*
X-17489389Y-15622176D01*
X-17620585Y-15709838D01*
X-17766357Y-15770219D01*
X-17921107Y-15801000D01*
X-18078893Y-15801000D01*
X-18233643Y-15770219D01*
X-18379415Y-15709838D01*
X-18510611Y-15622176D01*
X-18622176Y-15510611D01*
X-18709838Y-15379415D01*
X-18770219Y-15233643D01*
X-18801000Y-15078893D01*
X-18801000Y-14921107D01*
X-18770219Y-14766357D01*
X-18709838Y-14620585D01*
X-18622176Y-14489389D01*
X-18510611Y-14377824D01*
X-18379415Y-14290162D01*
X-18233643Y-14229781D01*
X-18078893Y-14199000D01*
X-17921107Y-14199000D01*
X-17766357Y-14229781D01*
X-17766357Y-14229781D01*
G37*
G36*
X12951000Y-15611000D02*
X-11951000Y-15611000D01*
X-11951000Y-11609000D01*
X12951000Y-11609000D01*
X12951000Y-15611000D01*
X12951000Y-15611000D01*
G37*
G36*
X-25159142Y-12741623D02*
X-26961142Y-12741623D01*
X-26961142Y-10939623D01*
X-25159142Y-10939623D01*
X-25159142Y-12741623D01*
X-25159142Y-12741623D01*
G37*
G36*
X-14565534Y-10753565D02*
X-14526863Y-10765296D01*
X-14491221Y-10784348D01*
X-14459983Y-10809983D01*
X-14434348Y-10841221D01*
X-14415296Y-10876863D01*
X-14403565Y-10915534D01*
X-14399000Y-10961888D01*
X-14399000Y-12038112D01*
X-14403565Y-12084466D01*
X-14415296Y-12123137D01*
X-14434348Y-12158779D01*
X-14459983Y-12190017D01*
X-14491221Y-12215652D01*
X-14526863Y-12234704D01*
X-14565534Y-12246435D01*
X-14611888Y-12251000D01*
X-15263112Y-12251000D01*
X-15309466Y-12246435D01*
X-15348137Y-12234704D01*
X-15383779Y-12215652D01*
X-15415017Y-12190017D01*
X-15440652Y-12158779D01*
X-15459704Y-12123137D01*
X-15471435Y-12084466D01*
X-15476000Y-12038112D01*
X-15476000Y-10961888D01*
X-15471435Y-10915534D01*
X-15459704Y-10876863D01*
X-15440652Y-10841221D01*
X-15415017Y-10809983D01*
X-15383779Y-10784348D01*
X-15348137Y-10765296D01*
X-15309466Y-10753565D01*
X-15263112Y-10749000D01*
X-14611888Y-10749000D01*
X-14565534Y-10753565D01*
X-14565534Y-10753565D01*
G37*
G36*
X-12690534Y-10753565D02*
X-12651863Y-10765296D01*
X-12616221Y-10784348D01*
X-12584983Y-10809983D01*
X-12559348Y-10841221D01*
X-12540296Y-10876863D01*
X-12528565Y-10915534D01*
X-12524000Y-10961888D01*
X-12524000Y-12038112D01*
X-12528565Y-12084466D01*
X-12540296Y-12123137D01*
X-12559348Y-12158779D01*
X-12584983Y-12190017D01*
X-12616221Y-12215652D01*
X-12651863Y-12234704D01*
X-12690534Y-12246435D01*
X-12736888Y-12251000D01*
X-13388112Y-12251000D01*
X-13434466Y-12246435D01*
X-13473137Y-12234704D01*
X-13508779Y-12215652D01*
X-13540017Y-12190017D01*
X-13565652Y-12158779D01*
X-13584704Y-12123137D01*
X-13596435Y-12084466D01*
X-13601000Y-12038112D01*
X-13601000Y-10961888D01*
X-13596435Y-10915534D01*
X-13584704Y-10876863D01*
X-13565652Y-10841221D01*
X-13540017Y-10809983D01*
X-13508779Y-10784348D01*
X-13473137Y-10765296D01*
X-13434466Y-10753565D01*
X-13388112Y-10749000D01*
X-12736888Y-10749000D01*
X-12690534Y-10753565D01*
X-12690534Y-10753565D01*
G37*
G36*
X-11266357Y-9229781D02*
X-11120585Y-9290162D01*
X-10989389Y-9377824D01*
X-10877824Y-9489389D01*
X-10790162Y-9620585D01*
X-10729781Y-9766357D01*
X-10699000Y-9921107D01*
X-10699000Y-10078893D01*
X-10729781Y-10233643D01*
X-10790162Y-10379415D01*
X-10877824Y-10510611D01*
X-10989389Y-10622176D01*
X-11120585Y-10709838D01*
X-11266357Y-10770219D01*
X-11421107Y-10801000D01*
X-11578893Y-10801000D01*
X-11733643Y-10770219D01*
X-11879415Y-10709838D01*
X-12010611Y-10622176D01*
X-12122176Y-10510611D01*
X-12209838Y-10379415D01*
X-12270219Y-10233643D01*
X-12301000Y-10078893D01*
X-12301000Y-9921107D01*
X-12270219Y-9766357D01*
X-12209838Y-9620585D01*
X-12122176Y-9489389D01*
X-12010611Y-9377824D01*
X-11879415Y-9290162D01*
X-11733643Y-9229781D01*
X-11578893Y-9199000D01*
X-11421107Y-9199000D01*
X-11266357Y-9229781D01*
X-11266357Y-9229781D01*
G37*
G36*
X-25949699Y-8406142D02*
X-25883515Y-8412660D01*
X-25770289Y-8447007D01*
X-25713675Y-8464180D01*
X-25575055Y-8538275D01*
X-25557151Y-8547845D01*
X-25521413Y-8577175D01*
X-25419956Y-8660437D01*
X-25336694Y-8761894D01*
X-25307364Y-8797632D01*
X-25307363Y-8797634D01*
X-25223699Y-8954156D01*
X-25223699Y-8954157D01*
X-25172179Y-9123996D01*
X-25154783Y-9300623D01*
X-25172179Y-9477250D01*
X-25206526Y-9590476D01*
X-25223699Y-9647090D01*
X-25297794Y-9785710D01*
X-25307364Y-9803614D01*
X-25336694Y-9839352D01*
X-25419956Y-9940809D01*
X-25521413Y-10024071D01*
X-25557151Y-10053401D01*
X-25557153Y-10053402D01*
X-25713675Y-10137066D01*
X-25770289Y-10154239D01*
X-25883515Y-10188586D01*
X-25949700Y-10195105D01*
X-26015882Y-10201623D01*
X-26104402Y-10201623D01*
X-26170584Y-10195105D01*
X-26236769Y-10188586D01*
X-26349995Y-10154239D01*
X-26406609Y-10137066D01*
X-26563131Y-10053402D01*
X-26563133Y-10053401D01*
X-26598871Y-10024071D01*
X-26700328Y-9940809D01*
X-26783590Y-9839352D01*
X-26812920Y-9803614D01*
X-26822490Y-9785710D01*
X-26896585Y-9647090D01*
X-26913758Y-9590476D01*
X-26948105Y-9477250D01*
X-26965501Y-9300623D01*
X-26948105Y-9123996D01*
X-26896585Y-8954157D01*
X-26896585Y-8954156D01*
X-26812921Y-8797634D01*
X-26812920Y-8797632D01*
X-26783590Y-8761894D01*
X-26700328Y-8660437D01*
X-26598871Y-8577175D01*
X-26563133Y-8547845D01*
X-26545229Y-8538275D01*
X-26406609Y-8464180D01*
X-26349995Y-8447007D01*
X-26236769Y-8412660D01*
X-26170585Y-8406142D01*
X-26104402Y-8399623D01*
X-26015882Y-8399623D01*
X-25949699Y-8406142D01*
X-25949699Y-8406142D01*
G37*
G36*
X-25949699Y-5866142D02*
X-25883515Y-5872660D01*
X-25770289Y-5907007D01*
X-25713675Y-5924180D01*
X-25575055Y-5998275D01*
X-25557151Y-6007845D01*
X-25521413Y-6037175D01*
X-25419956Y-6120437D01*
X-25342877Y-6214360D01*
X-25307364Y-6257632D01*
X-25307363Y-6257634D01*
X-25223699Y-6414156D01*
X-25223699Y-6414157D01*
X-25172179Y-6583996D01*
X-25154783Y-6760623D01*
X-25172179Y-6937250D01*
X-25206526Y-7050476D01*
X-25223699Y-7107090D01*
X-25297794Y-7245710D01*
X-25307364Y-7263614D01*
X-25336694Y-7299352D01*
X-25419956Y-7400809D01*
X-25521413Y-7484071D01*
X-25557151Y-7513401D01*
X-25557153Y-7513402D01*
X-25713675Y-7597066D01*
X-25770289Y-7614239D01*
X-25883515Y-7648586D01*
X-25949700Y-7655105D01*
X-26015882Y-7661623D01*
X-26104402Y-7661623D01*
X-26170584Y-7655105D01*
X-26236769Y-7648586D01*
X-26349995Y-7614239D01*
X-26406609Y-7597066D01*
X-26563131Y-7513402D01*
X-26563133Y-7513401D01*
X-26598871Y-7484071D01*
X-26700328Y-7400809D01*
X-26783590Y-7299352D01*
X-26812920Y-7263614D01*
X-26822490Y-7245710D01*
X-26896585Y-7107090D01*
X-26913758Y-7050476D01*
X-26948105Y-6937250D01*
X-26965501Y-6760623D01*
X-26948105Y-6583996D01*
X-26896585Y-6414157D01*
X-26896585Y-6414156D01*
X-26812921Y-6257634D01*
X-26812920Y-6257632D01*
X-26777407Y-6214360D01*
X-26700328Y-6120437D01*
X-26598871Y-6037175D01*
X-26563133Y-6007845D01*
X-26545229Y-5998275D01*
X-26406609Y-5924180D01*
X-26349995Y-5907007D01*
X-26236769Y-5872660D01*
X-26170585Y-5866142D01*
X-26104402Y-5859623D01*
X-26015882Y-5859623D01*
X-25949699Y-5866142D01*
X-25949699Y-5866142D01*
G37*
G36*
X-12599450Y-6400430D02*
X-15101350Y-6400430D01*
X-15101350Y-4599570D01*
X-12599450Y-4599570D01*
X-12599450Y-6400430D01*
X-12599450Y-6400430D01*
G37*
G36*
X-18898650Y-6400430D02*
X-21400550Y-6400430D01*
X-21400550Y-4599570D01*
X-18898650Y-4599570D01*
X-18898650Y-6400430D01*
X-18898650Y-6400430D01*
G37*
G36*
X10781938Y-5641716D02*
X10802556Y-5647970D01*
X10821556Y-5658126D01*
X10838208Y-5671792D01*
X10851874Y-5688444D01*
X10862030Y-5707444D01*
X10868284Y-5728062D01*
X10871000Y-5755640D01*
X10871000Y-6214360D01*
X10868284Y-6241938D01*
X10862030Y-6262556D01*
X10851874Y-6281556D01*
X10838208Y-6298208D01*
X10821556Y-6311874D01*
X10802556Y-6322030D01*
X10781938Y-6328284D01*
X10754360Y-6331000D01*
X10245640Y-6331000D01*
X10218062Y-6328284D01*
X10197444Y-6322030D01*
X10178444Y-6311874D01*
X10161792Y-6298208D01*
X10148126Y-6281556D01*
X10137970Y-6262556D01*
X10131716Y-6241938D01*
X10129000Y-6214360D01*
X10129000Y-5755640D01*
X10131716Y-5728062D01*
X10137970Y-5707444D01*
X10148126Y-5688444D01*
X10161792Y-5671792D01*
X10178444Y-5658126D01*
X10197444Y-5647970D01*
X10218062Y-5641716D01*
X10245640Y-5639000D01*
X10754360Y-5639000D01*
X10781938Y-5641716D01*
X10781938Y-5641716D01*
G37*
G36*
X2281938Y-5641716D02*
X2302556Y-5647970D01*
X2321556Y-5658126D01*
X2338208Y-5671792D01*
X2351874Y-5688444D01*
X2362030Y-5707444D01*
X2368284Y-5728062D01*
X2371000Y-5755640D01*
X2371000Y-6214360D01*
X2368284Y-6241938D01*
X2362030Y-6262556D01*
X2351874Y-6281556D01*
X2338208Y-6298208D01*
X2321556Y-6311874D01*
X2302556Y-6322030D01*
X2281938Y-6328284D01*
X2254360Y-6331000D01*
X1745640Y-6331000D01*
X1718062Y-6328284D01*
X1697444Y-6322030D01*
X1678444Y-6311874D01*
X1661792Y-6298208D01*
X1648126Y-6281556D01*
X1637970Y-6262556D01*
X1631716Y-6241938D01*
X1629000Y-6214360D01*
X1629000Y-5755640D01*
X1631716Y-5728062D01*
X1637970Y-5707444D01*
X1648126Y-5688444D01*
X1661792Y-5671792D01*
X1678444Y-5658126D01*
X1697444Y-5647970D01*
X1718062Y-5641716D01*
X1745640Y-5639000D01*
X2254360Y-5639000D01*
X2281938Y-5641716D01*
X2281938Y-5641716D01*
G37*
G36*
X9281938Y-5641716D02*
X9302556Y-5647970D01*
X9321556Y-5658126D01*
X9338208Y-5671792D01*
X9351874Y-5688444D01*
X9362030Y-5707444D01*
X9368284Y-5728062D01*
X9371000Y-5755640D01*
X9371000Y-6214360D01*
X9368284Y-6241938D01*
X9362030Y-6262556D01*
X9351874Y-6281556D01*
X9338208Y-6298208D01*
X9321556Y-6311874D01*
X9302556Y-6322030D01*
X9281938Y-6328284D01*
X9254360Y-6331000D01*
X8745640Y-6331000D01*
X8718062Y-6328284D01*
X8697444Y-6322030D01*
X8678444Y-6311874D01*
X8661792Y-6298208D01*
X8648126Y-6281556D01*
X8637970Y-6262556D01*
X8631716Y-6241938D01*
X8629000Y-6214360D01*
X8629000Y-5755640D01*
X8631716Y-5728062D01*
X8637970Y-5707444D01*
X8648126Y-5688444D01*
X8661792Y-5671792D01*
X8678444Y-5658126D01*
X8697444Y-5647970D01*
X8718062Y-5641716D01*
X8745640Y-5639000D01*
X9254360Y-5639000D01*
X9281938Y-5641716D01*
X9281938Y-5641716D01*
G37*
G36*
X12281938Y-5641716D02*
X12302556Y-5647970D01*
X12321556Y-5658126D01*
X12338208Y-5671792D01*
X12351874Y-5688444D01*
X12362030Y-5707444D01*
X12368284Y-5728062D01*
X12371000Y-5755640D01*
X12371000Y-6214360D01*
X12368284Y-6241938D01*
X12362030Y-6262556D01*
X12351874Y-6281556D01*
X12338208Y-6298208D01*
X12321556Y-6311874D01*
X12302556Y-6322030D01*
X12281938Y-6328284D01*
X12254360Y-6331000D01*
X11745640Y-6331000D01*
X11718062Y-6328284D01*
X11697444Y-6322030D01*
X11678444Y-6311874D01*
X11661792Y-6298208D01*
X11648126Y-6281556D01*
X11637970Y-6262556D01*
X11631716Y-6241938D01*
X11629000Y-6214360D01*
X11629000Y-5755640D01*
X11631716Y-5728062D01*
X11637970Y-5707444D01*
X11648126Y-5688444D01*
X11661792Y-5671792D01*
X11678444Y-5658126D01*
X11697444Y-5647970D01*
X11718062Y-5641716D01*
X11745640Y-5639000D01*
X12254360Y-5639000D01*
X12281938Y-5641716D01*
X12281938Y-5641716D01*
G37*
G36*
X2281938Y-4671716D02*
X2302556Y-4677970D01*
X2321556Y-4688126D01*
X2338208Y-4701792D01*
X2351874Y-4718444D01*
X2362030Y-4737444D01*
X2368284Y-4758062D01*
X2371000Y-4785640D01*
X2371000Y-5244360D01*
X2368284Y-5271938D01*
X2362030Y-5292556D01*
X2351874Y-5311556D01*
X2338208Y-5328208D01*
X2321556Y-5341874D01*
X2302556Y-5352030D01*
X2281938Y-5358284D01*
X2254360Y-5361000D01*
X1745640Y-5361000D01*
X1718062Y-5358284D01*
X1697444Y-5352030D01*
X1678444Y-5341874D01*
X1661792Y-5328208D01*
X1648126Y-5311556D01*
X1637970Y-5292556D01*
X1631716Y-5271938D01*
X1629000Y-5244360D01*
X1629000Y-4785640D01*
X1631716Y-4758062D01*
X1637970Y-4737444D01*
X1648126Y-4718444D01*
X1661792Y-4701792D01*
X1678444Y-4688126D01*
X1697444Y-4677970D01*
X1718062Y-4671716D01*
X1745640Y-4669000D01*
X2254360Y-4669000D01*
X2281938Y-4671716D01*
X2281938Y-4671716D01*
G37*
G36*
X9281938Y-4671716D02*
X9302556Y-4677970D01*
X9321556Y-4688126D01*
X9338208Y-4701792D01*
X9351874Y-4718444D01*
X9362030Y-4737444D01*
X9368284Y-4758062D01*
X9371000Y-4785640D01*
X9371000Y-5244360D01*
X9368284Y-5271938D01*
X9362030Y-5292556D01*
X9351874Y-5311556D01*
X9338208Y-5328208D01*
X9321556Y-5341874D01*
X9302556Y-5352030D01*
X9281938Y-5358284D01*
X9254360Y-5361000D01*
X8745640Y-5361000D01*
X8718062Y-5358284D01*
X8697444Y-5352030D01*
X8678444Y-5341874D01*
X8661792Y-5328208D01*
X8648126Y-5311556D01*
X8637970Y-5292556D01*
X8631716Y-5271938D01*
X8629000Y-5244360D01*
X8629000Y-4785640D01*
X8631716Y-4758062D01*
X8637970Y-4737444D01*
X8648126Y-4718444D01*
X8661792Y-4701792D01*
X8678444Y-4688126D01*
X8697444Y-4677970D01*
X8718062Y-4671716D01*
X8745640Y-4669000D01*
X9254360Y-4669000D01*
X9281938Y-4671716D01*
X9281938Y-4671716D01*
G37*
G36*
X12281938Y-4671716D02*
X12302556Y-4677970D01*
X12321556Y-4688126D01*
X12338208Y-4701792D01*
X12351874Y-4718444D01*
X12362030Y-4737444D01*
X12368284Y-4758062D01*
X12371000Y-4785640D01*
X12371000Y-5244360D01*
X12368284Y-5271938D01*
X12362030Y-5292556D01*
X12351874Y-5311556D01*
X12338208Y-5328208D01*
X12321556Y-5341874D01*
X12302556Y-5352030D01*
X12281938Y-5358284D01*
X12254360Y-5361000D01*
X11745640Y-5361000D01*
X11718062Y-5358284D01*
X11697444Y-5352030D01*
X11678444Y-5341874D01*
X11661792Y-5328208D01*
X11648126Y-5311556D01*
X11637970Y-5292556D01*
X11631716Y-5271938D01*
X11629000Y-5244360D01*
X11629000Y-4785640D01*
X11631716Y-4758062D01*
X11637970Y-4737444D01*
X11648126Y-4718444D01*
X11661792Y-4701792D01*
X11678444Y-4688126D01*
X11697444Y-4677970D01*
X11718062Y-4671716D01*
X11745640Y-4669000D01*
X12254360Y-4669000D01*
X12281938Y-4671716D01*
X12281938Y-4671716D01*
G37*
G36*
X10781938Y-4671716D02*
X10802556Y-4677970D01*
X10821556Y-4688126D01*
X10838208Y-4701792D01*
X10851874Y-4718444D01*
X10862030Y-4737444D01*
X10868284Y-4758062D01*
X10871000Y-4785640D01*
X10871000Y-5244360D01*
X10868284Y-5271938D01*
X10862030Y-5292556D01*
X10851874Y-5311556D01*
X10838208Y-5328208D01*
X10821556Y-5341874D01*
X10802556Y-5352030D01*
X10781938Y-5358284D01*
X10754360Y-5361000D01*
X10245640Y-5361000D01*
X10218062Y-5358284D01*
X10197444Y-5352030D01*
X10178444Y-5341874D01*
X10161792Y-5328208D01*
X10148126Y-5311556D01*
X10137970Y-5292556D01*
X10131716Y-5271938D01*
X10129000Y-5244360D01*
X10129000Y-4785640D01*
X10131716Y-4758062D01*
X10137970Y-4737444D01*
X10148126Y-4718444D01*
X10161792Y-4701792D01*
X10178444Y-4688126D01*
X10197444Y-4677970D01*
X10218062Y-4671716D01*
X10245640Y-4669000D01*
X10754360Y-4669000D01*
X10781938Y-4671716D01*
X10781938Y-4671716D01*
G37*
G36*
X8813259Y-2468223D02*
X-3593543Y-2468223D01*
X-3593543Y-1147023D01*
X8813259Y-1147023D01*
X8813259Y-2468223D01*
X8813259Y-2468223D01*
G37*
G36*
X-12228062Y-1631716D02*
X-12207444Y-1637970D01*
X-12188444Y-1648126D01*
X-12171792Y-1661792D01*
X-12158126Y-1678444D01*
X-12147970Y-1697444D01*
X-12141716Y-1718062D01*
X-12139000Y-1745640D01*
X-12139000Y-2254360D01*
X-12141716Y-2281938D01*
X-12147970Y-2302556D01*
X-12158126Y-2321556D01*
X-12171792Y-2338208D01*
X-12188444Y-2351874D01*
X-12207444Y-2362030D01*
X-12228062Y-2368284D01*
X-12255640Y-2371000D01*
X-12714360Y-2371000D01*
X-12741938Y-2368284D01*
X-12762556Y-2362030D01*
X-12781556Y-2351874D01*
X-12798208Y-2338208D01*
X-12811874Y-2321556D01*
X-12822030Y-2302556D01*
X-12828284Y-2281938D01*
X-12831000Y-2254360D01*
X-12831000Y-1745640D01*
X-12828284Y-1718062D01*
X-12822030Y-1697444D01*
X-12811874Y-1678444D01*
X-12798208Y-1661792D01*
X-12781556Y-1648126D01*
X-12762556Y-1637970D01*
X-12741938Y-1631716D01*
X-12714360Y-1629000D01*
X-12255640Y-1629000D01*
X-12228062Y-1631716D01*
X-12228062Y-1631716D01*
G37*
G36*
X-11258062Y-1631716D02*
X-11237444Y-1637970D01*
X-11218444Y-1648126D01*
X-11201792Y-1661792D01*
X-11188126Y-1678444D01*
X-11177970Y-1697444D01*
X-11171716Y-1718062D01*
X-11169000Y-1745640D01*
X-11169000Y-2254360D01*
X-11171716Y-2281938D01*
X-11177970Y-2302556D01*
X-11188126Y-2321556D01*
X-11201792Y-2338208D01*
X-11218444Y-2351874D01*
X-11237444Y-2362030D01*
X-11258062Y-2368284D01*
X-11285640Y-2371000D01*
X-11744360Y-2371000D01*
X-11771938Y-2368284D01*
X-11792556Y-2362030D01*
X-11811556Y-2351874D01*
X-11828208Y-2338208D01*
X-11841874Y-2321556D01*
X-11852030Y-2302556D01*
X-11858284Y-2281938D01*
X-11861000Y-2254360D01*
X-11861000Y-1745640D01*
X-11858284Y-1718062D01*
X-11852030Y-1697444D01*
X-11841874Y-1678444D01*
X-11828208Y-1661792D01*
X-11811556Y-1648126D01*
X-11792556Y-1637970D01*
X-11771938Y-1631716D01*
X-11744360Y-1629000D01*
X-11285640Y-1629000D01*
X-11258062Y-1631716D01*
X-11258062Y-1631716D01*
G37*
G36*
X-9266357Y-729781D02*
X-9120585Y-790162D01*
X-8989389Y-877824D01*
X-8877824Y-989389D01*
X-8790162Y-1120585D01*
X-8729781Y-1266357D01*
X-8699000Y-1421107D01*
X-8699000Y-1578893D01*
X-8729781Y-1733643D01*
X-8790162Y-1879415D01*
X-8877824Y-2010611D01*
X-8989389Y-2122176D01*
X-9120585Y-2209838D01*
X-9266357Y-2270219D01*
X-9421107Y-2301000D01*
X-9578893Y-2301000D01*
X-9733643Y-2270219D01*
X-9879415Y-2209838D01*
X-10010611Y-2122176D01*
X-10122176Y-2010611D01*
X-10209838Y-1879415D01*
X-10270219Y-1733643D01*
X-10301000Y-1578893D01*
X-10301000Y-1421107D01*
X-10270219Y-1266357D01*
X-10209838Y-1120585D01*
X-10122176Y-989389D01*
X-10010611Y-877824D01*
X-9879415Y-790162D01*
X-9733643Y-729781D01*
X-9578893Y-699000D01*
X-9421107Y-699000D01*
X-9266357Y-729781D01*
X-9266357Y-729781D01*
G37*
G36*
X-18499000Y-1801000D02*
X-19501000Y-1801000D01*
X-19501000Y-899000D01*
X-18499000Y-899000D01*
X-18499000Y-1801000D01*
X-18499000Y-1801000D01*
G37*
G36*
X-16766357Y-229781D02*
X-16620585Y-290162D01*
X-16489389Y-377824D01*
X-16377824Y-489389D01*
X-16290162Y-620585D01*
X-16229781Y-766357D01*
X-16199000Y-921107D01*
X-16199000Y-1078893D01*
X-16229781Y-1233643D01*
X-16290162Y-1379415D01*
X-16377824Y-1510611D01*
X-16489389Y-1622176D01*
X-16620585Y-1709838D01*
X-16766357Y-1770219D01*
X-16921107Y-1801000D01*
X-17078893Y-1801000D01*
X-17233643Y-1770219D01*
X-17379415Y-1709838D01*
X-17510611Y-1622176D01*
X-17622176Y-1510611D01*
X-17709838Y-1379415D01*
X-17770219Y-1233643D01*
X-17801000Y-1078893D01*
X-17801000Y-921107D01*
X-17770219Y-766357D01*
X-17709838Y-620585D01*
X-17622176Y-489389D01*
X-17510611Y-377824D01*
X-17379415Y-290162D01*
X-17233643Y-229781D01*
X-17078893Y-199000D01*
X-16921107Y-199000D01*
X-16766357Y-229781D01*
X-16766357Y-229781D01*
G37*
G36*
X-25949699Y483858D02*
X-25883515Y477340D01*
X-25770289Y442993D01*
X-25713675Y425820D01*
X-25575055Y351725D01*
X-25557151Y342155D01*
X-25521413Y312825D01*
X-25419956Y229563D01*
X-25348733Y142776D01*
X-25307364Y92368D01*
X-25307363Y92366D01*
X-25223699Y-64156D01*
X-25223699Y-64157D01*
X-25172179Y-233996D01*
X-25154783Y-410623D01*
X-25172179Y-587250D01*
X-25182291Y-620584D01*
X-25223699Y-757090D01*
X-25282809Y-867676D01*
X-25307364Y-913614D01*
X-25336694Y-949352D01*
X-25419956Y-1050809D01*
X-25504980Y-1120585D01*
X-25557151Y-1163401D01*
X-25557153Y-1163402D01*
X-25713675Y-1247066D01*
X-25770289Y-1264239D01*
X-25883515Y-1298586D01*
X-25949700Y-1305105D01*
X-26015882Y-1311623D01*
X-26104402Y-1311623D01*
X-26170584Y-1305105D01*
X-26236769Y-1298586D01*
X-26349995Y-1264239D01*
X-26406609Y-1247066D01*
X-26563131Y-1163402D01*
X-26563133Y-1163401D01*
X-26615304Y-1120585D01*
X-26700328Y-1050809D01*
X-26783590Y-949352D01*
X-26812920Y-913614D01*
X-26837475Y-867676D01*
X-26896585Y-757090D01*
X-26937993Y-620584D01*
X-26948105Y-587250D01*
X-26965501Y-410623D01*
X-26948105Y-233996D01*
X-26896585Y-64157D01*
X-26896585Y-64156D01*
X-26812921Y92366D01*
X-26812920Y92368D01*
X-26771551Y142776D01*
X-26700328Y229563D01*
X-26598871Y312825D01*
X-26563133Y342155D01*
X-26545229Y351725D01*
X-26406609Y425820D01*
X-26349995Y442993D01*
X-26236769Y477340D01*
X-26170585Y483858D01*
X-26104402Y490377D01*
X-26015882Y490377D01*
X-25949699Y483858D01*
X-25949699Y483858D01*
G37*
G36*
X-23409699Y483858D02*
X-23343515Y477340D01*
X-23230289Y442993D01*
X-23173675Y425820D01*
X-23035055Y351725D01*
X-23017151Y342155D01*
X-22981413Y312825D01*
X-22879956Y229563D01*
X-22808733Y142776D01*
X-22767364Y92368D01*
X-22767363Y92366D01*
X-22683699Y-64156D01*
X-22683699Y-64157D01*
X-22632179Y-233996D01*
X-22614783Y-410623D01*
X-22632179Y-587250D01*
X-22642291Y-620584D01*
X-22683699Y-757090D01*
X-22742809Y-867676D01*
X-22767364Y-913614D01*
X-22796694Y-949352D01*
X-22879956Y-1050809D01*
X-22964980Y-1120585D01*
X-23017151Y-1163401D01*
X-23017153Y-1163402D01*
X-23173675Y-1247066D01*
X-23230289Y-1264239D01*
X-23343515Y-1298586D01*
X-23409700Y-1305105D01*
X-23475882Y-1311623D01*
X-23564402Y-1311623D01*
X-23630584Y-1305105D01*
X-23696769Y-1298586D01*
X-23809995Y-1264239D01*
X-23866609Y-1247066D01*
X-24023131Y-1163402D01*
X-24023133Y-1163401D01*
X-24075304Y-1120585D01*
X-24160328Y-1050809D01*
X-24243590Y-949352D01*
X-24272920Y-913614D01*
X-24297475Y-867676D01*
X-24356585Y-757090D01*
X-24397993Y-620584D01*
X-24408105Y-587250D01*
X-24425501Y-410623D01*
X-24408105Y-233996D01*
X-24356585Y-64157D01*
X-24356585Y-64156D01*
X-24272921Y92366D01*
X-24272920Y92368D01*
X-24231551Y142776D01*
X-24160328Y229563D01*
X-24058871Y312825D01*
X-24023133Y342155D01*
X-24005229Y351725D01*
X-23866609Y425820D01*
X-23809995Y442993D01*
X-23696769Y477340D01*
X-23630585Y483858D01*
X-23564402Y490377D01*
X-23475882Y490377D01*
X-23409699Y483858D01*
X-23409699Y483858D01*
G37*
G36*
X-12228062Y-131716D02*
X-12207444Y-137970D01*
X-12188444Y-148126D01*
X-12171792Y-161792D01*
X-12158126Y-178444D01*
X-12147970Y-197444D01*
X-12141716Y-218062D01*
X-12139000Y-245640D01*
X-12139000Y-754360D01*
X-12141716Y-781938D01*
X-12147970Y-802556D01*
X-12158126Y-821556D01*
X-12171792Y-838208D01*
X-12188444Y-851874D01*
X-12207444Y-862030D01*
X-12228062Y-868284D01*
X-12255640Y-871000D01*
X-12714360Y-871000D01*
X-12741938Y-868284D01*
X-12762556Y-862030D01*
X-12781556Y-851874D01*
X-12798208Y-838208D01*
X-12811874Y-821556D01*
X-12822030Y-802556D01*
X-12828284Y-781938D01*
X-12831000Y-754360D01*
X-12831000Y-245640D01*
X-12828284Y-218062D01*
X-12822030Y-197444D01*
X-12811874Y-178444D01*
X-12798208Y-161792D01*
X-12781556Y-148126D01*
X-12762556Y-137970D01*
X-12741938Y-131716D01*
X-12714360Y-129000D01*
X-12255640Y-129000D01*
X-12228062Y-131716D01*
X-12228062Y-131716D01*
G37*
G36*
X-11258062Y-131716D02*
X-11237444Y-137970D01*
X-11218444Y-148126D01*
X-11201792Y-161792D01*
X-11188126Y-178444D01*
X-11177970Y-197444D01*
X-11171716Y-218062D01*
X-11169000Y-245640D01*
X-11169000Y-754360D01*
X-11171716Y-781938D01*
X-11177970Y-802556D01*
X-11188126Y-821556D01*
X-11201792Y-838208D01*
X-11218444Y-851874D01*
X-11237444Y-862030D01*
X-11258062Y-868284D01*
X-11285640Y-871000D01*
X-11744360Y-871000D01*
X-11771938Y-868284D01*
X-11792556Y-862030D01*
X-11811556Y-851874D01*
X-11828208Y-838208D01*
X-11841874Y-821556D01*
X-11852030Y-802556D01*
X-11858284Y-781938D01*
X-11861000Y-754360D01*
X-11861000Y-245640D01*
X-11858284Y-218062D01*
X-11852030Y-197444D01*
X-11841874Y-178444D01*
X-11828208Y-161792D01*
X-11811556Y-148126D01*
X-11792556Y-137970D01*
X-11771938Y-131716D01*
X-11744360Y-129000D01*
X-11285640Y-129000D01*
X-11258062Y-131716D01*
X-11258062Y-131716D01*
G37*
G36*
X-20499000Y-851000D02*
X-21501000Y-851000D01*
X-21501000Y51000D01*
X-20499000Y51000D01*
X-20499000Y-851000D01*
X-20499000Y-851000D01*
G37*
G36*
X-4476542Y-264024D02*
X-5797742Y-264024D01*
X-5797742Y12142778D01*
X-4476542Y12142778D01*
X-4476542Y-264024D01*
X-4476542Y-264024D01*
G37*
G36*
X11017458Y-264024D02*
X9696258Y-264024D01*
X9696258Y12142778D01*
X11017458Y12142778D01*
X11017458Y-264024D01*
X11017458Y-264024D01*
G37*
G36*
X-18499000Y99000D02*
X-19501000Y99000D01*
X-19501000Y1001000D01*
X-18499000Y1001000D01*
X-18499000Y99000D01*
X-18499000Y99000D01*
G37*
G36*
X-12228062Y1368284D02*
X-12207444Y1362030D01*
X-12188444Y1351874D01*
X-12171792Y1338208D01*
X-12158126Y1321556D01*
X-12147970Y1302556D01*
X-12141716Y1281938D01*
X-12139000Y1254360D01*
X-12139000Y745640D01*
X-12141716Y718062D01*
X-12147970Y697444D01*
X-12158126Y678444D01*
X-12171792Y661792D01*
X-12188444Y648126D01*
X-12207444Y637970D01*
X-12228062Y631716D01*
X-12255640Y629000D01*
X-12714360Y629000D01*
X-12741938Y631716D01*
X-12762556Y637970D01*
X-12781556Y648126D01*
X-12798208Y661792D01*
X-12811874Y678444D01*
X-12822030Y697444D01*
X-12828284Y718062D01*
X-12831000Y745640D01*
X-12831000Y1254360D01*
X-12828284Y1281938D01*
X-12822030Y1302556D01*
X-12811874Y1321556D01*
X-12798208Y1338208D01*
X-12781556Y1351874D01*
X-12762556Y1362030D01*
X-12741938Y1368284D01*
X-12714360Y1371000D01*
X-12255640Y1371000D01*
X-12228062Y1368284D01*
X-12228062Y1368284D01*
G37*
G36*
X-11258062Y1368284D02*
X-11237444Y1362030D01*
X-11218444Y1351874D01*
X-11201792Y1338208D01*
X-11188126Y1321556D01*
X-11177970Y1302556D01*
X-11171716Y1281938D01*
X-11169000Y1254360D01*
X-11169000Y745640D01*
X-11171716Y718062D01*
X-11177970Y697444D01*
X-11188126Y678444D01*
X-11201792Y661792D01*
X-11218444Y648126D01*
X-11237444Y637970D01*
X-11258062Y631716D01*
X-11285640Y629000D01*
X-11744360Y629000D01*
X-11771938Y631716D01*
X-11792556Y637970D01*
X-11811556Y648126D01*
X-11828208Y661792D01*
X-11841874Y678444D01*
X-11852030Y697444D01*
X-11858284Y718062D01*
X-11861000Y745640D01*
X-11861000Y1254360D01*
X-11858284Y1281938D01*
X-11852030Y1302556D01*
X-11841874Y1321556D01*
X-11828208Y1338208D01*
X-11811556Y1351874D01*
X-11792556Y1362030D01*
X-11771938Y1368284D01*
X-11744360Y1371000D01*
X-11285640Y1371000D01*
X-11258062Y1368284D01*
X-11258062Y1368284D01*
G37*
G36*
X-23409699Y3023858D02*
X-23343515Y3017340D01*
X-23231280Y2983294D01*
X-23173675Y2965820D01*
X-23070388Y2910611D01*
X-23017151Y2882155D01*
X-22992629Y2862030D01*
X-22879956Y2769563D01*
X-22821227Y2698000D01*
X-22767364Y2632368D01*
X-22767363Y2632366D01*
X-22683699Y2475844D01*
X-22683699Y2475843D01*
X-22632179Y2306004D01*
X-22614783Y2129377D01*
X-22632179Y1952750D01*
X-22666526Y1839524D01*
X-22683699Y1782910D01*
X-22686418Y1777824D01*
X-22767364Y1626386D01*
X-22789839Y1599000D01*
X-22879956Y1489191D01*
X-22981413Y1405929D01*
X-23017151Y1376599D01*
X-23017153Y1376598D01*
X-23173675Y1292934D01*
X-23209925Y1281938D01*
X-23343515Y1241414D01*
X-23398729Y1235976D01*
X-23475882Y1228377D01*
X-23564402Y1228377D01*
X-23641555Y1235976D01*
X-23696769Y1241414D01*
X-23830359Y1281938D01*
X-23866609Y1292934D01*
X-24023131Y1376598D01*
X-24023133Y1376599D01*
X-24058871Y1405929D01*
X-24160328Y1489191D01*
X-24250445Y1599000D01*
X-24272920Y1626386D01*
X-24353866Y1777824D01*
X-24356585Y1782910D01*
X-24373758Y1839524D01*
X-24408105Y1952750D01*
X-24425501Y2129377D01*
X-24408105Y2306004D01*
X-24356585Y2475843D01*
X-24356585Y2475844D01*
X-24272921Y2632366D01*
X-24272920Y2632368D01*
X-24219057Y2698000D01*
X-24160328Y2769563D01*
X-24047655Y2862030D01*
X-24023133Y2882155D01*
X-23969896Y2910611D01*
X-23866609Y2965820D01*
X-23809004Y2983294D01*
X-23696769Y3017340D01*
X-23630585Y3023858D01*
X-23564402Y3030377D01*
X-23475882Y3030377D01*
X-23409699Y3023858D01*
X-23409699Y3023858D01*
G37*
G36*
X-25949699Y3023858D02*
X-25883515Y3017340D01*
X-25771280Y2983294D01*
X-25713675Y2965820D01*
X-25610388Y2910611D01*
X-25557151Y2882155D01*
X-25532629Y2862030D01*
X-25419956Y2769563D01*
X-25361227Y2698000D01*
X-25307364Y2632368D01*
X-25307363Y2632366D01*
X-25223699Y2475844D01*
X-25223699Y2475843D01*
X-25172179Y2306004D01*
X-25154783Y2129377D01*
X-25172179Y1952750D01*
X-25206526Y1839524D01*
X-25223699Y1782910D01*
X-25226418Y1777824D01*
X-25307364Y1626386D01*
X-25329839Y1599000D01*
X-25419956Y1489191D01*
X-25521413Y1405929D01*
X-25557151Y1376599D01*
X-25557153Y1376598D01*
X-25713675Y1292934D01*
X-25749925Y1281938D01*
X-25883515Y1241414D01*
X-25938729Y1235976D01*
X-26015882Y1228377D01*
X-26104402Y1228377D01*
X-26181555Y1235976D01*
X-26236769Y1241414D01*
X-26370359Y1281938D01*
X-26406609Y1292934D01*
X-26563131Y1376598D01*
X-26563133Y1376599D01*
X-26598871Y1405929D01*
X-26700328Y1489191D01*
X-26790445Y1599000D01*
X-26812920Y1626386D01*
X-26893866Y1777824D01*
X-26896585Y1782910D01*
X-26913758Y1839524D01*
X-26948105Y1952750D01*
X-26965501Y2129377D01*
X-26948105Y2306004D01*
X-26896585Y2475843D01*
X-26896585Y2475844D01*
X-26812921Y2632366D01*
X-26812920Y2632368D01*
X-26759057Y2698000D01*
X-26700328Y2769563D01*
X-26587655Y2862030D01*
X-26563133Y2882155D01*
X-26509896Y2910611D01*
X-26406609Y2965820D01*
X-26349004Y2983294D01*
X-26236769Y3017340D01*
X-26170585Y3023858D01*
X-26104402Y3030377D01*
X-26015882Y3030377D01*
X-25949699Y3023858D01*
X-25949699Y3023858D01*
G37*
G36*
X-9566357Y3170219D02*
X-9420585Y3109838D01*
X-9289389Y3022176D01*
X-9177824Y2910611D01*
X-9090162Y2779415D01*
X-9029781Y2633643D01*
X-8999000Y2478893D01*
X-8999000Y2321107D01*
X-9029781Y2166357D01*
X-9090162Y2020585D01*
X-9177824Y1889389D01*
X-9289389Y1777824D01*
X-9420585Y1690162D01*
X-9566357Y1629781D01*
X-9721107Y1599000D01*
X-9878893Y1599000D01*
X-10033643Y1629781D01*
X-10179415Y1690162D01*
X-10310611Y1777824D01*
X-10422176Y1889389D01*
X-10509838Y2020585D01*
X-10570219Y2166357D01*
X-10601000Y2321107D01*
X-10601000Y2478893D01*
X-10570219Y2633643D01*
X-10509838Y2779415D01*
X-10422176Y2910611D01*
X-10310611Y3022176D01*
X-10179415Y3109838D01*
X-10033643Y3170219D01*
X-9878893Y3201000D01*
X-9721107Y3201000D01*
X-9566357Y3170219D01*
X-9566357Y3170219D01*
G37*
G36*
X-11258062Y2868284D02*
X-11237444Y2862030D01*
X-11218444Y2851874D01*
X-11201792Y2838208D01*
X-11188126Y2821556D01*
X-11177970Y2802556D01*
X-11171716Y2781938D01*
X-11169000Y2754360D01*
X-11169000Y2245640D01*
X-11171716Y2218062D01*
X-11177970Y2197444D01*
X-11188126Y2178444D01*
X-11201792Y2161792D01*
X-11218444Y2148126D01*
X-11237444Y2137970D01*
X-11258062Y2131716D01*
X-11285640Y2129000D01*
X-11744360Y2129000D01*
X-11771938Y2131716D01*
X-11792556Y2137970D01*
X-11811556Y2148126D01*
X-11828208Y2161792D01*
X-11841874Y2178444D01*
X-11852030Y2197444D01*
X-11858284Y2218062D01*
X-11861000Y2245640D01*
X-11861000Y2754360D01*
X-11858284Y2781938D01*
X-11852030Y2802556D01*
X-11841874Y2821556D01*
X-11828208Y2838208D01*
X-11811556Y2851874D01*
X-11792556Y2862030D01*
X-11771938Y2868284D01*
X-11744360Y2871000D01*
X-11285640Y2871000D01*
X-11258062Y2868284D01*
X-11258062Y2868284D01*
G37*
G36*
X-12228062Y2868284D02*
X-12207444Y2862030D01*
X-12188444Y2851874D01*
X-12171792Y2838208D01*
X-12158126Y2821556D01*
X-12147970Y2802556D01*
X-12141716Y2781938D01*
X-12139000Y2754360D01*
X-12139000Y2245640D01*
X-12141716Y2218062D01*
X-12147970Y2197444D01*
X-12158126Y2178444D01*
X-12171792Y2161792D01*
X-12188444Y2148126D01*
X-12207444Y2137970D01*
X-12228062Y2131716D01*
X-12255640Y2129000D01*
X-12714360Y2129000D01*
X-12741938Y2131716D01*
X-12762556Y2137970D01*
X-12781556Y2148126D01*
X-12798208Y2161792D01*
X-12811874Y2178444D01*
X-12822030Y2197444D01*
X-12828284Y2218062D01*
X-12831000Y2245640D01*
X-12831000Y2754360D01*
X-12828284Y2781938D01*
X-12822030Y2802556D01*
X-12811874Y2821556D01*
X-12798208Y2838208D01*
X-12781556Y2851874D01*
X-12762556Y2862030D01*
X-12741938Y2868284D01*
X-12714360Y2871000D01*
X-12255640Y2871000D01*
X-12228062Y2868284D01*
X-12228062Y2868284D01*
G37*
G36*
X24164499Y4096555D02*
X24201993Y4085181D01*
X24236557Y4066706D01*
X24266847Y4041847D01*
X24291706Y4011557D01*
X24310181Y3976993D01*
X24321555Y3939499D01*
X24326000Y3894362D01*
X24326000Y3155638D01*
X24321555Y3110501D01*
X24310181Y3073007D01*
X24291706Y3038443D01*
X24266847Y3008153D01*
X24236557Y2983294D01*
X24201993Y2964819D01*
X24164499Y2953445D01*
X24119362Y2949000D01*
X23480638Y2949000D01*
X23435501Y2953445D01*
X23398007Y2964819D01*
X23363443Y2983294D01*
X23333153Y3008153D01*
X23308294Y3038443D01*
X23289819Y3073007D01*
X23278445Y3110501D01*
X23274000Y3155638D01*
X23274000Y3894362D01*
X23278445Y3939499D01*
X23289819Y3976993D01*
X23308294Y4011557D01*
X23333153Y4041847D01*
X23363443Y4066706D01*
X23398007Y4085181D01*
X23435501Y4096555D01*
X23480638Y4101000D01*
X24119362Y4101000D01*
X24164499Y4096555D01*
X24164499Y4096555D01*
G37*
G36*
X22641938Y4068284D02*
X22662556Y4062030D01*
X22681556Y4051874D01*
X22698208Y4038208D01*
X22711874Y4021556D01*
X22722030Y4002556D01*
X22728284Y3981938D01*
X22731000Y3954360D01*
X22731000Y3445640D01*
X22728284Y3418062D01*
X22722030Y3397444D01*
X22711874Y3378444D01*
X22698208Y3361792D01*
X22681556Y3348126D01*
X22662556Y3337970D01*
X22641938Y3331716D01*
X22614360Y3329000D01*
X22155640Y3329000D01*
X22128062Y3331716D01*
X22107444Y3337970D01*
X22088444Y3348126D01*
X22071792Y3361792D01*
X22058126Y3378444D01*
X22047970Y3397444D01*
X22041716Y3418062D01*
X22039000Y3445640D01*
X22039000Y3954360D01*
X22041716Y3981938D01*
X22047970Y4002556D01*
X22058126Y4021556D01*
X22071792Y4038208D01*
X22088444Y4051874D01*
X22107444Y4062030D01*
X22128062Y4068284D01*
X22155640Y4071000D01*
X22614360Y4071000D01*
X22641938Y4068284D01*
X22641938Y4068284D01*
G37*
G36*
X21671938Y4068284D02*
X21692556Y4062030D01*
X21711556Y4051874D01*
X21728208Y4038208D01*
X21741874Y4021556D01*
X21752030Y4002556D01*
X21758284Y3981938D01*
X21761000Y3954360D01*
X21761000Y3445640D01*
X21758284Y3418062D01*
X21752030Y3397444D01*
X21741874Y3378444D01*
X21728208Y3361792D01*
X21711556Y3348126D01*
X21692556Y3337970D01*
X21671938Y3331716D01*
X21644360Y3329000D01*
X21185640Y3329000D01*
X21158062Y3331716D01*
X21137444Y3337970D01*
X21118444Y3348126D01*
X21101792Y3361792D01*
X21088126Y3378444D01*
X21077970Y3397444D01*
X21071716Y3418062D01*
X21069000Y3445640D01*
X21069000Y3954360D01*
X21071716Y3981938D01*
X21077970Y4002556D01*
X21088126Y4021556D01*
X21101792Y4038208D01*
X21118444Y4051874D01*
X21137444Y4062030D01*
X21158062Y4068284D01*
X21185640Y4071000D01*
X21644360Y4071000D01*
X21671938Y4068284D01*
X21671938Y4068284D01*
G37*
G36*
X-12228062Y4368284D02*
X-12207444Y4362030D01*
X-12188444Y4351874D01*
X-12171792Y4338208D01*
X-12158126Y4321556D01*
X-12147970Y4302556D01*
X-12141716Y4281938D01*
X-12139000Y4254360D01*
X-12139000Y3745640D01*
X-12141716Y3718062D01*
X-12147970Y3697444D01*
X-12158126Y3678444D01*
X-12171792Y3661792D01*
X-12188444Y3648126D01*
X-12207444Y3637970D01*
X-12228062Y3631716D01*
X-12255640Y3629000D01*
X-12714360Y3629000D01*
X-12741938Y3631716D01*
X-12762556Y3637970D01*
X-12781556Y3648126D01*
X-12798208Y3661792D01*
X-12811874Y3678444D01*
X-12822030Y3697444D01*
X-12828284Y3718062D01*
X-12831000Y3745640D01*
X-12831000Y4254360D01*
X-12828284Y4281938D01*
X-12822030Y4302556D01*
X-12811874Y4321556D01*
X-12798208Y4338208D01*
X-12781556Y4351874D01*
X-12762556Y4362030D01*
X-12741938Y4368284D01*
X-12714360Y4371000D01*
X-12255640Y4371000D01*
X-12228062Y4368284D01*
X-12228062Y4368284D01*
G37*
G36*
X-11258062Y4368284D02*
X-11237444Y4362030D01*
X-11218444Y4351874D01*
X-11201792Y4338208D01*
X-11188126Y4321556D01*
X-11177970Y4302556D01*
X-11171716Y4281938D01*
X-11169000Y4254360D01*
X-11169000Y3745640D01*
X-11171716Y3718062D01*
X-11177970Y3697444D01*
X-11188126Y3678444D01*
X-11201792Y3661792D01*
X-11218444Y3648126D01*
X-11237444Y3637970D01*
X-11258062Y3631716D01*
X-11285640Y3629000D01*
X-11744360Y3629000D01*
X-11771938Y3631716D01*
X-11792556Y3637970D01*
X-11811556Y3648126D01*
X-11828208Y3661792D01*
X-11841874Y3678444D01*
X-11852030Y3697444D01*
X-11858284Y3718062D01*
X-11861000Y3745640D01*
X-11861000Y4254360D01*
X-11858284Y4281938D01*
X-11852030Y4302556D01*
X-11841874Y4321556D01*
X-11828208Y4338208D01*
X-11811556Y4351874D01*
X-11792556Y4362030D01*
X-11771938Y4368284D01*
X-11744360Y4371000D01*
X-11285640Y4371000D01*
X-11258062Y4368284D01*
X-11258062Y4368284D01*
G37*
G36*
X-23409699Y5563858D02*
X-23343515Y5557340D01*
X-23230289Y5522993D01*
X-23173675Y5505820D01*
X-23077402Y5454360D01*
X-23017151Y5422155D01*
X-22987718Y5398000D01*
X-22879956Y5309563D01*
X-22819418Y5235796D01*
X-22767364Y5172368D01*
X-22767363Y5172366D01*
X-22683699Y5015844D01*
X-22667366Y4962000D01*
X-22632179Y4846004D01*
X-22614783Y4669377D01*
X-22632179Y4492750D01*
X-22666526Y4379524D01*
X-22683699Y4322910D01*
X-22732425Y4231751D01*
X-22767364Y4166386D01*
X-22796694Y4130648D01*
X-22879956Y4029191D01*
X-22971139Y3954360D01*
X-23017151Y3916599D01*
X-23017153Y3916598D01*
X-23173675Y3832934D01*
X-23230289Y3815761D01*
X-23343515Y3781414D01*
X-23409700Y3774895D01*
X-23475882Y3768377D01*
X-23564402Y3768377D01*
X-23630584Y3774895D01*
X-23696769Y3781414D01*
X-23809995Y3815761D01*
X-23866609Y3832934D01*
X-24023131Y3916598D01*
X-24023133Y3916599D01*
X-24069145Y3954360D01*
X-24160328Y4029191D01*
X-24243590Y4130648D01*
X-24272920Y4166386D01*
X-24307859Y4231751D01*
X-24356585Y4322910D01*
X-24373758Y4379524D01*
X-24408105Y4492750D01*
X-24425501Y4669377D01*
X-24408105Y4846004D01*
X-24372918Y4962000D01*
X-24356585Y5015844D01*
X-24272921Y5172366D01*
X-24272920Y5172368D01*
X-24220866Y5235796D01*
X-24160328Y5309563D01*
X-24052566Y5398000D01*
X-24023133Y5422155D01*
X-23962882Y5454360D01*
X-23866609Y5505820D01*
X-23809995Y5522993D01*
X-23696769Y5557340D01*
X-23630584Y5563859D01*
X-23564402Y5570377D01*
X-23475882Y5570377D01*
X-23409699Y5563858D01*
X-23409699Y5563858D01*
G37*
G36*
X-25949699Y5563858D02*
X-25883515Y5557340D01*
X-25770289Y5522993D01*
X-25713675Y5505820D01*
X-25617402Y5454360D01*
X-25557151Y5422155D01*
X-25527718Y5398000D01*
X-25419956Y5309563D01*
X-25359418Y5235796D01*
X-25307364Y5172368D01*
X-25307363Y5172366D01*
X-25223699Y5015844D01*
X-25207366Y4962000D01*
X-25172179Y4846004D01*
X-25154783Y4669377D01*
X-25172179Y4492750D01*
X-25206526Y4379524D01*
X-25223699Y4322910D01*
X-25272425Y4231751D01*
X-25307364Y4166386D01*
X-25336694Y4130648D01*
X-25419956Y4029191D01*
X-25511139Y3954360D01*
X-25557151Y3916599D01*
X-25557153Y3916598D01*
X-25713675Y3832934D01*
X-25770289Y3815761D01*
X-25883515Y3781414D01*
X-25949700Y3774895D01*
X-26015882Y3768377D01*
X-26104402Y3768377D01*
X-26170584Y3774895D01*
X-26236769Y3781414D01*
X-26349995Y3815761D01*
X-26406609Y3832934D01*
X-26563131Y3916598D01*
X-26563133Y3916599D01*
X-26609145Y3954360D01*
X-26700328Y4029191D01*
X-26783590Y4130648D01*
X-26812920Y4166386D01*
X-26847859Y4231751D01*
X-26896585Y4322910D01*
X-26913758Y4379524D01*
X-26948105Y4492750D01*
X-26965501Y4669377D01*
X-26948105Y4846004D01*
X-26912918Y4962000D01*
X-26896585Y5015844D01*
X-26812921Y5172366D01*
X-26812920Y5172368D01*
X-26760866Y5235796D01*
X-26700328Y5309563D01*
X-26592566Y5398000D01*
X-26563133Y5422155D01*
X-26502882Y5454360D01*
X-26406609Y5505820D01*
X-26349995Y5522993D01*
X-26236769Y5557340D01*
X-26170584Y5563859D01*
X-26104402Y5570377D01*
X-26015882Y5570377D01*
X-25949699Y5563858D01*
X-25949699Y5563858D01*
G37*
G36*
X24164499Y5846555D02*
X24201993Y5835181D01*
X24236557Y5816706D01*
X24266847Y5791847D01*
X24291706Y5761557D01*
X24310181Y5726993D01*
X24321555Y5689499D01*
X24326000Y5644362D01*
X24326000Y4905638D01*
X24321555Y4860501D01*
X24310181Y4823007D01*
X24291706Y4788443D01*
X24266847Y4758153D01*
X24236557Y4733294D01*
X24201993Y4714819D01*
X24164499Y4703445D01*
X24119362Y4699000D01*
X23480638Y4699000D01*
X23435501Y4703445D01*
X23398007Y4714819D01*
X23363443Y4733294D01*
X23333153Y4758153D01*
X23308294Y4788443D01*
X23289819Y4823007D01*
X23278445Y4860501D01*
X23274000Y4905638D01*
X23274000Y5644362D01*
X23278445Y5689499D01*
X23289819Y5726993D01*
X23308294Y5761557D01*
X23333153Y5791847D01*
X23363443Y5816706D01*
X23398007Y5835181D01*
X23435501Y5846555D01*
X23480638Y5851000D01*
X24119362Y5851000D01*
X24164499Y5846555D01*
X24164499Y5846555D01*
G37*
G36*
X21671938Y5568284D02*
X21692556Y5562030D01*
X21711556Y5551874D01*
X21728208Y5538208D01*
X21741874Y5521556D01*
X21752030Y5502556D01*
X21758284Y5481938D01*
X21761000Y5454360D01*
X21761000Y4945640D01*
X21758284Y4918062D01*
X21752030Y4897444D01*
X21741874Y4878444D01*
X21728208Y4861792D01*
X21711556Y4848126D01*
X21692556Y4837970D01*
X21671938Y4831716D01*
X21644360Y4829000D01*
X21185640Y4829000D01*
X21158062Y4831716D01*
X21137444Y4837970D01*
X21118444Y4848126D01*
X21101792Y4861792D01*
X21088126Y4878444D01*
X21077970Y4897444D01*
X21071716Y4918062D01*
X21069000Y4945640D01*
X21069000Y5454360D01*
X21071716Y5481938D01*
X21077970Y5502556D01*
X21088126Y5521556D01*
X21101792Y5538208D01*
X21118444Y5551874D01*
X21137444Y5562030D01*
X21158062Y5568284D01*
X21185640Y5571000D01*
X21644360Y5571000D01*
X21671938Y5568284D01*
X21671938Y5568284D01*
G37*
G36*
X22641938Y5568284D02*
X22662556Y5562030D01*
X22681556Y5551874D01*
X22698208Y5538208D01*
X22711874Y5521556D01*
X22722030Y5502556D01*
X22728284Y5481938D01*
X22731000Y5454360D01*
X22731000Y4945640D01*
X22728284Y4918062D01*
X22722030Y4897444D01*
X22711874Y4878444D01*
X22698208Y4861792D01*
X22681556Y4848126D01*
X22662556Y4837970D01*
X22641938Y4831716D01*
X22614360Y4829000D01*
X22155640Y4829000D01*
X22128062Y4831716D01*
X22107444Y4837970D01*
X22088444Y4848126D01*
X22071792Y4861792D01*
X22058126Y4878444D01*
X22047970Y4897444D01*
X22041716Y4918062D01*
X22039000Y4945640D01*
X22039000Y5454360D01*
X22041716Y5481938D01*
X22047970Y5502556D01*
X22058126Y5521556D01*
X22071792Y5538208D01*
X22088444Y5551874D01*
X22107444Y5562030D01*
X22128062Y5568284D01*
X22155640Y5571000D01*
X22614360Y5571000D01*
X22641938Y5568284D01*
X22641938Y5568284D01*
G37*
G36*
X-12228062Y5868284D02*
X-12207444Y5862030D01*
X-12188444Y5851874D01*
X-12171792Y5838208D01*
X-12158126Y5821556D01*
X-12147970Y5802556D01*
X-12141716Y5781938D01*
X-12139000Y5754360D01*
X-12139000Y5245640D01*
X-12141716Y5218062D01*
X-12147970Y5197444D01*
X-12158126Y5178444D01*
X-12171792Y5161792D01*
X-12188444Y5148126D01*
X-12207444Y5137970D01*
X-12228062Y5131716D01*
X-12255640Y5129000D01*
X-12714360Y5129000D01*
X-12741938Y5131716D01*
X-12762556Y5137970D01*
X-12781556Y5148126D01*
X-12798208Y5161792D01*
X-12811874Y5178444D01*
X-12822030Y5197444D01*
X-12828284Y5218062D01*
X-12831000Y5245640D01*
X-12831000Y5754360D01*
X-12828284Y5781938D01*
X-12822030Y5802556D01*
X-12811874Y5821556D01*
X-12798208Y5838208D01*
X-12781556Y5851874D01*
X-12762556Y5862030D01*
X-12741938Y5868284D01*
X-12714360Y5871000D01*
X-12255640Y5871000D01*
X-12228062Y5868284D01*
X-12228062Y5868284D01*
G37*
G36*
X-11258062Y5868284D02*
X-11237444Y5862030D01*
X-11218444Y5851874D01*
X-11201792Y5838208D01*
X-11188126Y5821556D01*
X-11177970Y5802556D01*
X-11171716Y5781938D01*
X-11169000Y5754360D01*
X-11169000Y5245640D01*
X-11171716Y5218062D01*
X-11177970Y5197444D01*
X-11188126Y5178444D01*
X-11201792Y5161792D01*
X-11218444Y5148126D01*
X-11237444Y5137970D01*
X-11258062Y5131716D01*
X-11285640Y5129000D01*
X-11744360Y5129000D01*
X-11771938Y5131716D01*
X-11792556Y5137970D01*
X-11811556Y5148126D01*
X-11828208Y5161792D01*
X-11841874Y5178444D01*
X-11852030Y5197444D01*
X-11858284Y5218062D01*
X-11861000Y5245640D01*
X-11861000Y5754360D01*
X-11858284Y5781938D01*
X-11852030Y5802556D01*
X-11841874Y5821556D01*
X-11828208Y5838208D01*
X-11811556Y5851874D01*
X-11792556Y5862030D01*
X-11771938Y5868284D01*
X-11744360Y5871000D01*
X-11285640Y5871000D01*
X-11258062Y5868284D01*
X-11258062Y5868284D01*
G37*
G36*
X-25949699Y8103858D02*
X-25883515Y8097340D01*
X-25770289Y8062993D01*
X-25713675Y8045820D01*
X-25575055Y7971725D01*
X-25557151Y7962155D01*
X-25521413Y7932825D01*
X-25419956Y7849563D01*
X-25336694Y7748106D01*
X-25307364Y7712368D01*
X-25307363Y7712366D01*
X-25223699Y7555844D01*
X-25223699Y7555843D01*
X-25172179Y7386004D01*
X-25154783Y7209377D01*
X-25172179Y7032750D01*
X-25206526Y6919524D01*
X-25223699Y6862910D01*
X-25256257Y6802000D01*
X-25307364Y6706386D01*
X-25314703Y6697444D01*
X-25419956Y6569191D01*
X-25521413Y6485929D01*
X-25557151Y6456599D01*
X-25557153Y6456598D01*
X-25713675Y6372934D01*
X-25770289Y6355761D01*
X-25883515Y6321414D01*
X-25949700Y6314895D01*
X-26015882Y6308377D01*
X-26104402Y6308377D01*
X-26170584Y6314895D01*
X-26236769Y6321414D01*
X-26349995Y6355761D01*
X-26406609Y6372934D01*
X-26563131Y6456598D01*
X-26563133Y6456599D01*
X-26598871Y6485929D01*
X-26700328Y6569191D01*
X-26805581Y6697444D01*
X-26812920Y6706386D01*
X-26864027Y6802000D01*
X-26896585Y6862910D01*
X-26913758Y6919524D01*
X-26948105Y7032750D01*
X-26965501Y7209377D01*
X-26948105Y7386004D01*
X-26896585Y7555843D01*
X-26896585Y7555844D01*
X-26812921Y7712366D01*
X-26812920Y7712368D01*
X-26783590Y7748106D01*
X-26700328Y7849563D01*
X-26598871Y7932825D01*
X-26563133Y7962155D01*
X-26545229Y7971725D01*
X-26406609Y8045820D01*
X-26349995Y8062993D01*
X-26236769Y8097340D01*
X-26170585Y8103858D01*
X-26104402Y8110377D01*
X-26015882Y8110377D01*
X-25949699Y8103858D01*
X-25949699Y8103858D01*
G37*
G36*
X-23409699Y8103858D02*
X-23343515Y8097340D01*
X-23230289Y8062993D01*
X-23173675Y8045820D01*
X-23035055Y7971725D01*
X-23017151Y7962155D01*
X-22981413Y7932825D01*
X-22879956Y7849563D01*
X-22796694Y7748106D01*
X-22767364Y7712368D01*
X-22767363Y7712366D01*
X-22683699Y7555844D01*
X-22683699Y7555843D01*
X-22632179Y7386004D01*
X-22614783Y7209377D01*
X-22632179Y7032750D01*
X-22666526Y6919524D01*
X-22683699Y6862910D01*
X-22716257Y6802000D01*
X-22767364Y6706386D01*
X-22774703Y6697444D01*
X-22879956Y6569191D01*
X-22981413Y6485929D01*
X-23017151Y6456599D01*
X-23017153Y6456598D01*
X-23173675Y6372934D01*
X-23230289Y6355761D01*
X-23343515Y6321414D01*
X-23409700Y6314895D01*
X-23475882Y6308377D01*
X-23564402Y6308377D01*
X-23630584Y6314895D01*
X-23696769Y6321414D01*
X-23809995Y6355761D01*
X-23866609Y6372934D01*
X-24023131Y6456598D01*
X-24023133Y6456599D01*
X-24058871Y6485929D01*
X-24160328Y6569191D01*
X-24265581Y6697444D01*
X-24272920Y6706386D01*
X-24324027Y6802000D01*
X-24356585Y6862910D01*
X-24373758Y6919524D01*
X-24408105Y7032750D01*
X-24425501Y7209377D01*
X-24408105Y7386004D01*
X-24356585Y7555843D01*
X-24356585Y7555844D01*
X-24272921Y7712366D01*
X-24272920Y7712368D01*
X-24243590Y7748106D01*
X-24160328Y7849563D01*
X-24058871Y7932825D01*
X-24023133Y7962155D01*
X-24005229Y7971725D01*
X-23866609Y8045820D01*
X-23809995Y8062993D01*
X-23696769Y8097340D01*
X-23630585Y8103858D01*
X-23564402Y8110377D01*
X-23475882Y8110377D01*
X-23409699Y8103858D01*
X-23409699Y8103858D01*
G37*
G36*
X-12228062Y7368284D02*
X-12207444Y7362030D01*
X-12188444Y7351874D01*
X-12171792Y7338208D01*
X-12158126Y7321556D01*
X-12147970Y7302556D01*
X-12141716Y7281938D01*
X-12139000Y7254360D01*
X-12139000Y6745640D01*
X-12141716Y6718062D01*
X-12147970Y6697444D01*
X-12158126Y6678444D01*
X-12171792Y6661792D01*
X-12188444Y6648126D01*
X-12207444Y6637970D01*
X-12228062Y6631716D01*
X-12255640Y6629000D01*
X-12714360Y6629000D01*
X-12741938Y6631716D01*
X-12762556Y6637970D01*
X-12781556Y6648126D01*
X-12798208Y6661792D01*
X-12811874Y6678444D01*
X-12822030Y6697444D01*
X-12828284Y6718062D01*
X-12831000Y6745640D01*
X-12831000Y7254360D01*
X-12828284Y7281938D01*
X-12822030Y7302556D01*
X-12811874Y7321556D01*
X-12798208Y7338208D01*
X-12781556Y7351874D01*
X-12762556Y7362030D01*
X-12741938Y7368284D01*
X-12714360Y7371000D01*
X-12255640Y7371000D01*
X-12228062Y7368284D01*
X-12228062Y7368284D01*
G37*
G36*
X-11258062Y7368284D02*
X-11237444Y7362030D01*
X-11218444Y7351874D01*
X-11201792Y7338208D01*
X-11188126Y7321556D01*
X-11177970Y7302556D01*
X-11171716Y7281938D01*
X-11169000Y7254360D01*
X-11169000Y6745640D01*
X-11171716Y6718062D01*
X-11177970Y6697444D01*
X-11188126Y6678444D01*
X-11201792Y6661792D01*
X-11218444Y6648126D01*
X-11237444Y6637970D01*
X-11258062Y6631716D01*
X-11285640Y6629000D01*
X-11744360Y6629000D01*
X-11771938Y6631716D01*
X-11792556Y6637970D01*
X-11811556Y6648126D01*
X-11828208Y6661792D01*
X-11841874Y6678444D01*
X-11852030Y6697444D01*
X-11858284Y6718062D01*
X-11861000Y6745640D01*
X-11861000Y7254360D01*
X-11858284Y7281938D01*
X-11852030Y7302556D01*
X-11841874Y7321556D01*
X-11828208Y7338208D01*
X-11811556Y7351874D01*
X-11792556Y7362030D01*
X-11771938Y7368284D01*
X-11744360Y7371000D01*
X-11285640Y7371000D01*
X-11258062Y7368284D01*
X-11258062Y7368284D01*
G37*
G36*
X-11049000Y8199000D02*
X-12951000Y8199000D01*
X-12951000Y9301000D01*
X-11049000Y9301000D01*
X-11049000Y8199000D01*
X-11049000Y8199000D01*
G37*
G36*
X-23409700Y10643859D02*
X-23343515Y10637340D01*
X-23230289Y10602993D01*
X-23173675Y10585820D01*
X-23035055Y10511725D01*
X-23017151Y10502155D01*
X-22981413Y10472825D01*
X-22879956Y10389563D01*
X-22796694Y10288106D01*
X-22767364Y10252368D01*
X-22767363Y10252366D01*
X-22683699Y10095844D01*
X-22683699Y10095843D01*
X-22632179Y9926004D01*
X-22614783Y9749377D01*
X-22632179Y9572750D01*
X-22666526Y9459524D01*
X-22683699Y9402910D01*
X-22738172Y9301000D01*
X-22767364Y9246386D01*
X-22775906Y9235978D01*
X-22879956Y9109191D01*
X-22981413Y9025929D01*
X-23017151Y8996599D01*
X-23017153Y8996598D01*
X-23173675Y8912934D01*
X-23230289Y8895761D01*
X-23343515Y8861414D01*
X-23409700Y8854895D01*
X-23475882Y8848377D01*
X-23564402Y8848377D01*
X-23630584Y8854895D01*
X-23696769Y8861414D01*
X-23809995Y8895761D01*
X-23866609Y8912934D01*
X-24023131Y8996598D01*
X-24023133Y8996599D01*
X-24058871Y9025929D01*
X-24160328Y9109191D01*
X-24264378Y9235978D01*
X-24272920Y9246386D01*
X-24302112Y9301000D01*
X-24356585Y9402910D01*
X-24373758Y9459524D01*
X-24408105Y9572750D01*
X-24425501Y9749377D01*
X-24408105Y9926004D01*
X-24356585Y10095843D01*
X-24356585Y10095844D01*
X-24272921Y10252366D01*
X-24272920Y10252368D01*
X-24243590Y10288106D01*
X-24160328Y10389563D01*
X-24058871Y10472825D01*
X-24023133Y10502155D01*
X-24005229Y10511725D01*
X-23866609Y10585820D01*
X-23809995Y10602993D01*
X-23696769Y10637340D01*
X-23630584Y10643859D01*
X-23564402Y10650377D01*
X-23475882Y10650377D01*
X-23409700Y10643859D01*
X-23409700Y10643859D01*
G37*
G36*
X-25159142Y8848377D02*
X-26961142Y8848377D01*
X-26961142Y10650377D01*
X-25159142Y10650377D01*
X-25159142Y8848377D01*
X-25159142Y8848377D01*
G37*
G36*
X-11049000Y10699000D02*
X-12951000Y10699000D01*
X-12951000Y11801000D01*
X-11049000Y11801000D01*
X-11049000Y10699000D01*
X-11049000Y10699000D01*
G37*
G36*
X-24019142Y12158377D02*
X-25021142Y12158377D01*
X-25021142Y13060377D01*
X-24019142Y13060377D01*
X-24019142Y12158377D01*
X-24019142Y12158377D01*
G37*
G36*
X-11258062Y13368284D02*
X-11237444Y13362030D01*
X-11218444Y13351874D01*
X-11201792Y13338208D01*
X-11188126Y13321556D01*
X-11177970Y13302556D01*
X-11171716Y13281938D01*
X-11169000Y13254360D01*
X-11169000Y12745640D01*
X-11171716Y12718062D01*
X-11177970Y12697444D01*
X-11188126Y12678444D01*
X-11201792Y12661792D01*
X-11218444Y12648126D01*
X-11237444Y12637970D01*
X-11258062Y12631716D01*
X-11285640Y12629000D01*
X-11744360Y12629000D01*
X-11771938Y12631716D01*
X-11792556Y12637970D01*
X-11811556Y12648126D01*
X-11828208Y12661792D01*
X-11841874Y12678444D01*
X-11852030Y12697444D01*
X-11858284Y12718062D01*
X-11861000Y12745640D01*
X-11861000Y13254360D01*
X-11858284Y13281938D01*
X-11852030Y13302556D01*
X-11841874Y13321556D01*
X-11828208Y13338208D01*
X-11811556Y13351874D01*
X-11792556Y13362030D01*
X-11771938Y13368284D01*
X-11744360Y13371000D01*
X-11285640Y13371000D01*
X-11258062Y13368284D01*
X-11258062Y13368284D01*
G37*
G36*
X-12228062Y13368284D02*
X-12207444Y13362030D01*
X-12188444Y13351874D01*
X-12171792Y13338208D01*
X-12158126Y13321556D01*
X-12147970Y13302556D01*
X-12141716Y13281938D01*
X-12139000Y13254360D01*
X-12139000Y12745640D01*
X-12141716Y12718062D01*
X-12147970Y12697444D01*
X-12158126Y12678444D01*
X-12171792Y12661792D01*
X-12188444Y12648126D01*
X-12207444Y12637970D01*
X-12228062Y12631716D01*
X-12255640Y12629000D01*
X-12714360Y12629000D01*
X-12741938Y12631716D01*
X-12762556Y12637970D01*
X-12781556Y12648126D01*
X-12798208Y12661792D01*
X-12811874Y12678444D01*
X-12822030Y12697444D01*
X-12828284Y12718062D01*
X-12831000Y12745640D01*
X-12831000Y13254360D01*
X-12828284Y13281938D01*
X-12822030Y13302556D01*
X-12811874Y13321556D01*
X-12798208Y13338208D01*
X-12781556Y13351874D01*
X-12762556Y13362030D01*
X-12741938Y13368284D01*
X-12714360Y13371000D01*
X-12255640Y13371000D01*
X-12228062Y13368284D01*
X-12228062Y13368284D01*
G37*
G36*
X8813259Y13025777D02*
X-3593543Y13025777D01*
X-3593543Y14346977D01*
X8813259Y14346977D01*
X8813259Y13025777D01*
X8813259Y13025777D01*
G37*
G36*
X-22019142Y13108377D02*
X-23021142Y13108377D01*
X-23021142Y14010377D01*
X-22019142Y14010377D01*
X-22019142Y13108377D01*
X-22019142Y13108377D01*
G37*
G36*
X11741938Y14368284D02*
X11762556Y14362030D01*
X11781556Y14351874D01*
X11798208Y14338208D01*
X11811874Y14321556D01*
X11822030Y14302556D01*
X11828284Y14281938D01*
X11831000Y14254360D01*
X11831000Y13745640D01*
X11828284Y13718062D01*
X11822030Y13697444D01*
X11811874Y13678444D01*
X11798208Y13661792D01*
X11781556Y13648126D01*
X11762556Y13637970D01*
X11741938Y13631716D01*
X11714360Y13629000D01*
X11255640Y13629000D01*
X11228062Y13631716D01*
X11207444Y13637970D01*
X11188444Y13648126D01*
X11171792Y13661792D01*
X11158126Y13678444D01*
X11147970Y13697444D01*
X11141716Y13718062D01*
X11139000Y13745640D01*
X11139000Y14254360D01*
X11141716Y14281938D01*
X11147970Y14302556D01*
X11158126Y14321556D01*
X11171792Y14338208D01*
X11188444Y14351874D01*
X11207444Y14362030D01*
X11228062Y14368284D01*
X11255640Y14371000D01*
X11714360Y14371000D01*
X11741938Y14368284D01*
X11741938Y14368284D01*
G37*
G36*
X10771938Y14368284D02*
X10792556Y14362030D01*
X10811556Y14351874D01*
X10828208Y14338208D01*
X10841874Y14321556D01*
X10852030Y14302556D01*
X10858284Y14281938D01*
X10861000Y14254360D01*
X10861000Y13745640D01*
X10858284Y13718062D01*
X10852030Y13697444D01*
X10841874Y13678444D01*
X10828208Y13661792D01*
X10811556Y13648126D01*
X10792556Y13637970D01*
X10771938Y13631716D01*
X10744360Y13629000D01*
X10285640Y13629000D01*
X10258062Y13631716D01*
X10237444Y13637970D01*
X10218444Y13648126D01*
X10201792Y13661792D01*
X10188126Y13678444D01*
X10177970Y13697444D01*
X10171716Y13718062D01*
X10169000Y13745640D01*
X10169000Y14254360D01*
X10171716Y14281938D01*
X10177970Y14302556D01*
X10188126Y14321556D01*
X10201792Y14338208D01*
X10218444Y14351874D01*
X10237444Y14362030D01*
X10258062Y14368284D01*
X10285640Y14371000D01*
X10744360Y14371000D01*
X10771938Y14368284D01*
X10771938Y14368284D01*
G37*
G36*
X-24019142Y14058377D02*
X-25021142Y14058377D01*
X-25021142Y14960377D01*
X-24019142Y14960377D01*
X-24019142Y14058377D01*
X-24019142Y14058377D01*
G37*
G36*
X-11258062Y14868284D02*
X-11237444Y14862030D01*
X-11218444Y14851874D01*
X-11201792Y14838208D01*
X-11188126Y14821556D01*
X-11177970Y14802556D01*
X-11171716Y14781938D01*
X-11169000Y14754360D01*
X-11169000Y14245640D01*
X-11171716Y14218062D01*
X-11177970Y14197444D01*
X-11188126Y14178444D01*
X-11201792Y14161792D01*
X-11218444Y14148126D01*
X-11237444Y14137970D01*
X-11258062Y14131716D01*
X-11285640Y14129000D01*
X-11744360Y14129000D01*
X-11771938Y14131716D01*
X-11792556Y14137970D01*
X-11811556Y14148126D01*
X-11828208Y14161792D01*
X-11841874Y14178444D01*
X-11852030Y14197444D01*
X-11858284Y14218062D01*
X-11861000Y14245640D01*
X-11861000Y14754360D01*
X-11858284Y14781938D01*
X-11852030Y14802556D01*
X-11841874Y14821556D01*
X-11828208Y14838208D01*
X-11811556Y14851874D01*
X-11792556Y14862030D01*
X-11771938Y14868284D01*
X-11744360Y14871000D01*
X-11285640Y14871000D01*
X-11258062Y14868284D01*
X-11258062Y14868284D01*
G37*
G36*
X-12228062Y14868284D02*
X-12207444Y14862030D01*
X-12188444Y14851874D01*
X-12171792Y14838208D01*
X-12158126Y14821556D01*
X-12147970Y14802556D01*
X-12141716Y14781938D01*
X-12139000Y14754360D01*
X-12139000Y14245640D01*
X-12141716Y14218062D01*
X-12147970Y14197444D01*
X-12158126Y14178444D01*
X-12171792Y14161792D01*
X-12188444Y14148126D01*
X-12207444Y14137970D01*
X-12228062Y14131716D01*
X-12255640Y14129000D01*
X-12714360Y14129000D01*
X-12741938Y14131716D01*
X-12762556Y14137970D01*
X-12781556Y14148126D01*
X-12798208Y14161792D01*
X-12811874Y14178444D01*
X-12822030Y14197444D01*
X-12828284Y14218062D01*
X-12831000Y14245640D01*
X-12831000Y14754360D01*
X-12828284Y14781938D01*
X-12822030Y14802556D01*
X-12811874Y14821556D01*
X-12798208Y14838208D01*
X-12781556Y14851874D01*
X-12762556Y14862030D01*
X-12741938Y14868284D01*
X-12714360Y14871000D01*
X-12255640Y14871000D01*
X-12228062Y14868284D01*
X-12228062Y14868284D01*
G37*
G36*
X26733643Y16270219D02*
X26879415Y16209838D01*
X27010611Y16122176D01*
X27122176Y16010611D01*
X27209838Y15879415D01*
X27270219Y15733643D01*
X27301000Y15578893D01*
X27301000Y15421107D01*
X27270219Y15266357D01*
X27209838Y15120585D01*
X27122176Y14989389D01*
X27010611Y14877824D01*
X26879415Y14790162D01*
X26733643Y14729781D01*
X26578893Y14699000D01*
X26421107Y14699000D01*
X26266357Y14729781D01*
X26120585Y14790162D01*
X25989389Y14877824D01*
X25877824Y14989389D01*
X25790162Y15120585D01*
X25729781Y15266357D01*
X25699000Y15421107D01*
X25699000Y15578893D01*
X25729781Y15733643D01*
X25790162Y15879415D01*
X25877824Y16010611D01*
X25989389Y16122176D01*
X26120585Y16209838D01*
X26266357Y16270219D01*
X26421107Y16301000D01*
X26578893Y16301000D01*
X26733643Y16270219D01*
X26733643Y16270219D01*
G37*
G36*
X10771938Y15868284D02*
X10792556Y15862030D01*
X10811556Y15851874D01*
X10828208Y15838208D01*
X10841874Y15821556D01*
X10852030Y15802556D01*
X10858284Y15781938D01*
X10861000Y15754360D01*
X10861000Y15245640D01*
X10858284Y15218062D01*
X10852030Y15197444D01*
X10841874Y15178444D01*
X10828208Y15161792D01*
X10811556Y15148126D01*
X10792556Y15137970D01*
X10771938Y15131716D01*
X10744360Y15129000D01*
X10285640Y15129000D01*
X10258062Y15131716D01*
X10237444Y15137970D01*
X10218444Y15148126D01*
X10201792Y15161792D01*
X10188126Y15178444D01*
X10177970Y15197444D01*
X10171716Y15218062D01*
X10169000Y15245640D01*
X10169000Y15754360D01*
X10171716Y15781938D01*
X10177970Y15802556D01*
X10188126Y15821556D01*
X10201792Y15838208D01*
X10218444Y15851874D01*
X10237444Y15862030D01*
X10258062Y15868284D01*
X10285640Y15871000D01*
X10744360Y15871000D01*
X10771938Y15868284D01*
X10771938Y15868284D01*
G37*
G36*
X11741938Y15868284D02*
X11762556Y15862030D01*
X11781556Y15851874D01*
X11798208Y15838208D01*
X11811874Y15821556D01*
X11822030Y15802556D01*
X11828284Y15781938D01*
X11831000Y15754360D01*
X11831000Y15245640D01*
X11828284Y15218062D01*
X11822030Y15197444D01*
X11811874Y15178444D01*
X11798208Y15161792D01*
X11781556Y15148126D01*
X11762556Y15137970D01*
X11741938Y15131716D01*
X11714360Y15129000D01*
X11255640Y15129000D01*
X11228062Y15131716D01*
X11207444Y15137970D01*
X11188444Y15148126D01*
X11171792Y15161792D01*
X11158126Y15178444D01*
X11147970Y15197444D01*
X11141716Y15218062D01*
X11139000Y15245640D01*
X11139000Y15754360D01*
X11141716Y15781938D01*
X11147970Y15802556D01*
X11158126Y15821556D01*
X11171792Y15838208D01*
X11188444Y15851874D01*
X11207444Y15862030D01*
X11228062Y15868284D01*
X11255640Y15871000D01*
X11714360Y15871000D01*
X11741938Y15868284D01*
X11741938Y15868284D01*
G37*
G36*
X-11258062Y16368284D02*
X-11237444Y16362030D01*
X-11218444Y16351874D01*
X-11201792Y16338208D01*
X-11188126Y16321556D01*
X-11177970Y16302556D01*
X-11171716Y16281938D01*
X-11169000Y16254360D01*
X-11169000Y15745640D01*
X-11171716Y15718062D01*
X-11177970Y15697444D01*
X-11188126Y15678444D01*
X-11201792Y15661792D01*
X-11218444Y15648126D01*
X-11237444Y15637970D01*
X-11258062Y15631716D01*
X-11285640Y15629000D01*
X-11744360Y15629000D01*
X-11771938Y15631716D01*
X-11792556Y15637970D01*
X-11811556Y15648126D01*
X-11828208Y15661792D01*
X-11841874Y15678444D01*
X-11852030Y15697444D01*
X-11858284Y15718062D01*
X-11861000Y15745640D01*
X-11861000Y16254360D01*
X-11858284Y16281938D01*
X-11852030Y16302556D01*
X-11841874Y16321556D01*
X-11828208Y16338208D01*
X-11811556Y16351874D01*
X-11792556Y16362030D01*
X-11771938Y16368284D01*
X-11744360Y16371000D01*
X-11285640Y16371000D01*
X-11258062Y16368284D01*
X-11258062Y16368284D01*
G37*
G36*
X2771938Y16368284D02*
X2792556Y16362030D01*
X2811556Y16351874D01*
X2828208Y16338208D01*
X2841874Y16321556D01*
X2852030Y16302556D01*
X2858284Y16281938D01*
X2861000Y16254360D01*
X2861000Y15745640D01*
X2858284Y15718062D01*
X2852030Y15697444D01*
X2841874Y15678444D01*
X2828208Y15661792D01*
X2811556Y15648126D01*
X2792556Y15637970D01*
X2771938Y15631716D01*
X2744360Y15629000D01*
X2285640Y15629000D01*
X2258062Y15631716D01*
X2237444Y15637970D01*
X2218444Y15648126D01*
X2201792Y15661792D01*
X2188126Y15678444D01*
X2177970Y15697444D01*
X2171716Y15718062D01*
X2169000Y15745640D01*
X2169000Y16254360D01*
X2171716Y16281938D01*
X2177970Y16302556D01*
X2188126Y16321556D01*
X2201792Y16338208D01*
X2218444Y16351874D01*
X2237444Y16362030D01*
X2258062Y16368284D01*
X2285640Y16371000D01*
X2744360Y16371000D01*
X2771938Y16368284D01*
X2771938Y16368284D01*
G37*
G36*
X5271938Y16368284D02*
X5292556Y16362030D01*
X5311556Y16351874D01*
X5328208Y16338208D01*
X5341874Y16321556D01*
X5352030Y16302556D01*
X5358284Y16281938D01*
X5361000Y16254360D01*
X5361000Y15745640D01*
X5358284Y15718062D01*
X5352030Y15697444D01*
X5341874Y15678444D01*
X5328208Y15661792D01*
X5311556Y15648126D01*
X5292556Y15637970D01*
X5271938Y15631716D01*
X5244360Y15629000D01*
X4785640Y15629000D01*
X4758062Y15631716D01*
X4737444Y15637970D01*
X4718444Y15648126D01*
X4701792Y15661792D01*
X4688126Y15678444D01*
X4677970Y15697444D01*
X4671716Y15718062D01*
X4669000Y15745640D01*
X4669000Y16254360D01*
X4671716Y16281938D01*
X4677970Y16302556D01*
X4688126Y16321556D01*
X4701792Y16338208D01*
X4718444Y16351874D01*
X4737444Y16362030D01*
X4758062Y16368284D01*
X4785640Y16371000D01*
X5244360Y16371000D01*
X5271938Y16368284D01*
X5271938Y16368284D01*
G37*
G36*
X3741938Y16368284D02*
X3762556Y16362030D01*
X3781556Y16351874D01*
X3798208Y16338208D01*
X3811874Y16321556D01*
X3822030Y16302556D01*
X3828284Y16281938D01*
X3831000Y16254360D01*
X3831000Y15745640D01*
X3828284Y15718062D01*
X3822030Y15697444D01*
X3811874Y15678444D01*
X3798208Y15661792D01*
X3781556Y15648126D01*
X3762556Y15637970D01*
X3741938Y15631716D01*
X3714360Y15629000D01*
X3255640Y15629000D01*
X3228062Y15631716D01*
X3207444Y15637970D01*
X3188444Y15648126D01*
X3171792Y15661792D01*
X3158126Y15678444D01*
X3147970Y15697444D01*
X3141716Y15718062D01*
X3139000Y15745640D01*
X3139000Y16254360D01*
X3141716Y16281938D01*
X3147970Y16302556D01*
X3158126Y16321556D01*
X3171792Y16338208D01*
X3188444Y16351874D01*
X3207444Y16362030D01*
X3228062Y16368284D01*
X3255640Y16371000D01*
X3714360Y16371000D01*
X3741938Y16368284D01*
X3741938Y16368284D01*
G37*
G36*
X6241938Y16368284D02*
X6262556Y16362030D01*
X6281556Y16351874D01*
X6298208Y16338208D01*
X6311874Y16321556D01*
X6322030Y16302556D01*
X6328284Y16281938D01*
X6331000Y16254360D01*
X6331000Y15745640D01*
X6328284Y15718062D01*
X6322030Y15697444D01*
X6311874Y15678444D01*
X6298208Y15661792D01*
X6281556Y15648126D01*
X6262556Y15637970D01*
X6241938Y15631716D01*
X6214360Y15629000D01*
X5755640Y15629000D01*
X5728062Y15631716D01*
X5707444Y15637970D01*
X5688444Y15648126D01*
X5671792Y15661792D01*
X5658126Y15678444D01*
X5647970Y15697444D01*
X5641716Y15718062D01*
X5639000Y15745640D01*
X5639000Y16254360D01*
X5641716Y16281938D01*
X5647970Y16302556D01*
X5658126Y16321556D01*
X5671792Y16338208D01*
X5688444Y16351874D01*
X5707444Y16362030D01*
X5728062Y16368284D01*
X5755640Y16371000D01*
X6214360Y16371000D01*
X6241938Y16368284D01*
X6241938Y16368284D01*
G37*
G36*
X-12228062Y16368284D02*
X-12207444Y16362030D01*
X-12188444Y16351874D01*
X-12171792Y16338208D01*
X-12158126Y16321556D01*
X-12147970Y16302556D01*
X-12141716Y16281938D01*
X-12139000Y16254360D01*
X-12139000Y15745640D01*
X-12141716Y15718062D01*
X-12147970Y15697444D01*
X-12158126Y15678444D01*
X-12171792Y15661792D01*
X-12188444Y15648126D01*
X-12207444Y15637970D01*
X-12228062Y15631716D01*
X-12255640Y15629000D01*
X-12714360Y15629000D01*
X-12741938Y15631716D01*
X-12762556Y15637970D01*
X-12781556Y15648126D01*
X-12798208Y15661792D01*
X-12811874Y15678444D01*
X-12822030Y15697444D01*
X-12828284Y15718062D01*
X-12831000Y15745640D01*
X-12831000Y16254360D01*
X-12828284Y16281938D01*
X-12822030Y16302556D01*
X-12811874Y16321556D01*
X-12798208Y16338208D01*
X-12781556Y16351874D01*
X-12762556Y16362030D01*
X-12741938Y16368284D01*
X-12714360Y16371000D01*
X-12255640Y16371000D01*
X-12228062Y16368284D01*
X-12228062Y16368284D01*
G37*
G36*
X11741938Y17368284D02*
X11762556Y17362030D01*
X11781556Y17351874D01*
X11798208Y17338208D01*
X11811874Y17321556D01*
X11822030Y17302556D01*
X11828284Y17281938D01*
X11831000Y17254360D01*
X11831000Y16745640D01*
X11828284Y16718062D01*
X11822030Y16697444D01*
X11811874Y16678444D01*
X11798208Y16661792D01*
X11781556Y16648126D01*
X11762556Y16637970D01*
X11741938Y16631716D01*
X11714360Y16629000D01*
X11255640Y16629000D01*
X11228062Y16631716D01*
X11207444Y16637970D01*
X11188444Y16648126D01*
X11171792Y16661792D01*
X11158126Y16678444D01*
X11147970Y16697444D01*
X11141716Y16718062D01*
X11139000Y16745640D01*
X11139000Y17254360D01*
X11141716Y17281938D01*
X11147970Y17302556D01*
X11158126Y17321556D01*
X11171792Y17338208D01*
X11188444Y17351874D01*
X11207444Y17362030D01*
X11228062Y17368284D01*
X11255640Y17371000D01*
X11714360Y17371000D01*
X11741938Y17368284D01*
X11741938Y17368284D01*
G37*
G36*
X10771938Y17368284D02*
X10792556Y17362030D01*
X10811556Y17351874D01*
X10828208Y17338208D01*
X10841874Y17321556D01*
X10852030Y17302556D01*
X10858284Y17281938D01*
X10861000Y17254360D01*
X10861000Y16745640D01*
X10858284Y16718062D01*
X10852030Y16697444D01*
X10841874Y16678444D01*
X10828208Y16661792D01*
X10811556Y16648126D01*
X10792556Y16637970D01*
X10771938Y16631716D01*
X10744360Y16629000D01*
X10285640Y16629000D01*
X10258062Y16631716D01*
X10237444Y16637970D01*
X10218444Y16648126D01*
X10201792Y16661792D01*
X10188126Y16678444D01*
X10177970Y16697444D01*
X10171716Y16718062D01*
X10169000Y16745640D01*
X10169000Y17254360D01*
X10171716Y17281938D01*
X10177970Y17302556D01*
X10188126Y17321556D01*
X10201792Y17338208D01*
X10218444Y17351874D01*
X10237444Y17362030D01*
X10258062Y17368284D01*
X10285640Y17371000D01*
X10744360Y17371000D01*
X10771938Y17368284D01*
X10771938Y17368284D01*
G37*
G36*
X24951000Y17149000D02*
X13049000Y17149000D01*
X13049000Y25801000D01*
X24951000Y25801000D01*
X24951000Y17149000D01*
X24951000Y17149000D01*
G37*
G36*
X281938Y17858284D02*
X302556Y17852030D01*
X321556Y17841874D01*
X338208Y17828208D01*
X351874Y17811556D01*
X362030Y17792556D01*
X368284Y17771938D01*
X371000Y17744360D01*
X371000Y17285640D01*
X368284Y17258062D01*
X362030Y17237444D01*
X351874Y17218444D01*
X338208Y17201792D01*
X321556Y17188126D01*
X302556Y17177970D01*
X281938Y17171716D01*
X254360Y17169000D01*
X-254360Y17169000D01*
X-281938Y17171716D01*
X-302556Y17177970D01*
X-321556Y17188126D01*
X-338208Y17201792D01*
X-351874Y17218444D01*
X-362030Y17237444D01*
X-368284Y17258062D01*
X-371000Y17285640D01*
X-371000Y17744360D01*
X-368284Y17771938D01*
X-362030Y17792556D01*
X-351874Y17811556D01*
X-338208Y17828208D01*
X-321556Y17841874D01*
X-302556Y17852030D01*
X-281938Y17858284D01*
X-254360Y17861000D01*
X254360Y17861000D01*
X281938Y17858284D01*
X281938Y17858284D01*
G37*
G36*
X-1218062Y17858284D02*
X-1197444Y17852030D01*
X-1178444Y17841874D01*
X-1161792Y17828208D01*
X-1148126Y17811556D01*
X-1137970Y17792556D01*
X-1131716Y17771938D01*
X-1129000Y17744360D01*
X-1129000Y17285640D01*
X-1131716Y17258062D01*
X-1137970Y17237444D01*
X-1148126Y17218444D01*
X-1161792Y17201792D01*
X-1178444Y17188126D01*
X-1197444Y17177970D01*
X-1218062Y17171716D01*
X-1245640Y17169000D01*
X-1754360Y17169000D01*
X-1781938Y17171716D01*
X-1802556Y17177970D01*
X-1821556Y17188126D01*
X-1838208Y17201792D01*
X-1851874Y17218444D01*
X-1862030Y17237444D01*
X-1868284Y17258062D01*
X-1871000Y17285640D01*
X-1871000Y17744360D01*
X-1868284Y17771938D01*
X-1862030Y17792556D01*
X-1851874Y17811556D01*
X-1838208Y17828208D01*
X-1821556Y17841874D01*
X-1802556Y17852030D01*
X-1781938Y17858284D01*
X-1754360Y17861000D01*
X-1245640Y17861000D01*
X-1218062Y17858284D01*
X-1218062Y17858284D01*
G37*
G36*
X-2718062Y17858284D02*
X-2697444Y17852030D01*
X-2678444Y17841874D01*
X-2661792Y17828208D01*
X-2648126Y17811556D01*
X-2637970Y17792556D01*
X-2631716Y17771938D01*
X-2629000Y17744360D01*
X-2629000Y17285640D01*
X-2631716Y17258062D01*
X-2637970Y17237444D01*
X-2648126Y17218444D01*
X-2661792Y17201792D01*
X-2678444Y17188126D01*
X-2697444Y17177970D01*
X-2718062Y17171716D01*
X-2745640Y17169000D01*
X-3254360Y17169000D01*
X-3281938Y17171716D01*
X-3302556Y17177970D01*
X-3321556Y17188126D01*
X-3338208Y17201792D01*
X-3351874Y17218444D01*
X-3362030Y17237444D01*
X-3368284Y17258062D01*
X-3371000Y17285640D01*
X-3371000Y17744360D01*
X-3368284Y17771938D01*
X-3362030Y17792556D01*
X-3351874Y17811556D01*
X-3338208Y17828208D01*
X-3321556Y17841874D01*
X-3302556Y17852030D01*
X-3281938Y17858284D01*
X-3254360Y17861000D01*
X-2745640Y17861000D01*
X-2718062Y17858284D01*
X-2718062Y17858284D01*
G37*
G36*
X2881630Y17653857D02*
X1278890Y17653857D01*
X1278890Y18354897D01*
X2881630Y18354897D01*
X2881630Y17653857D01*
X2881630Y17653857D01*
G37*
G36*
X8881110Y17653857D02*
X7278370Y17653857D01*
X7278370Y18354897D01*
X8881110Y18354897D01*
X8881110Y17653857D01*
X8881110Y17653857D01*
G37*
G36*
X6880860Y17658937D02*
X3279140Y17658937D01*
X3279140Y22159817D01*
X6880860Y22159817D01*
X6880860Y17658937D01*
X6880860Y17658937D01*
G37*
G36*
X-2718062Y18828284D02*
X-2697444Y18822030D01*
X-2678444Y18811874D01*
X-2661792Y18798208D01*
X-2648126Y18781556D01*
X-2637970Y18762556D01*
X-2631716Y18741938D01*
X-2629000Y18714360D01*
X-2629000Y18255640D01*
X-2631716Y18228062D01*
X-2637970Y18207444D01*
X-2648126Y18188444D01*
X-2661792Y18171792D01*
X-2678444Y18158126D01*
X-2697444Y18147970D01*
X-2718062Y18141716D01*
X-2745640Y18139000D01*
X-3254360Y18139000D01*
X-3281938Y18141716D01*
X-3302556Y18147970D01*
X-3321556Y18158126D01*
X-3338208Y18171792D01*
X-3351874Y18188444D01*
X-3362030Y18207444D01*
X-3368284Y18228062D01*
X-3371000Y18255640D01*
X-3371000Y18714360D01*
X-3368284Y18741938D01*
X-3362030Y18762556D01*
X-3351874Y18781556D01*
X-3338208Y18798208D01*
X-3321556Y18811874D01*
X-3302556Y18822030D01*
X-3281938Y18828284D01*
X-3254360Y18831000D01*
X-2745640Y18831000D01*
X-2718062Y18828284D01*
X-2718062Y18828284D01*
G37*
G36*
X-1218062Y18828284D02*
X-1197444Y18822030D01*
X-1178444Y18811874D01*
X-1161792Y18798208D01*
X-1148126Y18781556D01*
X-1137970Y18762556D01*
X-1131716Y18741938D01*
X-1129000Y18714360D01*
X-1129000Y18255640D01*
X-1131716Y18228062D01*
X-1137970Y18207444D01*
X-1148126Y18188444D01*
X-1161792Y18171792D01*
X-1178444Y18158126D01*
X-1197444Y18147970D01*
X-1218062Y18141716D01*
X-1245640Y18139000D01*
X-1754360Y18139000D01*
X-1781938Y18141716D01*
X-1802556Y18147970D01*
X-1821556Y18158126D01*
X-1838208Y18171792D01*
X-1851874Y18188444D01*
X-1862030Y18207444D01*
X-1868284Y18228062D01*
X-1871000Y18255640D01*
X-1871000Y18714360D01*
X-1868284Y18741938D01*
X-1862030Y18762556D01*
X-1851874Y18781556D01*
X-1838208Y18798208D01*
X-1821556Y18811874D01*
X-1802556Y18822030D01*
X-1781938Y18828284D01*
X-1754360Y18831000D01*
X-1245640Y18831000D01*
X-1218062Y18828284D01*
X-1218062Y18828284D01*
G37*
G36*
X281938Y18828284D02*
X302556Y18822030D01*
X321556Y18811874D01*
X338208Y18798208D01*
X351874Y18781556D01*
X362030Y18762556D01*
X368284Y18741938D01*
X371000Y18714360D01*
X371000Y18255640D01*
X368284Y18228062D01*
X362030Y18207444D01*
X351874Y18188444D01*
X338208Y18171792D01*
X321556Y18158126D01*
X302556Y18147970D01*
X281938Y18141716D01*
X254360Y18139000D01*
X-254360Y18139000D01*
X-281938Y18141716D01*
X-302556Y18147970D01*
X-321556Y18158126D01*
X-338208Y18171792D01*
X-351874Y18188444D01*
X-362030Y18207444D01*
X-368284Y18228062D01*
X-371000Y18255640D01*
X-371000Y18714360D01*
X-368284Y18741938D01*
X-362030Y18762556D01*
X-351874Y18781556D01*
X-338208Y18798208D01*
X-321556Y18811874D01*
X-302556Y18822030D01*
X-281938Y18828284D01*
X-254360Y18831000D01*
X254360Y18831000D01*
X281938Y18828284D01*
X281938Y18828284D01*
G37*
G36*
X8881110Y18923857D02*
X7278370Y18923857D01*
X7278370Y19624897D01*
X8881110Y19624897D01*
X8881110Y18923857D01*
X8881110Y18923857D01*
G37*
G36*
X2881630Y18923857D02*
X1278890Y18923857D01*
X1278890Y19624897D01*
X2881630Y19624897D01*
X2881630Y18923857D01*
X2881630Y18923857D01*
G37*
G36*
X27601000Y19049000D02*
X25699000Y19049000D01*
X25699000Y25751000D01*
X27601000Y25751000D01*
X27601000Y19049000D01*
X27601000Y19049000D01*
G37*
G36*
X12301000Y19049000D02*
X10399000Y19049000D01*
X10399000Y25751000D01*
X12301000Y25751000D01*
X12301000Y19049000D01*
X12301000Y19049000D01*
G37*
G36*
X8881110Y20193857D02*
X7278370Y20193857D01*
X7278370Y20894897D01*
X8881110Y20894897D01*
X8881110Y20193857D01*
X8881110Y20193857D01*
G37*
G36*
X2881630Y20193857D02*
X1278890Y20193857D01*
X1278890Y20894897D01*
X2881630Y20894897D01*
X2881630Y20193857D01*
X2881630Y20193857D01*
G37*
G36*
X8881110Y21463857D02*
X7278370Y21463857D01*
X7278370Y22164897D01*
X8881110Y22164897D01*
X8881110Y21463857D01*
X8881110Y21463857D01*
G37*
G36*
X2881630Y21463857D02*
X1278890Y21463857D01*
X1278890Y22164897D01*
X2881630Y22164897D01*
X2881630Y21463857D01*
X2881630Y21463857D01*
G37*
G36*
X6281938Y24113142D02*
X6302556Y24106888D01*
X6321556Y24096732D01*
X6338208Y24083066D01*
X6351874Y24066414D01*
X6362030Y24047414D01*
X6368284Y24026796D01*
X6371000Y23999218D01*
X6371000Y23540498D01*
X6368284Y23512920D01*
X6362030Y23492302D01*
X6351874Y23473302D01*
X6338208Y23456650D01*
X6321556Y23442984D01*
X6302556Y23432828D01*
X6281938Y23426574D01*
X6254360Y23423858D01*
X5745640Y23423858D01*
X5718062Y23426574D01*
X5697444Y23432828D01*
X5678444Y23442984D01*
X5661792Y23456650D01*
X5648126Y23473302D01*
X5637970Y23492302D01*
X5631716Y23512920D01*
X5629000Y23540498D01*
X5629000Y23999218D01*
X5631716Y24026796D01*
X5637970Y24047414D01*
X5648126Y24066414D01*
X5661792Y24083066D01*
X5678444Y24096732D01*
X5697444Y24106888D01*
X5718062Y24113142D01*
X5745640Y24115858D01*
X6254360Y24115858D01*
X6281938Y24113142D01*
X6281938Y24113142D01*
G37*
G36*
X4781938Y24113142D02*
X4802556Y24106888D01*
X4821556Y24096732D01*
X4838208Y24083066D01*
X4851874Y24066414D01*
X4862030Y24047414D01*
X4868284Y24026796D01*
X4871000Y23999218D01*
X4871000Y23540498D01*
X4868284Y23512920D01*
X4862030Y23492302D01*
X4851874Y23473302D01*
X4838208Y23456650D01*
X4821556Y23442984D01*
X4802556Y23432828D01*
X4781938Y23426574D01*
X4754360Y23423858D01*
X4245640Y23423858D01*
X4218062Y23426574D01*
X4197444Y23432828D01*
X4178444Y23442984D01*
X4161792Y23456650D01*
X4148126Y23473302D01*
X4137970Y23492302D01*
X4131716Y23512920D01*
X4129000Y23540498D01*
X4129000Y23999218D01*
X4131716Y24026796D01*
X4137970Y24047414D01*
X4148126Y24066414D01*
X4161792Y24083066D01*
X4178444Y24096732D01*
X4197444Y24106888D01*
X4218062Y24113142D01*
X4245640Y24115858D01*
X4754360Y24115858D01*
X4781938Y24113142D01*
X4781938Y24113142D01*
G37*
G36*
X3281938Y24113142D02*
X3302556Y24106888D01*
X3321556Y24096732D01*
X3338208Y24083066D01*
X3351874Y24066414D01*
X3362030Y24047414D01*
X3368284Y24026796D01*
X3371000Y23999218D01*
X3371000Y23540498D01*
X3368284Y23512920D01*
X3362030Y23492302D01*
X3351874Y23473302D01*
X3338208Y23456650D01*
X3321556Y23442984D01*
X3302556Y23432828D01*
X3281938Y23426574D01*
X3254360Y23423858D01*
X2745640Y23423858D01*
X2718062Y23426574D01*
X2697444Y23432828D01*
X2678444Y23442984D01*
X2661792Y23456650D01*
X2648126Y23473302D01*
X2637970Y23492302D01*
X2631716Y23512920D01*
X2629000Y23540498D01*
X2629000Y23999218D01*
X2631716Y24026796D01*
X2637970Y24047414D01*
X2648126Y24066414D01*
X2661792Y24083066D01*
X2678444Y24096732D01*
X2697444Y24106888D01*
X2718062Y24113142D01*
X2745640Y24115858D01*
X3254360Y24115858D01*
X3281938Y24113142D01*
X3281938Y24113142D01*
G37*
G36*
X3281938Y25083142D02*
X3302556Y25076888D01*
X3321556Y25066732D01*
X3338208Y25053066D01*
X3351874Y25036414D01*
X3362030Y25017414D01*
X3368284Y24996796D01*
X3371000Y24969218D01*
X3371000Y24510498D01*
X3368284Y24482920D01*
X3362030Y24462302D01*
X3351874Y24443302D01*
X3338208Y24426650D01*
X3321556Y24412984D01*
X3302556Y24402828D01*
X3281938Y24396574D01*
X3254360Y24393858D01*
X2745640Y24393858D01*
X2718062Y24396574D01*
X2697444Y24402828D01*
X2678444Y24412984D01*
X2661792Y24426650D01*
X2648126Y24443302D01*
X2637970Y24462302D01*
X2631716Y24482920D01*
X2629000Y24510498D01*
X2629000Y24969218D01*
X2631716Y24996796D01*
X2637970Y25017414D01*
X2648126Y25036414D01*
X2661792Y25053066D01*
X2678444Y25066732D01*
X2697444Y25076888D01*
X2718062Y25083142D01*
X2745640Y25085858D01*
X3254360Y25085858D01*
X3281938Y25083142D01*
X3281938Y25083142D01*
G37*
G36*
X6281938Y25083142D02*
X6302556Y25076888D01*
X6321556Y25066732D01*
X6338208Y25053066D01*
X6351874Y25036414D01*
X6362030Y25017414D01*
X6368284Y24996796D01*
X6371000Y24969218D01*
X6371000Y24510498D01*
X6368284Y24482920D01*
X6362030Y24462302D01*
X6351874Y24443302D01*
X6338208Y24426650D01*
X6321556Y24412984D01*
X6302556Y24402828D01*
X6281938Y24396574D01*
X6254360Y24393858D01*
X5745640Y24393858D01*
X5718062Y24396574D01*
X5697444Y24402828D01*
X5678444Y24412984D01*
X5661792Y24426650D01*
X5648126Y24443302D01*
X5637970Y24462302D01*
X5631716Y24482920D01*
X5629000Y24510498D01*
X5629000Y24969218D01*
X5631716Y24996796D01*
X5637970Y25017414D01*
X5648126Y25036414D01*
X5661792Y25053066D01*
X5678444Y25066732D01*
X5697444Y25076888D01*
X5718062Y25083142D01*
X5745640Y25085858D01*
X6254360Y25085858D01*
X6281938Y25083142D01*
X6281938Y25083142D01*
G37*
G36*
X4781938Y25083142D02*
X4802556Y25076888D01*
X4821556Y25066732D01*
X4838208Y25053066D01*
X4851874Y25036414D01*
X4862030Y25017414D01*
X4868284Y24996796D01*
X4871000Y24969218D01*
X4871000Y24510498D01*
X4868284Y24482920D01*
X4862030Y24462302D01*
X4851874Y24443302D01*
X4838208Y24426650D01*
X4821556Y24412984D01*
X4802556Y24402828D01*
X4781938Y24396574D01*
X4754360Y24393858D01*
X4245640Y24393858D01*
X4218062Y24396574D01*
X4197444Y24402828D01*
X4178444Y24412984D01*
X4161792Y24426650D01*
X4148126Y24443302D01*
X4137970Y24462302D01*
X4131716Y24482920D01*
X4129000Y24510498D01*
X4129000Y24969218D01*
X4131716Y24996796D01*
X4137970Y25017414D01*
X4148126Y25036414D01*
X4161792Y25053066D01*
X4178444Y25066732D01*
X4197444Y25076888D01*
X4218062Y25083142D01*
X4245640Y25085858D01*
X4754360Y25085858D01*
X4781938Y25083142D01*
X4781938Y25083142D01*
G37*
G36*
X3311000Y32099000D02*
X2309000Y32099000D01*
X2309000Y33001000D01*
X3311000Y33001000D01*
X3311000Y32099000D01*
X3311000Y32099000D01*
G37*
G36*
X5311000Y33049000D02*
X4309000Y33049000D01*
X4309000Y33951000D01*
X5311000Y33951000D01*
X5311000Y33049000D01*
X5311000Y33049000D01*
G37*
G36*
X3311000Y33999000D02*
X2309000Y33999000D01*
X2309000Y34901000D01*
X3311000Y34901000D01*
X3311000Y33999000D01*
X3311000Y33999000D01*
G37*
G36*
X-201500Y39999000D02*
X-1549000Y39999000D01*
X-1573386Y39996598D01*
X-1596835Y39989485D01*
X-1618446Y39977934D01*
X-1637388Y39962388D01*
X-1652934Y39943446D01*
X-1664485Y39921835D01*
X-1671598Y39898386D01*
X-1674000Y39874000D01*
X-1674000Y39206000D01*
X-1671598Y39181614D01*
X-1664485Y39158165D01*
X-1652934Y39136554D01*
X-1637388Y39117612D01*
X-1618446Y39102066D01*
X-1596835Y39090515D01*
X-1573386Y39083402D01*
X-1549000Y39081000D01*
X1549000Y39081000D01*
X1573386Y39083402D01*
X1596835Y39090515D01*
X1618446Y39102066D01*
X1637388Y39117612D01*
X1652934Y39136554D01*
X1664485Y39158165D01*
X1671598Y39181614D01*
X1674000Y39206000D01*
X1674000Y39874000D01*
X1671598Y39898386D01*
X1664485Y39921835D01*
X1652934Y39943446D01*
X1637388Y39962388D01*
X1618446Y39977934D01*
X1596835Y39989485D01*
X1573386Y39996598D01*
X1549000Y39999000D01*
X201500Y39999000D01*
X201500Y42001000D01*
X4148500Y42001000D01*
X4148500Y39999000D01*
X3376000Y39999000D01*
X3351614Y39996598D01*
X3328165Y39989485D01*
X3306554Y39977934D01*
X3287612Y39962388D01*
X3272066Y39943446D01*
X3260515Y39921835D01*
X3253402Y39898386D01*
X3251000Y39874000D01*
X3251000Y37599000D01*
X-3251000Y37599000D01*
X-3251000Y39874000D01*
X-3253402Y39898386D01*
X-3260515Y39921835D01*
X-3272066Y39943446D01*
X-3287612Y39962388D01*
X-3306554Y39977934D01*
X-3328165Y39989485D01*
X-3351614Y39996598D01*
X-3376000Y39999000D01*
X-4148500Y39999000D01*
X-4148500Y42001000D01*
X-201500Y42001000D01*
X-201500Y39999000D01*
X-201500Y39999000D01*
G37*
M02*
