M48
;DRILL file {KiCad 5.0.2-bee76a0~70~ubuntu18.10.1} date Tue 19 Mar 2019 09:34:42 PM CDT
;FORMAT={3:3/ absolute / metric / suppress leading zeros}
FMAT,2
METRIC,TZ
T1C0.330
T2C0.400
T3C1.000
T4C0.899
%
G90
G05
T1
X-23500Y-4500
X-22500Y-12000
X-22500Y-20500
X-22000Y34000
X-21600Y5700
X-21200Y4300
X-19000Y23000
X-17000Y27500
X-17000Y12500
X-15000Y1500
X-10500Y7100
X-10500Y6400
X-10500Y5700
X-10500Y5000
X-10000Y4100
X-9000Y-10000
X-7500Y-2500
X-7500Y-4500
X-7250Y-7750
X-7000Y34000
X-7000Y-5000
X-7000Y-5800
X-7000Y-6500
X-6500Y1000
X-6500Y-31500
X-6000Y-5000
X-5500Y-1500
X-5500Y-11000
X-5000Y-2500
X-5000Y-8750
X-4500Y-3000
X-4317Y3939
X-4016Y-3500
X-4000Y11000
X-3960Y-31500
X-3931Y3404
X-3533Y-4000
X-3500Y7500
X-3449Y2952
X-3000Y16000
X-2984Y2483
X-2873Y-4000
X-2500Y12500
X-2500Y2000
X-2000Y1500
X-2000Y-500
X-1890Y15000
X-1500Y5500
X-1420Y-31500
X-1000Y25000
X-1000Y15000
X-500Y36000
X-408Y-3000
X0Y12500
X500Y37000
X500Y22000
X500Y20500
X500Y19500
X584Y23500
X1000Y-5500
X1500Y11500
X2000Y1000
X2300Y-3500
X2500Y6000
X2500Y-7000
X2600Y-2900
X3455Y11363
X4000Y17000
X4000Y-500
X4500Y26000
X4592Y12500
X5000Y37500
X5253Y12483
X5500Y1000
X5513Y14616
X5600Y17354
X6000Y1500
X6500Y-17500
X6500Y-30000
X6660Y1500
X7233Y-4000
X7321Y1500
X7500Y22500
X7500Y10000
X7544Y-3418
X8000Y11500
X8000Y1500
X8000Y-11000
X8500Y-5000
X8731Y12001
X9000Y-4000
X9000Y-7500
X9000Y-19250
X9500Y31500
X9500Y20500
X9500Y-2500
X10001Y14500
X10500Y-4500
X10500Y-10000
X10515Y16200
X11000Y-2500
X11344Y13078
X11977Y8445
X12000Y18000
X12000Y13000
X12000Y-17500
X12466Y8934
X12500Y15500
X12500Y-3500
X13073Y7922
X13500Y0
X14000Y13000
X14477Y16303
X15509Y3922
X15945Y6771
X17877Y16741
X18117Y9160
X18117Y8500
X18600Y16500
X19250Y16700
X19400Y5700
X19733Y16203
X19733Y6400
X20600Y3700
X20700Y16100
X20700Y6917
X20700Y5000
X21733Y16100
X21733Y7400
X22700Y8300
X22767Y11900
X25400Y16800
T2
X-18000Y-71000
X-16000Y-71000
X-14000Y-71000
X14000Y-49000
X16000Y-49000
X18000Y-49000
T3
X-26060Y-6761
X-26060Y-9301
X-26060Y-11841
X-26060Y9749
X-26060Y7209
X-26060Y4669
X-26060Y2129
X-26060Y-411
X-23520Y9749
X-23520Y7209
X-23520Y4669
X-23520Y2129
X-23520Y-411
T4
X26500Y-35601
X26500Y-38599
T0
M30
