G04 #@! TF.GenerationSoftware,KiCad,Pcbnew,5.0.2-bee76a0~70~ubuntu18.10.1*
G04 #@! TF.CreationDate,2019-03-19T21:34:18-05:00*
G04 #@! TF.ProjectId,camboard,63616d62-6f61-4726-942e-6b696361645f,rev?*
G04 #@! TF.SameCoordinates,Original*
G04 #@! TF.FileFunction,Soldermask,Bot*
G04 #@! TF.FilePolarity,Negative*
%FSLAX46Y46*%
G04 Gerber Fmt 4.6, Leading zero omitted, Abs format (unit mm)*
G04 Created by KiCad (PCBNEW 5.0.2-bee76a0~70~ubuntu18.10.1) date Tue 19 Mar 2019 09:34:18 PM CDT*
%MOMM*%
%LPD*%
G01*
G04 APERTURE LIST*
%ADD10C,0.100000*%
G04 APERTURE END LIST*
D10*
G36*
X13271000Y-73591000D02*
X9209000Y-73591000D01*
X9209000Y-68409000D01*
X13271000Y-68409000D01*
X13271000Y-73591000D01*
X13271000Y-73591000D01*
G37*
G36*
X-9209000Y-73591000D02*
X-13271000Y-73591000D01*
X-13271000Y-68409000D01*
X-9209000Y-68409000D01*
X-9209000Y-73591000D01*
X-9209000Y-73591000D01*
G37*
G36*
X26351000Y-72221000D02*
X22289000Y-72221000D01*
X22289000Y-69779000D01*
X26351000Y-69779000D01*
X26351000Y-72221000D01*
X26351000Y-72221000D01*
G37*
G36*
X-22289000Y-72221000D02*
X-26351000Y-72221000D01*
X-26351000Y-69779000D01*
X-22289000Y-69779000D01*
X-22289000Y-72221000D01*
X-22289000Y-72221000D01*
G37*
G36*
X29951000Y-67001000D02*
X29049000Y-67001000D01*
X29049000Y-65999000D01*
X29951000Y-65999000D01*
X29951000Y-67001000D01*
X29951000Y-67001000D01*
G37*
G36*
X30901000Y-65001000D02*
X29999000Y-65001000D01*
X29999000Y-63999000D01*
X30901000Y-63999000D01*
X30901000Y-65001000D01*
X30901000Y-65001000D01*
G37*
G36*
X29001000Y-65001000D02*
X28099000Y-65001000D01*
X28099000Y-63999000D01*
X29001000Y-63999000D01*
X29001000Y-65001000D01*
X29001000Y-65001000D01*
G37*
G36*
X-9209000Y-62591000D02*
X-13271000Y-62591000D01*
X-13271000Y-57409000D01*
X-9209000Y-57409000D01*
X-9209000Y-62591000D01*
X-9209000Y-62591000D01*
G37*
G36*
X13271000Y-62591000D02*
X9209000Y-62591000D01*
X9209000Y-57409000D01*
X13271000Y-57409000D01*
X13271000Y-62591000D01*
X13271000Y-62591000D01*
G37*
G36*
X-22289000Y-61221000D02*
X-26351000Y-61221000D01*
X-26351000Y-58779000D01*
X-22289000Y-58779000D01*
X-22289000Y-61221000D01*
X-22289000Y-61221000D01*
G37*
G36*
X26351000Y-61221000D02*
X22289000Y-61221000D01*
X22289000Y-58779000D01*
X26351000Y-58779000D01*
X26351000Y-61221000D01*
X26351000Y-61221000D01*
G37*
G36*
X-27499000Y-55901000D02*
X-28501000Y-55901000D01*
X-28501000Y-54999000D01*
X-27499000Y-54999000D01*
X-27499000Y-55901000D01*
X-27499000Y-55901000D01*
G37*
G36*
X-29499000Y-54951000D02*
X-30501000Y-54951000D01*
X-30501000Y-54049000D01*
X-29499000Y-54049000D01*
X-29499000Y-54951000D01*
X-29499000Y-54951000D01*
G37*
G36*
X-27499000Y-54001000D02*
X-28501000Y-54001000D01*
X-28501000Y-53099000D01*
X-27499000Y-53099000D01*
X-27499000Y-54001000D01*
X-27499000Y-54001000D01*
G37*
G36*
X13271000Y-51591000D02*
X9209000Y-51591000D01*
X9209000Y-46409000D01*
X13271000Y-46409000D01*
X13271000Y-51591000D01*
X13271000Y-51591000D01*
G37*
G36*
X-9209000Y-51591000D02*
X-13271000Y-51591000D01*
X-13271000Y-46409000D01*
X-9209000Y-46409000D01*
X-9209000Y-51591000D01*
X-9209000Y-51591000D01*
G37*
G36*
X26351000Y-50221000D02*
X22289000Y-50221000D01*
X22289000Y-47779000D01*
X26351000Y-47779000D01*
X26351000Y-50221000D01*
X26351000Y-50221000D01*
G37*
G36*
X-22289000Y-50221000D02*
X-26351000Y-50221000D01*
X-26351000Y-47779000D01*
X-22289000Y-47779000D01*
X-22289000Y-50221000D01*
X-22289000Y-50221000D01*
G37*
G36*
X26607529Y-38058010D02*
X26660773Y-38068601D01*
X26761082Y-38110151D01*
X26851357Y-38170470D01*
X26928130Y-38247243D01*
X26988449Y-38337518D01*
X27029999Y-38437827D01*
X27051180Y-38544314D01*
X27051180Y-38652886D01*
X27029999Y-38759373D01*
X26988449Y-38859682D01*
X26928130Y-38949957D01*
X26851357Y-39026730D01*
X26761082Y-39087049D01*
X26660773Y-39128599D01*
X26607530Y-39139189D01*
X26554288Y-39149780D01*
X26445712Y-39149780D01*
X26392470Y-39139189D01*
X26339227Y-39128599D01*
X26238918Y-39087049D01*
X26148643Y-39026730D01*
X26071870Y-38949957D01*
X26011551Y-38859682D01*
X25970001Y-38759373D01*
X25948820Y-38652886D01*
X25948820Y-38544314D01*
X25970001Y-38437827D01*
X26011551Y-38337518D01*
X26071870Y-38247243D01*
X26148643Y-38170470D01*
X26238918Y-38110151D01*
X26339227Y-38068601D01*
X26392471Y-38058010D01*
X26445712Y-38047420D01*
X26554288Y-38047420D01*
X26607529Y-38058010D01*
X26607529Y-38058010D01*
G37*
G36*
X26607530Y-35060811D02*
X26660773Y-35071401D01*
X26761082Y-35112951D01*
X26851357Y-35173270D01*
X26928130Y-35250043D01*
X26988449Y-35340318D01*
X27029999Y-35440627D01*
X27051180Y-35547114D01*
X27051180Y-35655686D01*
X27029999Y-35762173D01*
X26988449Y-35862482D01*
X26928130Y-35952757D01*
X26851357Y-36029530D01*
X26761082Y-36089849D01*
X26660773Y-36131399D01*
X26607529Y-36141990D01*
X26554288Y-36152580D01*
X26445712Y-36152580D01*
X26392471Y-36141990D01*
X26339227Y-36131399D01*
X26238918Y-36089849D01*
X26148643Y-36029530D01*
X26071870Y-35952757D01*
X26011551Y-35862482D01*
X25970001Y-35762173D01*
X25948820Y-35655686D01*
X25948820Y-35547114D01*
X25970001Y-35440627D01*
X26011551Y-35340318D01*
X26071870Y-35250043D01*
X26148643Y-35173270D01*
X26238918Y-35112951D01*
X26339227Y-35071401D01*
X26392470Y-35060811D01*
X26445712Y-35050220D01*
X26554288Y-35050220D01*
X26607530Y-35060811D01*
X26607530Y-35060811D01*
G37*
G36*
X-25159142Y-12741623D02*
X-26961142Y-12741623D01*
X-26961142Y-10939623D01*
X-25159142Y-10939623D01*
X-25159142Y-12741623D01*
X-25159142Y-12741623D01*
G37*
G36*
X-25949699Y-8406142D02*
X-25883515Y-8412660D01*
X-25770289Y-8447007D01*
X-25713675Y-8464180D01*
X-25575055Y-8538275D01*
X-25557151Y-8547845D01*
X-25521413Y-8577175D01*
X-25419956Y-8660437D01*
X-25336694Y-8761894D01*
X-25307364Y-8797632D01*
X-25307363Y-8797634D01*
X-25223699Y-8954156D01*
X-25223699Y-8954157D01*
X-25172179Y-9123996D01*
X-25154783Y-9300623D01*
X-25172179Y-9477250D01*
X-25206526Y-9590476D01*
X-25223699Y-9647090D01*
X-25297794Y-9785710D01*
X-25307364Y-9803614D01*
X-25336694Y-9839352D01*
X-25419956Y-9940809D01*
X-25521413Y-10024071D01*
X-25557151Y-10053401D01*
X-25557153Y-10053402D01*
X-25713675Y-10137066D01*
X-25770289Y-10154239D01*
X-25883515Y-10188586D01*
X-25949700Y-10195105D01*
X-26015882Y-10201623D01*
X-26104402Y-10201623D01*
X-26170584Y-10195105D01*
X-26236769Y-10188586D01*
X-26349995Y-10154239D01*
X-26406609Y-10137066D01*
X-26563131Y-10053402D01*
X-26563133Y-10053401D01*
X-26598871Y-10024071D01*
X-26700328Y-9940809D01*
X-26783590Y-9839352D01*
X-26812920Y-9803614D01*
X-26822490Y-9785710D01*
X-26896585Y-9647090D01*
X-26913758Y-9590476D01*
X-26948105Y-9477250D01*
X-26965501Y-9300623D01*
X-26948105Y-9123996D01*
X-26896585Y-8954157D01*
X-26896585Y-8954156D01*
X-26812921Y-8797634D01*
X-26812920Y-8797632D01*
X-26783590Y-8761894D01*
X-26700328Y-8660437D01*
X-26598871Y-8577175D01*
X-26563133Y-8547845D01*
X-26545229Y-8538275D01*
X-26406609Y-8464180D01*
X-26349995Y-8447007D01*
X-26236769Y-8412660D01*
X-26170585Y-8406142D01*
X-26104402Y-8399623D01*
X-26015882Y-8399623D01*
X-25949699Y-8406142D01*
X-25949699Y-8406142D01*
G37*
G36*
X-25949699Y-5866142D02*
X-25883515Y-5872660D01*
X-25770289Y-5907007D01*
X-25713675Y-5924180D01*
X-25575055Y-5998275D01*
X-25557151Y-6007845D01*
X-25521413Y-6037175D01*
X-25419956Y-6120437D01*
X-25336694Y-6221894D01*
X-25307364Y-6257632D01*
X-25307363Y-6257634D01*
X-25223699Y-6414156D01*
X-25223699Y-6414157D01*
X-25172179Y-6583996D01*
X-25154783Y-6760623D01*
X-25172179Y-6937250D01*
X-25206526Y-7050476D01*
X-25223699Y-7107090D01*
X-25297794Y-7245710D01*
X-25307364Y-7263614D01*
X-25336694Y-7299352D01*
X-25419956Y-7400809D01*
X-25521413Y-7484071D01*
X-25557151Y-7513401D01*
X-25557153Y-7513402D01*
X-25713675Y-7597066D01*
X-25770289Y-7614239D01*
X-25883515Y-7648586D01*
X-25949700Y-7655105D01*
X-26015882Y-7661623D01*
X-26104402Y-7661623D01*
X-26170584Y-7655105D01*
X-26236769Y-7648586D01*
X-26349995Y-7614239D01*
X-26406609Y-7597066D01*
X-26563131Y-7513402D01*
X-26563133Y-7513401D01*
X-26598871Y-7484071D01*
X-26700328Y-7400809D01*
X-26783590Y-7299352D01*
X-26812920Y-7263614D01*
X-26822490Y-7245710D01*
X-26896585Y-7107090D01*
X-26913758Y-7050476D01*
X-26948105Y-6937250D01*
X-26965501Y-6760623D01*
X-26948105Y-6583996D01*
X-26896585Y-6414157D01*
X-26896585Y-6414156D01*
X-26812921Y-6257634D01*
X-26812920Y-6257632D01*
X-26783590Y-6221894D01*
X-26700328Y-6120437D01*
X-26598871Y-6037175D01*
X-26563133Y-6007845D01*
X-26545229Y-5998275D01*
X-26406609Y-5924180D01*
X-26349995Y-5907007D01*
X-26236769Y-5872660D01*
X-26170585Y-5866142D01*
X-26104402Y-5859623D01*
X-26015882Y-5859623D01*
X-25949699Y-5866142D01*
X-25949699Y-5866142D01*
G37*
G36*
X-23409699Y483858D02*
X-23343515Y477340D01*
X-23230289Y442993D01*
X-23173675Y425820D01*
X-23035055Y351725D01*
X-23017151Y342155D01*
X-22981413Y312825D01*
X-22879956Y229563D01*
X-22796694Y128106D01*
X-22767364Y92368D01*
X-22767363Y92366D01*
X-22683699Y-64156D01*
X-22683699Y-64157D01*
X-22632179Y-233996D01*
X-22614783Y-410623D01*
X-22632179Y-587250D01*
X-22666526Y-700476D01*
X-22683699Y-757090D01*
X-22757794Y-895710D01*
X-22767364Y-913614D01*
X-22796694Y-949352D01*
X-22879956Y-1050809D01*
X-22981413Y-1134071D01*
X-23017151Y-1163401D01*
X-23017153Y-1163402D01*
X-23173675Y-1247066D01*
X-23230289Y-1264239D01*
X-23343515Y-1298586D01*
X-23409700Y-1305105D01*
X-23475882Y-1311623D01*
X-23564402Y-1311623D01*
X-23630584Y-1305105D01*
X-23696769Y-1298586D01*
X-23809995Y-1264239D01*
X-23866609Y-1247066D01*
X-24023131Y-1163402D01*
X-24023133Y-1163401D01*
X-24058871Y-1134071D01*
X-24160328Y-1050809D01*
X-24243590Y-949352D01*
X-24272920Y-913614D01*
X-24282490Y-895710D01*
X-24356585Y-757090D01*
X-24373758Y-700476D01*
X-24408105Y-587250D01*
X-24425501Y-410623D01*
X-24408105Y-233996D01*
X-24356585Y-64157D01*
X-24356585Y-64156D01*
X-24272921Y92366D01*
X-24272920Y92368D01*
X-24243590Y128106D01*
X-24160328Y229563D01*
X-24058871Y312825D01*
X-24023133Y342155D01*
X-24005229Y351725D01*
X-23866609Y425820D01*
X-23809995Y442993D01*
X-23696769Y477340D01*
X-23630585Y483858D01*
X-23564402Y490377D01*
X-23475882Y490377D01*
X-23409699Y483858D01*
X-23409699Y483858D01*
G37*
G36*
X-25949699Y483858D02*
X-25883515Y477340D01*
X-25770289Y442993D01*
X-25713675Y425820D01*
X-25575055Y351725D01*
X-25557151Y342155D01*
X-25521413Y312825D01*
X-25419956Y229563D01*
X-25336694Y128106D01*
X-25307364Y92368D01*
X-25307363Y92366D01*
X-25223699Y-64156D01*
X-25223699Y-64157D01*
X-25172179Y-233996D01*
X-25154783Y-410623D01*
X-25172179Y-587250D01*
X-25206526Y-700476D01*
X-25223699Y-757090D01*
X-25297794Y-895710D01*
X-25307364Y-913614D01*
X-25336694Y-949352D01*
X-25419956Y-1050809D01*
X-25521413Y-1134071D01*
X-25557151Y-1163401D01*
X-25557153Y-1163402D01*
X-25713675Y-1247066D01*
X-25770289Y-1264239D01*
X-25883515Y-1298586D01*
X-25949700Y-1305105D01*
X-26015882Y-1311623D01*
X-26104402Y-1311623D01*
X-26170584Y-1305105D01*
X-26236769Y-1298586D01*
X-26349995Y-1264239D01*
X-26406609Y-1247066D01*
X-26563131Y-1163402D01*
X-26563133Y-1163401D01*
X-26598871Y-1134071D01*
X-26700328Y-1050809D01*
X-26783590Y-949352D01*
X-26812920Y-913614D01*
X-26822490Y-895710D01*
X-26896585Y-757090D01*
X-26913758Y-700476D01*
X-26948105Y-587250D01*
X-26965501Y-410623D01*
X-26948105Y-233996D01*
X-26896585Y-64157D01*
X-26896585Y-64156D01*
X-26812921Y92366D01*
X-26812920Y92368D01*
X-26783590Y128106D01*
X-26700328Y229563D01*
X-26598871Y312825D01*
X-26563133Y342155D01*
X-26545229Y351725D01*
X-26406609Y425820D01*
X-26349995Y442993D01*
X-26236769Y477340D01*
X-26170585Y483858D01*
X-26104402Y490377D01*
X-26015882Y490377D01*
X-25949699Y483858D01*
X-25949699Y483858D01*
G37*
G36*
X-23409699Y3023858D02*
X-23343515Y3017340D01*
X-23230289Y2982993D01*
X-23173675Y2965820D01*
X-23035055Y2891725D01*
X-23017151Y2882155D01*
X-22981413Y2852825D01*
X-22879956Y2769563D01*
X-22796694Y2668106D01*
X-22767364Y2632368D01*
X-22767363Y2632366D01*
X-22683699Y2475844D01*
X-22683699Y2475843D01*
X-22632179Y2306004D01*
X-22614783Y2129377D01*
X-22632179Y1952750D01*
X-22666526Y1839524D01*
X-22683699Y1782910D01*
X-22757794Y1644290D01*
X-22767364Y1626386D01*
X-22796694Y1590648D01*
X-22879956Y1489191D01*
X-22981413Y1405929D01*
X-23017151Y1376599D01*
X-23017153Y1376598D01*
X-23173675Y1292934D01*
X-23230289Y1275761D01*
X-23343515Y1241414D01*
X-23409699Y1234896D01*
X-23475882Y1228377D01*
X-23564402Y1228377D01*
X-23630584Y1234895D01*
X-23696769Y1241414D01*
X-23809995Y1275761D01*
X-23866609Y1292934D01*
X-24023131Y1376598D01*
X-24023133Y1376599D01*
X-24058871Y1405929D01*
X-24160328Y1489191D01*
X-24243590Y1590648D01*
X-24272920Y1626386D01*
X-24282490Y1644290D01*
X-24356585Y1782910D01*
X-24373758Y1839524D01*
X-24408105Y1952750D01*
X-24425501Y2129377D01*
X-24408105Y2306004D01*
X-24356585Y2475843D01*
X-24356585Y2475844D01*
X-24272921Y2632366D01*
X-24272920Y2632368D01*
X-24243590Y2668106D01*
X-24160328Y2769563D01*
X-24058871Y2852825D01*
X-24023133Y2882155D01*
X-24005229Y2891725D01*
X-23866609Y2965820D01*
X-23809995Y2982993D01*
X-23696769Y3017340D01*
X-23630585Y3023858D01*
X-23564402Y3030377D01*
X-23475882Y3030377D01*
X-23409699Y3023858D01*
X-23409699Y3023858D01*
G37*
G36*
X-25949699Y3023858D02*
X-25883515Y3017340D01*
X-25770289Y2982993D01*
X-25713675Y2965820D01*
X-25575055Y2891725D01*
X-25557151Y2882155D01*
X-25521413Y2852825D01*
X-25419956Y2769563D01*
X-25336694Y2668106D01*
X-25307364Y2632368D01*
X-25307363Y2632366D01*
X-25223699Y2475844D01*
X-25223699Y2475843D01*
X-25172179Y2306004D01*
X-25154783Y2129377D01*
X-25172179Y1952750D01*
X-25206526Y1839524D01*
X-25223699Y1782910D01*
X-25297794Y1644290D01*
X-25307364Y1626386D01*
X-25336694Y1590648D01*
X-25419956Y1489191D01*
X-25521413Y1405929D01*
X-25557151Y1376599D01*
X-25557153Y1376598D01*
X-25713675Y1292934D01*
X-25770289Y1275761D01*
X-25883515Y1241414D01*
X-25949699Y1234896D01*
X-26015882Y1228377D01*
X-26104402Y1228377D01*
X-26170584Y1234895D01*
X-26236769Y1241414D01*
X-26349995Y1275761D01*
X-26406609Y1292934D01*
X-26563131Y1376598D01*
X-26563133Y1376599D01*
X-26598871Y1405929D01*
X-26700328Y1489191D01*
X-26783590Y1590648D01*
X-26812920Y1626386D01*
X-26822490Y1644290D01*
X-26896585Y1782910D01*
X-26913758Y1839524D01*
X-26948105Y1952750D01*
X-26965501Y2129377D01*
X-26948105Y2306004D01*
X-26896585Y2475843D01*
X-26896585Y2475844D01*
X-26812921Y2632366D01*
X-26812920Y2632368D01*
X-26783590Y2668106D01*
X-26700328Y2769563D01*
X-26598871Y2852825D01*
X-26563133Y2882155D01*
X-26545229Y2891725D01*
X-26406609Y2965820D01*
X-26349995Y2982993D01*
X-26236769Y3017340D01*
X-26170585Y3023858D01*
X-26104402Y3030377D01*
X-26015882Y3030377D01*
X-25949699Y3023858D01*
X-25949699Y3023858D01*
G37*
G36*
X-25949699Y5563858D02*
X-25883515Y5557340D01*
X-25770289Y5522993D01*
X-25713675Y5505820D01*
X-25575055Y5431725D01*
X-25557151Y5422155D01*
X-25521413Y5392825D01*
X-25419956Y5309563D01*
X-25336694Y5208106D01*
X-25307364Y5172368D01*
X-25307363Y5172366D01*
X-25223699Y5015844D01*
X-25223699Y5015843D01*
X-25172179Y4846004D01*
X-25154783Y4669377D01*
X-25172179Y4492750D01*
X-25206526Y4379524D01*
X-25223699Y4322910D01*
X-25297794Y4184290D01*
X-25307364Y4166386D01*
X-25336694Y4130648D01*
X-25419956Y4029191D01*
X-25521413Y3945929D01*
X-25557151Y3916599D01*
X-25557153Y3916598D01*
X-25713675Y3832934D01*
X-25770289Y3815761D01*
X-25883515Y3781414D01*
X-25949700Y3774895D01*
X-26015882Y3768377D01*
X-26104402Y3768377D01*
X-26170584Y3774895D01*
X-26236769Y3781414D01*
X-26349995Y3815761D01*
X-26406609Y3832934D01*
X-26563131Y3916598D01*
X-26563133Y3916599D01*
X-26598871Y3945929D01*
X-26700328Y4029191D01*
X-26783590Y4130648D01*
X-26812920Y4166386D01*
X-26822490Y4184290D01*
X-26896585Y4322910D01*
X-26913758Y4379524D01*
X-26948105Y4492750D01*
X-26965501Y4669377D01*
X-26948105Y4846004D01*
X-26896585Y5015843D01*
X-26896585Y5015844D01*
X-26812921Y5172366D01*
X-26812920Y5172368D01*
X-26783590Y5208106D01*
X-26700328Y5309563D01*
X-26598871Y5392825D01*
X-26563133Y5422155D01*
X-26545229Y5431725D01*
X-26406609Y5505820D01*
X-26349995Y5522993D01*
X-26236769Y5557340D01*
X-26170584Y5563859D01*
X-26104402Y5570377D01*
X-26015882Y5570377D01*
X-25949699Y5563858D01*
X-25949699Y5563858D01*
G37*
G36*
X-23409699Y5563858D02*
X-23343515Y5557340D01*
X-23230289Y5522993D01*
X-23173675Y5505820D01*
X-23035055Y5431725D01*
X-23017151Y5422155D01*
X-22981413Y5392825D01*
X-22879956Y5309563D01*
X-22796694Y5208106D01*
X-22767364Y5172368D01*
X-22767363Y5172366D01*
X-22683699Y5015844D01*
X-22683699Y5015843D01*
X-22632179Y4846004D01*
X-22614783Y4669377D01*
X-22632179Y4492750D01*
X-22666526Y4379524D01*
X-22683699Y4322910D01*
X-22757794Y4184290D01*
X-22767364Y4166386D01*
X-22796694Y4130648D01*
X-22879956Y4029191D01*
X-22981413Y3945929D01*
X-23017151Y3916599D01*
X-23017153Y3916598D01*
X-23173675Y3832934D01*
X-23230289Y3815761D01*
X-23343515Y3781414D01*
X-23409700Y3774895D01*
X-23475882Y3768377D01*
X-23564402Y3768377D01*
X-23630584Y3774895D01*
X-23696769Y3781414D01*
X-23809995Y3815761D01*
X-23866609Y3832934D01*
X-24023131Y3916598D01*
X-24023133Y3916599D01*
X-24058871Y3945929D01*
X-24160328Y4029191D01*
X-24243590Y4130648D01*
X-24272920Y4166386D01*
X-24282490Y4184290D01*
X-24356585Y4322910D01*
X-24373758Y4379524D01*
X-24408105Y4492750D01*
X-24425501Y4669377D01*
X-24408105Y4846004D01*
X-24356585Y5015843D01*
X-24356585Y5015844D01*
X-24272921Y5172366D01*
X-24272920Y5172368D01*
X-24243590Y5208106D01*
X-24160328Y5309563D01*
X-24058871Y5392825D01*
X-24023133Y5422155D01*
X-24005229Y5431725D01*
X-23866609Y5505820D01*
X-23809995Y5522993D01*
X-23696769Y5557340D01*
X-23630584Y5563859D01*
X-23564402Y5570377D01*
X-23475882Y5570377D01*
X-23409699Y5563858D01*
X-23409699Y5563858D01*
G37*
G36*
X-25949699Y8103858D02*
X-25883515Y8097340D01*
X-25770289Y8062993D01*
X-25713675Y8045820D01*
X-25575055Y7971725D01*
X-25557151Y7962155D01*
X-25521413Y7932825D01*
X-25419956Y7849563D01*
X-25336694Y7748106D01*
X-25307364Y7712368D01*
X-25307363Y7712366D01*
X-25223699Y7555844D01*
X-25223699Y7555843D01*
X-25172179Y7386004D01*
X-25154783Y7209377D01*
X-25172179Y7032750D01*
X-25206526Y6919524D01*
X-25223699Y6862910D01*
X-25297794Y6724290D01*
X-25307364Y6706386D01*
X-25336694Y6670648D01*
X-25419956Y6569191D01*
X-25521413Y6485929D01*
X-25557151Y6456599D01*
X-25557153Y6456598D01*
X-25713675Y6372934D01*
X-25770289Y6355761D01*
X-25883515Y6321414D01*
X-25949700Y6314895D01*
X-26015882Y6308377D01*
X-26104402Y6308377D01*
X-26170584Y6314895D01*
X-26236769Y6321414D01*
X-26349995Y6355761D01*
X-26406609Y6372934D01*
X-26563131Y6456598D01*
X-26563133Y6456599D01*
X-26598871Y6485929D01*
X-26700328Y6569191D01*
X-26783590Y6670648D01*
X-26812920Y6706386D01*
X-26822490Y6724290D01*
X-26896585Y6862910D01*
X-26913758Y6919524D01*
X-26948105Y7032750D01*
X-26965501Y7209377D01*
X-26948105Y7386004D01*
X-26896585Y7555843D01*
X-26896585Y7555844D01*
X-26812921Y7712366D01*
X-26812920Y7712368D01*
X-26783590Y7748106D01*
X-26700328Y7849563D01*
X-26598871Y7932825D01*
X-26563133Y7962155D01*
X-26545229Y7971725D01*
X-26406609Y8045820D01*
X-26349995Y8062993D01*
X-26236769Y8097340D01*
X-26170585Y8103858D01*
X-26104402Y8110377D01*
X-26015882Y8110377D01*
X-25949699Y8103858D01*
X-25949699Y8103858D01*
G37*
G36*
X-23409699Y8103858D02*
X-23343515Y8097340D01*
X-23230289Y8062993D01*
X-23173675Y8045820D01*
X-23035055Y7971725D01*
X-23017151Y7962155D01*
X-22981413Y7932825D01*
X-22879956Y7849563D01*
X-22796694Y7748106D01*
X-22767364Y7712368D01*
X-22767363Y7712366D01*
X-22683699Y7555844D01*
X-22683699Y7555843D01*
X-22632179Y7386004D01*
X-22614783Y7209377D01*
X-22632179Y7032750D01*
X-22666526Y6919524D01*
X-22683699Y6862910D01*
X-22757794Y6724290D01*
X-22767364Y6706386D01*
X-22796694Y6670648D01*
X-22879956Y6569191D01*
X-22981413Y6485929D01*
X-23017151Y6456599D01*
X-23017153Y6456598D01*
X-23173675Y6372934D01*
X-23230289Y6355761D01*
X-23343515Y6321414D01*
X-23409700Y6314895D01*
X-23475882Y6308377D01*
X-23564402Y6308377D01*
X-23630584Y6314895D01*
X-23696769Y6321414D01*
X-23809995Y6355761D01*
X-23866609Y6372934D01*
X-24023131Y6456598D01*
X-24023133Y6456599D01*
X-24058871Y6485929D01*
X-24160328Y6569191D01*
X-24243590Y6670648D01*
X-24272920Y6706386D01*
X-24282490Y6724290D01*
X-24356585Y6862910D01*
X-24373758Y6919524D01*
X-24408105Y7032750D01*
X-24425501Y7209377D01*
X-24408105Y7386004D01*
X-24356585Y7555843D01*
X-24356585Y7555844D01*
X-24272921Y7712366D01*
X-24272920Y7712368D01*
X-24243590Y7748106D01*
X-24160328Y7849563D01*
X-24058871Y7932825D01*
X-24023133Y7962155D01*
X-24005229Y7971725D01*
X-23866609Y8045820D01*
X-23809995Y8062993D01*
X-23696769Y8097340D01*
X-23630585Y8103858D01*
X-23564402Y8110377D01*
X-23475882Y8110377D01*
X-23409699Y8103858D01*
X-23409699Y8103858D01*
G37*
G36*
X-23409700Y10643859D02*
X-23343515Y10637340D01*
X-23230289Y10602993D01*
X-23173675Y10585820D01*
X-23035055Y10511725D01*
X-23017151Y10502155D01*
X-22981413Y10472825D01*
X-22879956Y10389563D01*
X-22796694Y10288106D01*
X-22767364Y10252368D01*
X-22767363Y10252366D01*
X-22683699Y10095844D01*
X-22683699Y10095843D01*
X-22632179Y9926004D01*
X-22614783Y9749377D01*
X-22632179Y9572750D01*
X-22666526Y9459524D01*
X-22683699Y9402910D01*
X-22757794Y9264290D01*
X-22767364Y9246386D01*
X-22796694Y9210648D01*
X-22879956Y9109191D01*
X-22981413Y9025929D01*
X-23017151Y8996599D01*
X-23017153Y8996598D01*
X-23173675Y8912934D01*
X-23230289Y8895761D01*
X-23343515Y8861414D01*
X-23409700Y8854895D01*
X-23475882Y8848377D01*
X-23564402Y8848377D01*
X-23630584Y8854895D01*
X-23696769Y8861414D01*
X-23809995Y8895761D01*
X-23866609Y8912934D01*
X-24023131Y8996598D01*
X-24023133Y8996599D01*
X-24058871Y9025929D01*
X-24160328Y9109191D01*
X-24243590Y9210648D01*
X-24272920Y9246386D01*
X-24282490Y9264290D01*
X-24356585Y9402910D01*
X-24373758Y9459524D01*
X-24408105Y9572750D01*
X-24425501Y9749377D01*
X-24408105Y9926004D01*
X-24356585Y10095843D01*
X-24356585Y10095844D01*
X-24272921Y10252366D01*
X-24272920Y10252368D01*
X-24243590Y10288106D01*
X-24160328Y10389563D01*
X-24058871Y10472825D01*
X-24023133Y10502155D01*
X-24005229Y10511725D01*
X-23866609Y10585820D01*
X-23809995Y10602993D01*
X-23696769Y10637340D01*
X-23630584Y10643859D01*
X-23564402Y10650377D01*
X-23475882Y10650377D01*
X-23409700Y10643859D01*
X-23409700Y10643859D01*
G37*
G36*
X-25159142Y8848377D02*
X-26961142Y8848377D01*
X-26961142Y10650377D01*
X-25159142Y10650377D01*
X-25159142Y8848377D01*
X-25159142Y8848377D01*
G37*
M02*
